{
DisplayStrings = (
"\U00BF",
"?"
);
copyright = "Copyright (c) 2016 ResearchGate";
customParameters = (
{
name = license;
value = "This Font Software is licensed under the SIL Open Font License, Version 1.1. This license is available with a FAQ at: http://scripts.sil.org/OFL";
},
{
name = licenseURL;
value = "http://scripts.sil.org/OFL";
},
{
name = vendorID;
value = "STC ";
},
{
name = glyphOrder;
value = (
    ".notdef",
    uni0000,
    uni000D,
    NULL,
    HT,
    LF,
    DLE,
    DC1,
    DC2,
    DC3,
    DC4,
    RS,
    US,
    space,
    exclam,
    quotedbl,
    numbersign,
    dollar,
    percent,
    ampersand,
    quotesingle,
    parenleft,
    parenright,
    asterisk,
    plus,
    comma,
    hyphen,
    period,
    slash,
    zero,
    one,
    two,
    three,
    four,
    five,
    six,
    seven,
    eight,
    nine,
    colon,
    semicolon,
    less,
    equal,
    greater,
    question,
    at,
    A,
    B,
    C,
    D,
    E,
    F,
    G,
    H,
    I,
    J,
    K,
    L,
    M,
    N,
    O,
    P,
    Q,
    R,
    S,
    T,
    U,
    V,
    W,
    X,
    Y,
    Z,
    bracketleft,
    backslash,
    bracketright,
    asciicircum,
    underscore,
    grave,
    a,
    b,
    c,
    d,
    e,
    f,
    g,
    h,
    i,
    j,
    k,
    l,
    m,
    n,
    o,
    p,
    q,
    r,
    s,
    t,
    u,
    v,
    w,
    x,
    y,
    z,
    braceleft,
    bar,
    braceright,
    asciitilde,
    DEL,
    uni00A0,
    exclamdown,
    cent,
    sterling,
    currency,
    yen,
    brokenbar,
    section,
    dieresis,
    copyright,
    ordfeminine,
    guillemotleft,
    logicalnot,
    uni00AD,
    registered,
    macron,
    degree,
    plusminus,
    uni00B2,
    uni00B3,
    acute,
    uni00B5,
    paragraph,
    periodcentered,
    cedilla,
    uni00B9,
    ordmasculine,
    guillemotright,
    onequarter,
    onehalf,
    threequarters,
    questiondown,
    Agrave,
    Aacute,
    Acircumflex,
    Atilde,
    Adieresis,

glyphs = (
{
glyphname = A;
layers = (
{
layerId = "91C2604D-2087-4E0F-8837-A2CE9AC82E20";
name = "Bold Italic";
paths = (
{
closed = 1;
nodes = (
"849 1309 LINE",
"1061 119 LINE",
"1200 91 LINE",
"1195 0 LINE",
"602 0 LINE",
"606 91 LINE",
"741 116 LINE",
"707 358 LINE",
"288 358 LINE",
"187 117 LINE",
"348 91 LINE",
"341 0 LINE",
"-138 0 LINE",
"-132 91 LINE",
"-13 116 LINE",
"550 1309 LINE"
);
},
{
closed = 1;
nodes = (
"689 488 LINE",
"622 961 LINE",
"614 1125 LINE",
"343 488 LINE"
);
}
);
width = 1161;
}
);
note = A;
unicode = 0041;
},
{
glyphname = Aacute;
layers = (
{
layerId = "91C2604D-2087-4E0F-8837-A2CE9AC82E20";
name = "Bold Italic";
paths = (
{
closed = 1;
nodes = (
"849 1309 LINE",
"1061 119 LINE",
"1200 91 LINE",
"1195 0 LINE",
"602 0 LINE",
"606 91 LINE",
"741 116 LINE",
"707 358 LINE",
"288 358 LINE",
"187 117 LINE",
"348 91 LINE",
"341 0 LINE",
"-138 0 LINE",
"-132 91 LINE",
"-13 116 LINE",
"550 1309 LINE"
);
},
{
closed = 1;
nodes = (
"689 488 LINE",
"622 961 LINE",
"614 1125 LINE",
"343 488 LINE"
);
},
{
closed = 1;
nodes = (
"859 1732 LINE",
"1020 1573 LINE",
"992 1520 OFFCURVE",
"912 1453 OFFCURVE",
"829 1404 CURVE SMOOTH",
"787 1379 OFFCURVE",
"751 1361 OFFCURVE",
"722 1350 CURVE",
"622 1438 LINE"
);
}
);
width = 1161;
}
);
note = Aacute;
unicode = 00C1;
},
{
glyphname = Abreve;
layers = (
{
layerId = "91C2604D-2087-4E0F-8837-A2CE9AC82E20";
name = "Bold Italic";
paths = (
{
closed = 1;
nodes = (
"849 1309 LINE",
"1061 119 LINE",
"1200 91 LINE",
"1195 0 LINE",
"602 0 LINE",
"606 91 LINE",
"741 116 LINE",
"707 358 LINE",
"288 358 LINE",
"187 117 LINE",
"348 91 LINE",
"341 0 LINE",
"-138 0 LINE",
"-132 91 LINE",
"-13 116 LINE",
"550 1309 LINE"
);
},
{
closed = 1;
nodes = (
"689 488 LINE",
"622 961 LINE",
"614 1125 LINE",
"343 488 LINE"
);
},
{
closed = 1;
nodes = (
"443 1694 OFFCURVE",
"445 1713 OFFCURVE",
"448 1732 CURVE",
"607 1732 LINE",
"607 1664 OFFCURVE",
"610 1632 OFFCURVE",
"642 1609 CURVE SMOOTH",
"658 1597 OFFCURVE",
"683 1591 OFFCURVE",
"717 1591 CURVE SMOOTH",
"811 1591 OFFCURVE",
"858 1638 OFFCURVE",
"858 1732 CURVE",
"1013 1732 LINE",
"1013 1603 OFFCURVE",
"964 1500 OFFCURVE",
"874 1445 CURVE SMOOTH",
"829 1418 OFFCURVE",
"775 1404 OFFCURVE",
"713 1404 CURVE SMOOTH",
"501 1404 OFFCURVE",
"443 1525 OFFCURVE",
"443 1674 CURVE SMOOTH"
);
}
);
width = 1161;
}
);
note = Abreve;
unicode = 0102;
},
{
glyphname = Acircumflex;
layers = (
{
layerId = "91C2604D-2087-4E0F-8837-A2CE9AC82E20";
name = "Bold Italic";
paths = (
{
closed = 1;
nodes = (
"849 1309 LINE",
"1061 119 LINE",
"1200 91 LINE",
"1195 0 LINE",
"602 0 LINE",
"606 91 LINE",
"741 116 LINE",
"707 358 LINE",
"288 358 LINE",
"187 117 LINE",
"348 91 LINE",
"341 0 LINE",
"-138 0 LINE",
"-132 91 LINE",
"-13 116 LINE",
"550 1309 LINE"
);
},
{
closed = 1;
nodes = (
"689 488 LINE",
"622 961 LINE",
"614 1125 LINE",
"343 488 LINE"
);
},
{
closed = 1;
nodes = (
"707 1732 LINE",
"860 1732 LINE",
"1041 1425 LINE",
"934 1375 LINE",
"762 1553 LINE",
"484 1376 LINE",
"392 1425 LINE"
);
}
);
width = 1161;
}
);
note = Acircumflex;
unicode = 00C2;
},
{
glyphname = Adieresis;
layers = (
{
layerId = "91C2604D-2087-4E0F-8837-A2CE9AC82E20";
name = "Bold Italic";
paths = (
{
closed = 1;
nodes = (
"849 1309 LINE",
"1061 119 LINE",
"1200 91 LINE",
"1195 0 LINE",
"602 0 LINE",
"606 91 LINE",
"741 116 LINE",
"707 358 LINE",
"288 358 LINE",
"187 117 LINE",
"348 91 LINE",
"341 0 LINE",
"-138 0 LINE",
"-132 91 LINE",
"-13 116 LINE",
"550 1309 LINE"
);
},
{
closed = 1;
nodes = (
"689 488 LINE",
"622 961 LINE",
"614 1125 LINE",
"343 488 LINE"
);
},
{
closed = 1;
nodes = (
"392 1647 OFFCURVE",
"448 1706 OFFCURVE",
"537 1706 CURVE SMOOTH",
"614 1706 OFFCURVE",
"659 1658 OFFCURVE",
"659 1589 CURVE SMOOTH",
"659 1489 OFFCURVE",
"608 1428 OFFCURVE",
"508 1428 CURVE SMOOTH",
"440 1428 OFFCURVE",
"392 1482 OFFCURVE",
"392 1551 CURVE SMOOTH"
);
},
{
closed = 1;
nodes = (
"781 1647 OFFCURVE",
"837 1706 OFFCURVE",
"925 1706 CURVE SMOOTH",
"1004 1706 OFFCURVE",
"1047 1658 OFFCURVE",
"1047 1589 CURVE SMOOTH",
"1047 1489 OFFCURVE",
"997 1428 OFFCURVE",
"897 1428 CURVE SMOOTH",
"829 1428 OFFCURVE",
"781 1482 OFFCURVE",
"781 1551 CURVE SMOOTH"
);
}
);
width = 1161;
}
);
note = Adieresis;
unicode = 00C4;
},
{
glyphname = Agrave;
layers = (
{
layerId = "91C2604D-2087-4E0F-8837-A2CE9AC82E20";
name = "Bold Italic";
paths = (
{
closed = 1;
nodes = (
"849 1309 LINE",
"1061 119 LINE",
"1200 91 LINE",
"1195 0 LINE",
"602 0 LINE",
"606 91 LINE",
"741 116 LINE",
"707 358 LINE",
"288 358 LINE",
"187 117 LINE",
"348 91 LINE",
"341 0 LINE",
"-138 0 LINE",
"-132 91 LINE",
"-13 116 LINE",
"550 1309 LINE"
);
},
{
closed = 1;
nodes = (
"689 488 LINE",
"622 961 LINE",
"614 1125 LINE",
"343 488 LINE"
);
},
{
closed = 1;
nodes = (
"576 1732 LINE",
"813 1438 LINE",
"713 1350 LINE",
"654 1373 OFFCURVE",
"565 1425 OFFCURVE",
"493 1485 CURVE SMOOTH",
"457 1515 OFFCURVE",
"431 1544 OFFCURVE",
"415 1573 CURVE"
);
}
);
width = 1161;
}
);
note = Agrave;
unicode = 00C0;
},
{
glyphname = Amacron;
layers = (
{
layerId = "91C2604D-2087-4E0F-8837-A2CE9AC82E20";
name = "Bold Italic";
paths = (
{
closed = 1;
nodes = (
"849 1309 LINE",
"1061 119 LINE",
"1200 91 LINE",
"1195 0 LINE",
"602 0 LINE",
"606 91 LINE",
"741 116 LINE",
"707 358 LINE",
"288 358 LINE",
"187 117 LINE",
"348 91 LINE",
"341 0 LINE",
"-138 0 LINE",
"-132 91 LINE",
"-13 116 LINE",
"550 1309 LINE"
);
},
{
closed = 1;
nodes = (
"689 488 LINE",
"622 961 LINE",
"614 1125 LINE",
"343 488 LINE"
);
},
{
closed = 1;
nodes = (
"974 1648 LINE",
"956 1468 LINE",
"465 1468 LINE",
"482 1648 LINE"
);
}
);
width = 1161;
}
);
note = Amacron;
unicode = 0100;
},
{
glyphname = Aogonek;
layers = (
{
layerId = "91C2604D-2087-4E0F-8837-A2CE9AC82E20";
name = "Bold Italic";
paths = (
{
closed = 1;
nodes = (
"849 1309 LINE",
"1061 119 LINE",
"1200 91 LINE",
"1195 0 LINE",
"996 0 LINE",
"885 -75 OFFCURVE",
"829 -137 OFFCURVE",
"829 -185 CURVE SMOOTH",
"829 -230 OFFCURVE",
"850 -247 OFFCURVE",
"887 -247 CURVE SMOOTH",
"928 -247 OFFCURVE",
"961 -229 OFFCURVE",
"1018 -182 CURVE",
"1049 -280 LINE",
"973 -360 OFFCURVE",
"870 -413 OFFCURVE",
"753 -413 CURVE SMOOTH",
"645 -413 OFFCURVE",
"587 -356 OFFCURVE",
"587 -263 CURVE SMOOTH",
"587 -235 OFFCURVE",
"605 -189 OFFCURVE",
"626 -157 CURVE SMOOTH",
"679 -77 OFFCURVE",
"737 -36 OFFCURVE",
"808 0 CURVE",
"602 0 LINE",
"606 91 LINE",
"741 116 LINE",
"707 358 LINE",
"288 358 LINE",
"187 117 LINE",
"348 91 LINE",
"341 0 LINE",
"-138 0 LINE",
"-132 91 LINE",
"-13 116 LINE",
"550 1309 LINE"
);
},
{
closed = 1;
nodes = (
"689 488 LINE",
"622 961 LINE",
"614 1125 LINE",
"343 488 LINE"
);
}
);
width = 1161;
}
);
note = Aogonek;
unicode = 0104;
},
{
glyphname = Aring;
layers = (
{
layerId = "91C2604D-2087-4E0F-8837-A2CE9AC82E20";
name = "Bold Italic";
paths = (
{
closed = 1;
nodes = (
"548 1303 LINE",
"460 1332 OFFCURVE",
"409 1392 OFFCURVE",
"409 1480 CURVE SMOOTH",
"409 1605 OFFCURVE",
"491 1678 OFFCURVE",
"595 1709 CURVE SMOOTH",
"646 1724 OFFCURVE",
"698 1732 OFFCURVE",
"750 1732 CURVE SMOOTH",
"851 1732 OFFCURVE",
"937 1704 OFFCURVE",
"984 1646 CURVE SMOOTH",
"1007 1617 OFFCURVE",
"1019 1581 OFFCURVE",
"1019 1540 CURVE SMOOTH",
"1019 1424 OFFCURVE",
"952 1348 OFFCURVE",
"848 1309 CURVE",
"849 1309 LINE",
"1061 119 LINE",
"1200 91 LINE",
"1195 0 LINE",
"602 0 LINE",
"606 91 LINE",
"741 116 LINE",
"707 358 LINE",
"288 358 LINE",
"187 117 LINE",
"348 91 LINE",
"341 0 LINE",
"-138 0 LINE",
"-132 91 LINE",
"-13 116 LINE"
);
},
{
closed = 1;
nodes = (
"853 1556 OFFCURVE",
"827 1587 OFFCURVE",
"788 1603 CURVE SMOOTH",
"769 1611 OFFCURVE",
"749 1615 OFFCURVE",
"728 1615 CURVE SMOOTH",
"647 1615 OFFCURVE",
"576 1584 OFFCURVE",
"576 1500 CURVE SMOOTH",
"576 1461 OFFCURVE",
"604 1430 OFFCURVE",
"644 1414 CURVE SMOOTH",
"663 1406 OFFCURVE",
"683 1402 OFFCURVE",
"703 1402 CURVE SMOOTH",
"803 1402 OFFCURVE",
"853 1440 OFFCURVE",
"853 1516 CURVE SMOOTH"
);
},
{
closed = 1;
nodes = (
"689 488 LINE",
"622 961 LINE",
"614 1125 LINE",
"343 488 LINE"
);
}
);
width = 1161;
}
);
note = Aring;
unicode = 00C5;
},
{
glyphname = Atilde;
layers = (
{
layerId = "91C2604D-2087-4E0F-8837-A2CE9AC82E20";
name = "Bold Italic";
paths = (
{
closed = 1;
nodes = (
"849 1309 LINE",
"1061 119 LINE",
"1200 91 LINE",
"1195 0 LINE",
"602 0 LINE",
"606 91 LINE",
"741 116 LINE",
"707 358 LINE",
"288 358 LINE",
"187 117 LINE",
"348 91 LINE",
"341 0 LINE",
"-138 0 LINE",
"-132 91 LINE",
"-13 116 LINE",
"550 1309 LINE"
);
},
{
closed = 1;
nodes = (
"689 488 LINE",
"622 961 LINE",
"614 1125 LINE",
"343 488 LINE"
);
},
{
closed = 1;
nodes = (
"403 1549 LINE",
"422 1598 OFFCURVE",
"465 1646 OFFCURVE",
"526 1674 CURVE SMOOTH",
"556 1687 OFFCURVE",
"589 1694 OFFCURVE",
"624 1694 CURVE SMOOTH",
"689 1694 OFFCURVE",
"725 1668 OFFCURVE",
"773 1619 CURVE SMOOTH",
"812 1580 OFFCURVE",
"831 1565 OFFCURVE",
"864 1565 CURVE SMOOTH",
"920 1565 OFFCURVE",
"959 1603 OFFCURVE",
"995 1651 CURVE",
"1071 1539 LINE",
"1051 1487 OFFCURVE",
"1005 1436 OFFCURVE",
"946 1406 CURVE SMOOTH",
"916 1391 OFFCURVE",
"886 1383 OFFCURVE",
"855 1383 CURVE SMOOTH",
"803 1383 OFFCURVE",
"765 1399 OFFCURVE",
"740 1419 CURVE",
"727 1428 OFFCURVE",
"713 1441 OFFCURVE",
"697 1457 CURVE SMOOTH",
"658 1494 OFFCURVE",
"637 1512 OFFCURVE",
"594 1512 CURVE SMOOTH",
"547 1512 OFFCURVE",
"510 1485 OFFCURVE",
"469 1442 CURVE"
);
}
);
width = 1161;
}
);
note = Atilde;
unicode = 00C3;
},
{
glyphname = AE;
layers = (
{
layerId = "91C2604D-2087-4E0F-8837-A2CE9AC82E20";
name = "Bold Italic";
paths = (
{
closed = 1;
nodes = (
"709 117 LINE",
"740 358 LINE",
"332 358 LINE",
"206 117 LINE",
"369 91 LINE",
"362 0 LINE",
"-177 0 LINE",
"-170 91 LINE",
"-35 117 LINE",
"590 1183 LINE",
"339 1206 LINE",
"352 1309 LINE",
"1696 1309 LINE",
"1665 991 LINE",
"1474 991 LINE",
"1445 1183 LINE",
"1153 1206 LINE",
"1090 746 LINE",
"1482 782 LINE",
"1452 585 LINE",
"1074 612 LINE",
"1007 117 LINE",
"1405 147 LINE",
"1506 402 LINE",
"1689 390 LINE",
"1629 0 LINE",
"559 0 LINE",
"571 91 LINE"
);
},
{
closed = 1;
nodes = (
"400 488 LINE",
"757 488 LINE",
"851 1206 LINE",
"777 1206 LINE"
);
}
);
width = 1730;
}
);
note = AE;
unicode = 00C6;
},
{
glyphname = AEacute;
layers = (
{
layerId = "91C2604D-2087-4E0F-8837-A2CE9AC82E20";
name = "Bold Italic";
paths = (
{
closed = 1;
nodes = (
"1254 1732 LINE",
"1415 1573 LINE",
"1387 1520 OFFCURVE",
"1307 1453 OFFCURVE",
"1224 1404 CURVE SMOOTH",
"1182 1379 OFFCURVE",
"1146 1361 OFFCURVE",
"1117 1350 CURVE",
"1017 1438 LINE"
);
},
{
closed = 1;
nodes = (
"709 117 LINE",
"740 358 LINE",
"332 358 LINE",
"206 117 LINE",
"369 91 LINE",
"362 0 LINE",
"-177 0 LINE",
"-170 91 LINE",
"-35 117 LINE",
"590 1183 LINE",
"339 1206 LINE",
"352 1309 LINE",
"1696 1309 LINE",
"1665 991 LINE",
"1474 991 LINE",
"1445 1183 LINE",
"1153 1206 LINE",
"1090 746 LINE",
"1482 782 LINE",
"1452 585 LINE",
"1074 612 LINE",
"1007 117 LINE",
"1405 147 LINE",
"1506 402 LINE",
"1689 390 LINE",
"1629 0 LINE",
"559 0 LINE",
"571 91 LINE"
);
},
{
closed = 1;
nodes = (
"400 488 LINE",
"757 488 LINE",
"851 1206 LINE",
"777 1206 LINE"
);
}
);
width = 1730;
}
);
note = AEacute;
unicode = 01FC;
},
{
glyphname = B;
layers = (
{
layerId = "91C2604D-2087-4E0F-8837-A2CE9AC82E20";
name = "Bold Italic";
paths = (
{
closed = 1;
nodes = (
"117 117 LINE",
"261 1192 LINE",
"136 1214 LINE",
"147 1309 LINE",
"436 1309 LINE SMOOTH",
"467 1309 OFFCURVE",
"514 1311 OFFCURVE",
"577 1316 CURVE SMOOTH",
"648 1321 OFFCURVE",
"704 1323 OFFCURVE",
"745 1323 CURVE SMOOTH",
"964 1323 OFFCURVE",
"1080 1262 OFFCURVE",
"1124 1175 CURVE SMOOTH",
"1145 1131 OFFCURVE",
"1156 1081 OFFCURVE",
"1156 1024 CURVE SMOOTH",
"1156 849 OFFCURVE",
"1048 743 OFFCURVE",
"832 691 CURVE",
"960 692 OFFCURVE",
"1059 642 OFFCURVE",
"1111 562 CURVE SMOOTH",
"1136 521 OFFCURVE",
"1149 477 OFFCURVE",
"1149 430 CURVE SMOOTH",
"1149 217 OFFCURVE",
"1054 88 OFFCURVE",
"869 28 CURVE SMOOTH",
"776 -2 OFFCURVE",
"660 -17 OFFCURVE",
"519 -17 CURVE SMOOTH",
"490 -17 OFFCURVE",
"443 -14 OFFCURVE",
"378 -9 CURVE SMOOTH",
"313 -3 OFFCURVE",
"269 0 OFFCURVE",
"244 0 CURVE SMOOTH",
"-11 0 LINE",
"-3 91 LINE"
);
},
{
closed = 1;
nodes = (
"488 736 LINE",
"497 735 OFFCURVE",
"508 735 OFFCURVE",
"523 735 CURVE SMOOTH",
"595 736 LINE SMOOTH",
"699 736 OFFCURVE",
"785 771 OFFCURVE",
"835 851 CURVE SMOOTH",
"860 891 OFFCURVE",
"872 942 OFFCURVE",
"872 1004 CURVE SMOOTH",
"872 1140 OFFCURVE",
"804 1214 OFFCURVE",
"677 1214 CURVE SMOOTH",
"644 1214 OFFCURVE",
"587 1210 OFFCURVE",
"551 1202 CURVE"
);
},
{
closed = 1;
nodes = (
"404 110 LINE",
"448 99 OFFCURVE",
"519 90 OFFCURVE",
"556 90 CURVE SMOOTH",
"741 90 OFFCURVE",
"834 182 OFFCURVE",
"834 378 CURVE SMOOTH",
"834 487 OFFCURVE",
"803 557 OFFCURVE",
"729 592 CURVE SMOOTH",
"692 609 OFFCURVE",
"642 618 OFFCURVE",
"580 618 CURVE SMOOTH",
"531 618 OFFCURVE",
"495 617 OFFCURVE",
"472 614 CURVE"
);
}
);
width = 1208;
}
);
note = B;
unicode = 0042;
},
{
glyphname = C;
layers = (
{
layerId = "91C2604D-2087-4E0F-8837-A2CE9AC82E20";
name = "Bold Italic";
paths = (
{
closed = 1;
nodes = (
"953 1325 OFFCURVE",
"1017 1314 OFFCURVE",
"1090 1293 CURVE SMOOTH",
"1107 1288 OFFCURVE",
"1119 1285 OFFCURVE",
"1125 1284 CURVE",
"1153 1276 LINE",
"1101 932 LINE",
"883 932 LINE",
"849 1199 LINE",
"822 1209 OFFCURVE",
"795 1214 OFFCURVE",
"767 1214 CURVE SMOOTH",
"600 1214 OFFCURVE",
"485 1077 OFFCURVE",
"430 886 CURVE SMOOTH",
"402 791 OFFCURVE",
"388 693 OFFCURVE",
"388 593 CURVE SMOOTH",
"388 565 LINE SMOOTH",
"396 269 OFFCURVE",
"468 125 OFFCURVE",
"629 125 CURVE SMOOTH",
"694 125 OFFCURVE",
"759 133 OFFCURVE",
"815 188 CURVE",
"843 220 OFFCURVE",
"860 271 OFFCURVE",
"884 360 CURVE",
"1057 361 LINE",
"1020 117 LINE",
"928 42 OFFCURVE",
"809 -14 OFFCURVE",
"582 -14 CURVE SMOOTH",
"334 -14 OFFCURVE",
"177 95 OFFCURVE",
"106 263 CURVE SMOOTH",
"70 347 OFFCURVE",
"52 442 OFFCURVE",
"52 548 CURVE SMOOTH",
"52 871 OFFCURVE",
"182 1109 OFFCURVE",
"413 1233 CURVE SMOOTH",
"528 1294 OFFCURVE",
"663 1325 OFFCURVE",
"816 1325 CURVE SMOOTH"
);
}
);
width = 1118;
}
);
note = C;
unicode = 0043;
},
{
glyphname = Cacute;
layers = (
{
layerId = "91C2604D-2087-4E0F-8837-A2CE9AC82E20";
name = "Bold Italic";
paths = (
{
closed = 1;
nodes = (
"953 1325 OFFCURVE",
"1017 1314 OFFCURVE",
"1090 1293 CURVE SMOOTH",
"1107 1288 OFFCURVE",
"1119 1285 OFFCURVE",
"1125 1284 CURVE",
"1153 1276 LINE",
"1101 932 LINE",
"883 932 LINE",
"849 1199 LINE",
"822 1209 OFFCURVE",
"795 1214 OFFCURVE",
"767 1214 CURVE SMOOTH",
"600 1214 OFFCURVE",
"485 1077 OFFCURVE",
"430 886 CURVE SMOOTH",
"402 791 OFFCURVE",
"388 693 OFFCURVE",
"388 593 CURVE SMOOTH",
"388 565 LINE SMOOTH",
"396 269 OFFCURVE",
"468 125 OFFCURVE",
"629 125 CURVE SMOOTH",
"694 125 OFFCURVE",
"759 133 OFFCURVE",
"815 188 CURVE",
"843 220 OFFCURVE",
"860 271 OFFCURVE",
"884 360 CURVE",
"1057 361 LINE",
"1020 117 LINE",
"928 42 OFFCURVE",
"809 -14 OFFCURVE",
"582 -14 CURVE SMOOTH",
"334 -14 OFFCURVE",
"177 95 OFFCURVE",
"106 263 CURVE SMOOTH",
"70 347 OFFCURVE",
"52 442 OFFCURVE",
"52 548 CURVE SMOOTH",
"52 871 OFFCURVE",
"182 1109 OFFCURVE",
"413 1233 CURVE SMOOTH",
"528 1294 OFFCURVE",
"663 1325 OFFCURVE",
"816 1325 CURVE SMOOTH"
);
},
{
closed = 1;
nodes = (
"953 1732 LINE",
"1114 1573 LINE",
"1086 1520 OFFCURVE",
"1006 1453 OFFCURVE",
"923 1404 CURVE SMOOTH",
"881 1379 OFFCURVE",
"845 1361 OFFCURVE",
"816 1350 CURVE",
"716 1438 LINE"
);
}
);
width = 1118;
}
);
note = Cacute;
unicode = 0106;
},
{
glyphname = Ccaron;
layers = (
{
layerId = "91C2604D-2087-4E0F-8837-A2CE9AC82E20";
name = "Bold Italic";
paths = (
{
closed = 1;
nodes = (
"953 1325 OFFCURVE",
"1017 1314 OFFCURVE",
"1090 1293 CURVE SMOOTH",
"1107 1288 OFFCURVE",
"1119 1285 OFFCURVE",
"1125 1284 CURVE",
"1153 1276 LINE",
"1101 932 LINE",
"883 932 LINE",
"849 1199 LINE",
"822 1209 OFFCURVE",
"795 1214 OFFCURVE",
"767 1214 CURVE SMOOTH",
"600 1214 OFFCURVE",
"485 1077 OFFCURVE",
"430 886 CURVE SMOOTH",
"402 791 OFFCURVE",
"388 693 OFFCURVE",
"388 593 CURVE SMOOTH",
"388 565 LINE SMOOTH",
"396 269 OFFCURVE",
"468 125 OFFCURVE",
"629 125 CURVE SMOOTH",
"694 125 OFFCURVE",
"759 133 OFFCURVE",
"815 188 CURVE",
"843 220 OFFCURVE",
"860 271 OFFCURVE",
"884 360 CURVE",
"1057 361 LINE",
"1020 117 LINE",
"928 42 OFFCURVE",
"809 -14 OFFCURVE",
"582 -14 CURVE SMOOTH",
"334 -14 OFFCURVE",
"177 95 OFFCURVE",
"106 263 CURVE SMOOTH",
"70 347 OFFCURVE",
"52 442 OFFCURVE",
"52 548 CURVE SMOOTH",
"52 871 OFFCURVE",
"182 1109 OFFCURVE",
"413 1233 CURVE SMOOTH",
"528 1294 OFFCURVE",
"663 1325 OFFCURVE",
"816 1325 CURVE SMOOTH"
);
},
{
closed = 1;
nodes = (
"647 1732 LINE",
"820 1584 LINE",
"1097 1732 LINE",
"1189 1683 LINE",
"873 1375 LINE",
"721 1375 LINE",
"540 1682 LINE"
);
}
);
width = 1118;
}
);
note = Ccaron;
unicode = 010C;
},
{
glyphname = Ccedilla;
layers = (
{
layerId = "91C2604D-2087-4E0F-8837-A2CE9AC82E20";
name = "Bold Italic";
paths = (
{
closed = 1;
nodes = (
"600 1214 OFFCURVE",
"485 1077 OFFCURVE",
"430 886 CURVE SMOOTH",
"402 791 OFFCURVE",
"388 693 OFFCURVE",
"388 593 CURVE SMOOTH",
"388 565 LINE SMOOTH",
"396 269 OFFCURVE",
"468 125 OFFCURVE",
"629 125 CURVE SMOOTH",
"694 125 OFFCURVE",
"759 133 OFFCURVE",
"815 188 CURVE",
"843 220 OFFCURVE",
"860 271 OFFCURVE",
"884 360 CURVE",
"1057 361 LINE",
"1020 117 LINE",
"949 58 OFFCURVE",
"858 10 OFFCURVE",
"705 -7 CURVE",
"722 -59 OFFCURVE",
"736 -143 OFFCURVE",
"736 -203 CURVE SMOOTH",
"736 -338 OFFCURVE",
"660 -415 OFFCURVE",
"480 -415 CURVE SMOOTH",
"427 -415 OFFCURVE",
"326 -403 OFFCURVE",
"310 -390 CURVE",
"340 -259 LINE",
"355 -267 OFFCURVE",
"380 -273 OFFCURVE",
"407 -273 CURVE SMOOTH",
"502 -273 OFFCURVE",
"560 -234 OFFCURVE",
"564 -131 CURVE",
"565 -124 OFFCURVE",
"565 -115 OFFCURVE",
"565 -103 CURVE SMOOTH",
"565 -76 OFFCURVE",
"563 -46 OFFCURVE",
"558 -14 CURVE",
"322 -7 OFFCURVE",
"171 103 OFFCURVE",
"103 268 CURVE SMOOTH",
"69 351 OFFCURVE",
"52 444 OFFCURVE",
"52 548 CURVE SMOOTH",
"52 871 OFFCURVE",
"182 1109 OFFCURVE",
"413 1233 CURVE SMOOTH",
"528 1294 OFFCURVE",
"663 1325 OFFCURVE",
"816 1325 CURVE SMOOTH",
"953 1325 OFFCURVE",
"1017 1314 OFFCURVE",
"1090 1293 CURVE SMOOTH",
"1107 1288 OFFCURVE",
"1119 1285 OFFCURVE",
"1125 1284 CURVE",
"1153 1276 LINE",
"1101 932 LINE",
"883 932 LINE",
"849 1199 LINE",
"822 1209 OFFCURVE",
"795 1214 OFFCURVE",
"767 1214 CURVE SMOOTH"
);
}
);
width = 1118;
}
);
note = Ccedilla;
unicode = 00C7;
},
{
glyphname = Ccircumflex;
layers = (
{
layerId = "91C2604D-2087-4E0F-8837-A2CE9AC82E20";
name = "Bold Italic";
paths = (
{
closed = 1;
nodes = (
"953 1325 OFFCURVE",
"1017 1314 OFFCURVE",
"1090 1293 CURVE SMOOTH",
"1107 1288 OFFCURVE",
"1119 1285 OFFCURVE",
"1125 1284 CURVE",
"1153 1276 LINE",
"1101 932 LINE",
"883 932 LINE",
"849 1199 LINE",
"822 1209 OFFCURVE",
"795 1214 OFFCURVE",
"767 1214 CURVE SMOOTH",
"600 1214 OFFCURVE",
"485 1077 OFFCURVE",
"430 886 CURVE SMOOTH",
"402 791 OFFCURVE",
"388 693 OFFCURVE",
"388 593 CURVE SMOOTH",
"388 565 LINE SMOOTH",
"396 269 OFFCURVE",
"468 125 OFFCURVE",
"629 125 CURVE SMOOTH",
"694 125 OFFCURVE",
"759 133 OFFCURVE",
"815 188 CURVE",
"843 220 OFFCURVE",
"860 271 OFFCURVE",
"884 360 CURVE",
"1057 361 LINE",
"1020 117 LINE",
"928 42 OFFCURVE",
"809 -14 OFFCURVE",
"582 -14 CURVE SMOOTH",
"334 -14 OFFCURVE",
"177 95 OFFCURVE",
"106 263 CURVE SMOOTH",
"70 347 OFFCURVE",
"52 442 OFFCURVE",
"52 548 CURVE SMOOTH",
"52 871 OFFCURVE",
"182 1109 OFFCURVE",
"413 1233 CURVE SMOOTH",
"528 1294 OFFCURVE",
"663 1325 OFFCURVE",
"816 1325 CURVE SMOOTH"
);
},
{
closed = 1;
nodes = (
"802 1732 LINE",
"955 1732 LINE",
"1136 1425 LINE",
"1029 1375 LINE",
"857 1553 LINE",
"579 1376 LINE",
"487 1425 LINE"
);
}
);
width = 1118;
}
);
note = Ccircumflex;
unicode = 0108;
},
{
glyphname = Cdotaccent;
layers = (
{
layerId = "91C2604D-2087-4E0F-8837-A2CE9AC82E20";
name = "Bold Italic";
paths = (
{
closed = 1;
nodes = (
"647 1591 OFFCURVE",
"679 1646 OFFCURVE",
"733 1676 CURVE SMOOTH",
"760 1691 OFFCURVE",
"791 1698 OFFCURVE",
"826 1698 CURVE SMOOTH",
"885 1698 OFFCURVE",
"933 1671 OFFCURVE",
"961 1629 CURVE SMOOTH",
"974 1608 OFFCURVE",
"981 1586 OFFCURVE",
"981 1563 CURVE SMOOTH",
"981 1496 OFFCURVE",
"952 1441 OFFCURVE",
"896 1410 CURVE SMOOTH",
"868 1394 OFFCURVE",
"834 1386 OFFCURVE",
"795 1386 CURVE SMOOTH",
"746 1386 OFFCURVE",
"696 1417 OFFCURVE",
"668 1461 CURVE SMOOTH",
"654 1482 OFFCURVE",
"647 1504 OFFCURVE",
"647 1527 CURVE SMOOTH"
);
},
{
closed = 1;
nodes = (
"953 1325 OFFCURVE",
"1017 1314 OFFCURVE",
"1090 1293 CURVE SMOOTH",
"1107 1288 OFFCURVE",
"1119 1285 OFFCURVE",
"1125 1284 CURVE",
"1153 1276 LINE",
"1101 932 LINE",
"883 932 LINE",
"849 1199 LINE",
"822 1209 OFFCURVE",
"795 1214 OFFCURVE",
"767 1214 CURVE SMOOTH",
"600 1214 OFFCURVE",
"485 1077 OFFCURVE",
"430 886 CURVE SMOOTH",
"402 791 OFFCURVE",
"388 693 OFFCURVE",
"388 593 CURVE SMOOTH",
"388 565 LINE SMOOTH",
"396 269 OFFCURVE",
"468 125 OFFCURVE",
"629 125 CURVE SMOOTH",
"694 125 OFFCURVE",
"759 133 OFFCURVE",
"815 188 CURVE",
"843 220 OFFCURVE",
"860 271 OFFCURVE",
"884 360 CURVE",
"1057 361 LINE",
"1020 117 LINE",
"928 42 OFFCURVE",
"809 -14 OFFCURVE",
"582 -14 CURVE SMOOTH",
"334 -14 OFFCURVE",
"177 95 OFFCURVE",
"106 263 CURVE SMOOTH",
"70 347 OFFCURVE",
"52 442 OFFCURVE",
"52 548 CURVE SMOOTH",
"52 871 OFFCURVE",
"182 1109 OFFCURVE",
"413 1233 CURVE SMOOTH",
"528 1294 OFFCURVE",
"663 1325 OFFCURVE",
"816 1325 CURVE SMOOTH"
);
}
);
width = 1118;
}
);
note = Cdotaccent;
unicode = 010A;
},
{
glyphname = D;
layers = (
{
layerId = "91C2604D-2087-4E0F-8837-A2CE9AC82E20";
name = "Bold Italic";
paths = (
{
closed = 1;
nodes = (
"116 117 LINE",
"261 1192 LINE",
"137 1214 LINE",
"146 1309 LINE",
"419 1309 LINE SMOOTH",
"450 1309 OFFCURVE",
"499 1311 OFFCURVE",
"566 1316 CURVE SMOOTH",
"639 1321 OFFCURVE",
"694 1323 OFFCURVE",
"730 1323 CURVE SMOOTH",
"1121 1323 OFFCURVE",
"1287 1116 OFFCURVE",
"1287 792 CURVE SMOOTH",
"1287 467 OFFCURVE",
"1184 221 OFFCURVE",
"955 87 CURVE SMOOTH",
"840 20 OFFCURVE",
"694 -14 OFFCURVE",
"517 -14 CURVE SMOOTH",
"499 -14 OFFCURVE",
"477 -12 OFFCURVE",
"452 -8 CURVE",
"407 -4 OFFCURVE",
"351 -1 OFFCURVE",
"286 0 CURVE SMOOTH",
"-30 0 LINE",
"-20 91 LINE"
);
},
{
closed = 1;
nodes = (
"418 117 LINE",
"453 105 OFFCURVE",
"502 95 OFFCURVE",
"535 95 CURVE SMOOTH",
"734 95 OFFCURVE",
"862 246 OFFCURVE",
"920 449 CURVE SMOOTH",
"949 550 OFFCURVE",
"963 655 OFFCURVE",
"963 762 CURVE SMOOTH",
"963 979 OFFCURVE",
"925 1108 OFFCURVE",
"848 1169 CURVE SMOOTH",
"809 1199 OFFCURVE",
"759 1214 OFFCURVE",
"697 1214 CURVE SMOOTH",
"634 1214 OFFCURVE",
"580 1204 OFFCURVE",
"561 1192 CURVE"
);
}
);
width = 1296;
}
);
note = D;
unicode = 0044;
},
{
glyphname = Eth;
layers = (
{
layerId = "91C2604D-2087-4E0F-8837-A2CE9AC82E20";
name = "Bold Italic";
paths = (
{
closed = 1;
nodes = (
"201 750 LINE",
"261 1194 LINE",
"137 1216 LINE",
"146 1311 LINE",
"404 1311 LINE SMOOTH",
"437 1311 OFFCURVE",
"489 1313 OFFCURVE",
"562 1318 CURVE SMOOTH",
"637 1322 OFFCURVE",
"693 1324 OFFCURVE",
"730 1324 CURVE SMOOTH",
"1121 1324 OFFCURVE",
"1287 1118 OFFCURVE",
"1287 794 CURVE SMOOTH",
"1287 469 OFFCURVE",
"1184 223 OFFCURVE",
"955 89 CURVE SMOOTH",
"840 22 OFFCURVE",
"694 -12 OFFCURVE",
"517 -12 CURVE SMOOTH",
"499 -12 OFFCURVE",
"477 -10 OFFCURVE",
"452 -6 CURVE",
"400 -2 OFFCURVE",
"317 2 OFFCURVE",
"265 2 CURVE SMOOTH",
"-30 2 LINE",
"-20 93 LINE",
"116 119 LINE",
"181 604 LINE",
"64 604 LINE",
"86 750 LINE"
);
},
{
closed = 1;
nodes = (
"418 119 LINE",
"453 106 OFFCURVE",
"502 97 OFFCURVE",
"535 97 CURVE SMOOTH",
"734 97 OFFCURVE",
"862 247 OFFCURVE",
"920 451 CURVE SMOOTH",
"949 552 OFFCURVE",
"963 657 OFFCURVE",
"963 764 CURVE SMOOTH",
"963 981 OFFCURVE",
"925 1110 OFFCURVE",
"848 1171 CURVE SMOOTH",
"809 1201 OFFCURVE",
"759 1216 OFFCURVE",
"697 1216 CURVE SMOOTH",
"634 1216 OFFCURVE",
"580 1205 OFFCURVE",
"561 1194 CURVE",
"501 750 LINE",
"756 750 LINE",
"734 604 LINE",
"482 604 LINE"
);
}
);
width = 1295;
}
);
note = Eth;
unicode = 00D0;
},
{
glyphname = Dcaron;
layers = (
{
layerId = "91C2604D-2087-4E0F-8837-A2CE9AC82E20";
name = "Bold Italic";
paths = (
{
closed = 1;
nodes = (
"622 1732 LINE",
"795 1584 LINE",
"1072 1732 LINE",
"1164 1683 LINE",
"848 1375 LINE",
"696 1375 LINE",
"515 1682 LINE"
);
},
{
closed = 1;
nodes = (
"116 117 LINE",
"261 1192 LINE",
"137 1214 LINE",
"146 1309 LINE",
"419 1309 LINE SMOOTH",
"450 1309 OFFCURVE",
"499 1311 OFFCURVE",
"566 1316 CURVE SMOOTH",
"639 1321 OFFCURVE",
"694 1323 OFFCURVE",
"730 1323 CURVE SMOOTH",
"1121 1323 OFFCURVE",
"1287 1116 OFFCURVE",
"1287 792 CURVE SMOOTH",
"1287 467 OFFCURVE",
"1184 221 OFFCURVE",
"955 87 CURVE SMOOTH",
"840 20 OFFCURVE",
"694 -14 OFFCURVE",
"517 -14 CURVE SMOOTH",
"499 -14 OFFCURVE",
"477 -12 OFFCURVE",
"452 -8 CURVE",
"407 -4 OFFCURVE",
"351 -1 OFFCURVE",
"286 0 CURVE SMOOTH",
"-30 0 LINE",
"-20 91 LINE"
);
},
{
closed = 1;
nodes = (
"418 117 LINE",
"453 105 OFFCURVE",
"502 95 OFFCURVE",
"535 95 CURVE SMOOTH",
"734 95 OFFCURVE",
"862 246 OFFCURVE",
"920 449 CURVE SMOOTH",
"949 550 OFFCURVE",
"963 655 OFFCURVE",
"963 762 CURVE SMOOTH",
"963 979 OFFCURVE",
"925 1108 OFFCURVE",
"848 1169 CURVE SMOOTH",
"809 1199 OFFCURVE",
"759 1214 OFFCURVE",
"697 1214 CURVE SMOOTH",
"634 1214 OFFCURVE",
"580 1204 OFFCURVE",
"561 1192 CURVE"
);
}
);
width = 1302;
}
);
note = Dcaron;
unicode = 010E;
},
{
glyphname = Dcroat;
layers = (
{
layerId = "91C2604D-2087-4E0F-8837-A2CE9AC82E20";
name = "Bold Italic";
paths = (
{
closed = 1;
nodes = (
"201 750 LINE",
"261 1194 LINE",
"137 1216 LINE",
"146 1311 LINE",
"404 1311 LINE SMOOTH",
"437 1311 OFFCURVE",
"489 1313 OFFCURVE",
"562 1318 CURVE SMOOTH",
"637 1322 OFFCURVE",
"693 1324 OFFCURVE",
"730 1324 CURVE SMOOTH",
"1121 1324 OFFCURVE",
"1287 1118 OFFCURVE",
"1287 794 CURVE SMOOTH",
"1287 469 OFFCURVE",
"1184 223 OFFCURVE",
"955 89 CURVE SMOOTH",
"840 22 OFFCURVE",
"694 -12 OFFCURVE",
"517 -12 CURVE SMOOTH",
"499 -12 OFFCURVE",
"477 -10 OFFCURVE",
"452 -6 CURVE",
"400 -2 OFFCURVE",
"317 2 OFFCURVE",
"265 2 CURVE SMOOTH",
"-30 2 LINE",
"-20 93 LINE",
"116 119 LINE",
"181 604 LINE",
"64 604 LINE",
"86 750 LINE"
);
},
{
closed = 1;
nodes = (
"418 119 LINE",
"453 106 OFFCURVE",
"502 97 OFFCURVE",
"535 97 CURVE SMOOTH",
"734 97 OFFCURVE",
"862 247 OFFCURVE",
"920 451 CURVE SMOOTH",
"949 552 OFFCURVE",
"963 657 OFFCURVE",
"963 764 CURVE SMOOTH",
"963 981 OFFCURVE",
"925 1110 OFFCURVE",
"848 1171 CURVE SMOOTH",
"809 1201 OFFCURVE",
"759 1216 OFFCURVE",
"697 1216 CURVE SMOOTH",
"634 1216 OFFCURVE",
"580 1205 OFFCURVE",
"561 1194 CURVE",
"501 750 LINE",
"756 750 LINE",
"734 604 LINE",
"482 604 LINE"
);
}
);
width = 1303;
}
);
note = Dcroat;
unicode = 0110;
},
{
glyphname = E;
layers = (
{
layerId = "91C2604D-2087-4E0F-8837-A2CE9AC82E20";
name = "Bold Italic";
paths = (
{
closed = 1;
nodes = (
"118 117 LINE",
"259 1192 LINE",
"134 1214 LINE",
"144 1309 LINE",
"1105 1309 LINE",
"1074 991 LINE",
"883 991 LINE",
"854 1183 LINE",
"562 1206 LINE",
"500 746 LINE",
"894 786 LINE",
"863 587 LINE",
"483 612 LINE",
"416 117 LINE",
"814 147 LINE",
"915 402 LINE",
"1098 390 LINE",
"1038 0 LINE",
"-32 0 LINE",
"-20 91 LINE"
);
}
);
width = 1122;
}
);
note = E;
unicode = 0045;
},
{
glyphname = Eacute;
layers = (
{
layerId = "91C2604D-2087-4E0F-8837-A2CE9AC82E20";
name = "Bold Italic";
paths = (
{
closed = 1;
nodes = (
"865 1732 LINE",
"1026 1573 LINE",
"998 1520 OFFCURVE",
"918 1453 OFFCURVE",
"835 1404 CURVE SMOOTH",
"793 1379 OFFCURVE",
"757 1361 OFFCURVE",
"728 1350 CURVE",
"628 1438 LINE"
);
},
{
closed = 1;
nodes = (
"118 117 LINE",
"259 1192 LINE",
"134 1214 LINE",
"144 1309 LINE",
"1105 1309 LINE",
"1074 991 LINE",
"883 991 LINE",
"854 1183 LINE",
"562 1206 LINE",
"500 746 LINE",
"894 786 LINE",
"863 587 LINE",
"483 612 LINE",
"416 117 LINE",
"814 147 LINE",
"915 402 LINE",
"1098 390 LINE",
"1038 0 LINE",
"-32 0 LINE",
"-20 91 LINE"
);
}
);
width = 1122;
}
);
note = Eacute;
unicode = 00C9;
},
{
glyphname = Ebreve;
layers = (
{
layerId = "91C2604D-2087-4E0F-8837-A2CE9AC82E20";
name = "Bold Italic";
paths = (
{
closed = 1;
nodes = (
"449 1694 OFFCURVE",
"451 1713 OFFCURVE",
"454 1732 CURVE",
"613 1732 LINE",
"613 1664 OFFCURVE",
"616 1632 OFFCURVE",
"648 1609 CURVE SMOOTH",
"664 1597 OFFCURVE",
"689 1591 OFFCURVE",
"723 1591 CURVE SMOOTH",
"817 1591 OFFCURVE",
"864 1638 OFFCURVE",
"864 1732 CURVE",
"1019 1732 LINE",
"1019 1603 OFFCURVE",
"970 1500 OFFCURVE",
"880 1445 CURVE SMOOTH",
"835 1418 OFFCURVE",
"781 1404 OFFCURVE",
"719 1404 CURVE SMOOTH",
"507 1404 OFFCURVE",
"449 1525 OFFCURVE",
"449 1674 CURVE SMOOTH"
);
},
{
closed = 1;
nodes = (
"118 117 LINE",
"259 1192 LINE",
"134 1214 LINE",
"144 1309 LINE",
"1105 1309 LINE",
"1074 991 LINE",
"883 991 LINE",
"854 1183 LINE",
"562 1206 LINE",
"500 746 LINE",
"894 786 LINE",
"863 587 LINE",
"483 612 LINE",
"416 117 LINE",
"814 147 LINE",
"915 402 LINE",
"1098 390 LINE",
"1038 0 LINE",
"-32 0 LINE",
"-20 91 LINE"
);
}
);
width = 1122;
}
);
note = Ebreve;
unicode = 0114;
},
{
glyphname = Ecaron;
layers = (
{
layerId = "91C2604D-2087-4E0F-8837-A2CE9AC82E20";
name = "Bold Italic";
paths = (
{
closed = 1;
nodes = (
"558 1732 LINE",
"731 1584 LINE",
"1008 1732 LINE",
"1100 1683 LINE",
"784 1375 LINE",
"632 1375 LINE",
"451 1682 LINE"
);
},
{
closed = 1;
nodes = (
"118 117 LINE",
"259 1192 LINE",
"134 1214 LINE",
"144 1309 LINE",
"1105 1309 LINE",
"1074 991 LINE",
"883 991 LINE",
"854 1183 LINE",
"562 1206 LINE",
"500 746 LINE",
"894 786 LINE",
"863 587 LINE",
"483 612 LINE",
"416 117 LINE",
"814 147 LINE",
"915 402 LINE",
"1098 390 LINE",
"1038 0 LINE",
"-32 0 LINE",
"-20 91 LINE"
);
}
);
width = 1122;
}
);
note = Ecaron;
unicode = 011A;
},
{
glyphname = Ecircumflex;
layers = (
{
layerId = "91C2604D-2087-4E0F-8837-A2CE9AC82E20";
name = "Bold Italic";
paths = (
{
closed = 1;
nodes = (
"118 117 LINE",
"259 1192 LINE",
"134 1214 LINE",
"144 1309 LINE",
"1105 1309 LINE",
"1074 991 LINE",
"883 991 LINE",
"854 1183 LINE",
"562 1206 LINE",
"500 746 LINE",
"894 786 LINE",
"863 587 LINE",
"483 612 LINE",
"416 117 LINE",
"814 147 LINE",
"915 402 LINE",
"1098 390 LINE",
"1038 0 LINE",
"-32 0 LINE",
"-20 91 LINE"
);
},
{
closed = 1;
nodes = (
"713 1732 LINE",
"866 1732 LINE",
"1047 1425 LINE",
"940 1375 LINE",
"768 1553 LINE",
"490 1376 LINE",
"398 1425 LINE"
);
}
);
width = 1122;
}
);
note = Ecircumflex;
unicode = 00CA;
},
{
glyphname = Edieresis;
layers = (
{
layerId = "91C2604D-2087-4E0F-8837-A2CE9AC82E20";
name = "Bold Italic";
paths = (
{
closed = 1;
nodes = (
"398 1647 OFFCURVE",
"454 1706 OFFCURVE",
"543 1706 CURVE SMOOTH",
"620 1706 OFFCURVE",
"665 1658 OFFCURVE",
"665 1589 CURVE SMOOTH",
"665 1489 OFFCURVE",
"614 1428 OFFCURVE",
"514 1428 CURVE SMOOTH",
"446 1428 OFFCURVE",
"398 1482 OFFCURVE",
"398 1551 CURVE SMOOTH"
);
},
{
closed = 1;
nodes = (
"787 1647 OFFCURVE",
"843 1706 OFFCURVE",
"931 1706 CURVE SMOOTH",
"1010 1706 OFFCURVE",
"1053 1658 OFFCURVE",
"1053 1589 CURVE SMOOTH",
"1053 1489 OFFCURVE",
"1003 1428 OFFCURVE",
"903 1428 CURVE SMOOTH",
"835 1428 OFFCURVE",
"787 1482 OFFCURVE",
"787 1551 CURVE SMOOTH"
);
},
{
closed = 1;
nodes = (
"118 117 LINE",
"259 1192 LINE",
"134 1214 LINE",
"144 1309 LINE",
"1105 1309 LINE",
"1074 991 LINE",
"883 991 LINE",
"854 1183 LINE",
"562 1206 LINE",
"500 746 LINE",
"894 786 LINE",
"863 587 LINE",
"483 612 LINE",
"416 117 LINE",
"814 147 LINE",
"915 402 LINE",
"1098 390 LINE",
"1038 0 LINE",
"-32 0 LINE",
"-20 91 LINE"
);
}
);
width = 1122;
}
);
note = Edieresis;
unicode = 00CB;
},
{
glyphname = Edotaccent;
layers = (
{
layerId = "91C2604D-2087-4E0F-8837-A2CE9AC82E20";
name = "Bold Italic";
paths = (
{
closed = 1;
nodes = (
"558 1591 OFFCURVE",
"590 1646 OFFCURVE",
"644 1676 CURVE SMOOTH",
"671 1691 OFFCURVE",
"702 1698 OFFCURVE",
"737 1698 CURVE SMOOTH",
"796 1698 OFFCURVE",
"844 1671 OFFCURVE",
"872 1629 CURVE SMOOTH",
"885 1608 OFFCURVE",
"892 1586 OFFCURVE",
"892 1563 CURVE SMOOTH",
"892 1496 OFFCURVE",
"863 1441 OFFCURVE",
"807 1410 CURVE SMOOTH",
"779 1394 OFFCURVE",
"745 1386 OFFCURVE",
"706 1386 CURVE SMOOTH",
"657 1386 OFFCURVE",
"607 1417 OFFCURVE",
"579 1461 CURVE SMOOTH",
"565 1482 OFFCURVE",
"558 1504 OFFCURVE",
"558 1527 CURVE SMOOTH"
);
},
{
closed = 1;
nodes = (
"118 117 LINE",
"259 1192 LINE",
"134 1214 LINE",
"144 1309 LINE",
"1105 1309 LINE",
"1074 991 LINE",
"883 991 LINE",
"854 1183 LINE",
"562 1206 LINE",
"500 746 LINE",
"894 786 LINE",
"863 587 LINE",
"483 612 LINE",
"416 117 LINE",
"814 147 LINE",
"915 402 LINE",
"1098 390 LINE",
"1038 0 LINE",
"-32 0 LINE",
"-20 91 LINE"
);
}
);
width = 1122;
}
);
note = Edotaccent;
unicode = 0116;
},
{
glyphname = Egrave;
layers = (
{
layerId = "91C2604D-2087-4E0F-8837-A2CE9AC82E20";
name = "Bold Italic";
paths = (
{
closed = 1;
nodes = (
"582 1732 LINE",
"819 1438 LINE",
"719 1350 LINE",
"660 1373 OFFCURVE",
"571 1425 OFFCURVE",
"499 1485 CURVE SMOOTH",
"463 1515 OFFCURVE",
"437 1544 OFFCURVE",
"421 1573 CURVE"
);
},
{
closed = 1;
nodes = (
"118 117 LINE",
"259 1192 LINE",
"134 1214 LINE",
"144 1309 LINE",
"1105 1309 LINE",
"1074 991 LINE",
"883 991 LINE",
"854 1183 LINE",
"562 1206 LINE",
"500 746 LINE",
"894 786 LINE",
"863 587 LINE",
"483 612 LINE",
"416 117 LINE",
"814 147 LINE",
"915 402 LINE",
"1098 390 LINE",
"1038 0 LINE",
"-32 0 LINE",
"-20 91 LINE"
);
}
);
width = 1122;
}
);
note = Egrave;
unicode = 00C8;
},
{
glyphname = Emacron;
layers = (
{
layerId = "91C2604D-2087-4E0F-8837-A2CE9AC82E20";
name = "Bold Italic";
paths = (
{
closed = 1;
nodes = (
"980 1648 LINE",
"962 1468 LINE",
"471 1468 LINE",
"488 1648 LINE"
);
},
{
closed = 1;
nodes = (
"118 117 LINE",
"259 1192 LINE",
"134 1214 LINE",
"144 1309 LINE",
"1105 1309 LINE",
"1074 991 LINE",
"883 991 LINE",
"854 1183 LINE",
"562 1206 LINE",
"500 746 LINE",
"894 786 LINE",
"863 587 LINE",
"483 612 LINE",
"416 117 LINE",
"814 147 LINE",
"915 402 LINE",
"1098 390 LINE",
"1038 0 LINE",
"-32 0 LINE",
"-20 91 LINE"
);
}
);
width = 1122;
}
);
note = Emacron;
unicode = 0112;
},
{
glyphname = Eogonek;
layers = (
{
layerId = "91C2604D-2087-4E0F-8837-A2CE9AC82E20";
name = "Bold Italic";
paths = (
{
closed = 1;
nodes = (
"118 117 LINE",
"259 1192 LINE",
"134 1214 LINE",
"144 1309 LINE",
"1105 1309 LINE",
"1074 991 LINE",
"883 991 LINE",
"854 1183 LINE",
"562 1206 LINE",
"500 746 LINE",
"894 786 LINE",
"863 587 LINE",
"483 612 LINE",
"416 117 LINE",
"814 147 LINE",
"915 402 LINE",
"1098 390 LINE",
"1038 0 LINE",
"962 0 LINE",
"851 -75 OFFCURVE",
"796 -137 OFFCURVE",
"796 -185 CURVE SMOOTH",
"796 -230 OFFCURVE",
"817 -247 OFFCURVE",
"853 -247 CURVE SMOOTH",
"896 -247 OFFCURVE",
"928 -229 OFFCURVE",
"985 -182 CURVE",
"1016 -280 LINE",
"939 -360 OFFCURVE",
"837 -413 OFFCURVE",
"720 -413 CURVE SMOOTH",
"611 -413 OFFCURVE",
"554 -356 OFFCURVE",
"554 -263 CURVE SMOOTH",
"554 -235 OFFCURVE",
"570 -189 OFFCURVE",
"593 -157 CURVE",
"646 -77 OFFCURVE",
"705 -36 OFFCURVE",
"774 0 CURVE",
"-32 0 LINE",
"-20 91 LINE"
);
}
);
width = 1139;
}
);
note = Eogonek;
unicode = 0118;
},
{
glyphname = F;
layers = (
{
layerId = "91C2604D-2087-4E0F-8837-A2CE9AC82E20";
name = "Bold Italic";
paths = (
{
closed = 1;
nodes = (
"118 117 LINE",
"259 1192 LINE",
"134 1214 LINE",
"146 1309 LINE",
"1121 1309 LINE",
"1085 980 LINE",
"895 980 LINE",
"869 1183 LINE",
"564 1204 LINE",
"500 739 LINE",
"913 762 LINE",
"887 569 LINE",
"482 603 LINE",
"421 117 LINE",
"659 91 LINE",
"652 0 LINE",
"-10 0 LINE",
"-1 91 LINE"
);
}
);
width = 1052;
}
);
note = F;
unicode = 0046;
},
{
glyphname = G;
layers = (
{
layerId = "91C2604D-2087-4E0F-8837-A2CE9AC82E20";
name = "Bold Italic";
paths = (
{
closed = 1;
nodes = (
"933 1325 OFFCURVE",
"1013 1309 OFFCURVE",
"1109 1284 CURVE SMOOTH",
"1129 1279 OFFCURVE",
"1141 1276 OFFCURVE",
"1146 1275 CURVE SMOOTH",
"1200 1265 LINE",
"1144 979 LINE",
"937 979 LINE",
"928 1177 LINE",
"883 1202 OFFCURVE",
"832 1214 OFFCURVE",
"777 1214 CURVE SMOOTH",
"481 1214 OFFCURVE",
"372 961 OFFCURVE",
"372 566 CURVE SMOOTH",
"372 393 OFFCURVE",
"406 253 OFFCURVE",
"475 175 CURVE SMOOTH",
"510 136 OFFCURVE",
"553 116 OFFCURVE",
"605 116 CURVE SMOOTH",
"689 116 OFFCURVE",
"747 123 OFFCURVE",
"796 140 CURVE",
"841 507 LINE",
"667 522 LINE",
"684 648 LINE",
"1162 648 LINE",
"1085 72 LINE",
"1042 68 OFFCURVE",
"969 56 OFFCURVE",
"922 44 CURVE SMOOTH",
"901 39 LINE SMOOTH",
"770 4 OFFCURVE",
"681 -14 OFFCURVE",
"548 -14 CURVE SMOOTH",
"324 -14 OFFCURVE",
"178 95 OFFCURVE",
"107 261 CURVE SMOOTH",
"36 427 OFFCURVE",
"20 718 OFFCURVE",
"128 954 CURVE SMOOTH",
"236 1190 OFFCURVE",
"458 1325 OFFCURVE",
"774 1325 CURVE SMOOTH"
);
},
{
closed = 1;
nodes = (
"1026 1086 LINE",
"1019 1097 OFFCURVE",
"1013 1105 OFFCURVE",
"1008 1110 CURVE"
);
}
);
width = 1217;
}
);
note = G;
unicode = 0047;
},
{
glyphname = Gbreve;
layers = (
{
layerId = "91C2604D-2087-4E0F-8837-A2CE9AC82E20";
name = "Bold Italic";
paths = (
{
closed = 1;
nodes = (
"518 1694 OFFCURVE",
"520 1713 OFFCURVE",
"523 1732 CURVE",
"682 1732 LINE",
"682 1664 OFFCURVE",
"685 1632 OFFCURVE",
"717 1609 CURVE SMOOTH",
"733 1597 OFFCURVE",
"758 1591 OFFCURVE",
"792 1591 CURVE SMOOTH",
"886 1591 OFFCURVE",
"933 1638 OFFCURVE",
"933 1732 CURVE",
"1088 1732 LINE",
"1088 1603 OFFCURVE",
"1039 1500 OFFCURVE",
"949 1445 CURVE SMOOTH",
"904 1418 OFFCURVE",
"850 1404 OFFCURVE",
"788 1404 CURVE SMOOTH",
"576 1404 OFFCURVE",
"518 1525 OFFCURVE",
"518 1674 CURVE SMOOTH"
);
},
{
closed = 1;
nodes = (
"933 1325 OFFCURVE",
"1013 1309 OFFCURVE",
"1109 1284 CURVE SMOOTH",
"1129 1279 OFFCURVE",
"1141 1276 OFFCURVE",
"1146 1275 CURVE SMOOTH",
"1200 1265 LINE",
"1144 979 LINE",
"937 979 LINE",
"928 1177 LINE",
"883 1202 OFFCURVE",
"832 1214 OFFCURVE",
"777 1214 CURVE SMOOTH",
"481 1214 OFFCURVE",
"372 961 OFFCURVE",
"372 566 CURVE SMOOTH",
"372 393 OFFCURVE",
"406 253 OFFCURVE",
"475 175 CURVE SMOOTH",
"510 136 OFFCURVE",
"553 116 OFFCURVE",
"605 116 CURVE SMOOTH",
"689 116 OFFCURVE",
"747 123 OFFCURVE",
"796 140 CURVE",
"841 507 LINE",
"667 522 LINE",
"684 648 LINE",
"1162 648 LINE",
"1085 72 LINE",
"1042 68 OFFCURVE",
"969 56 OFFCURVE",
"922 44 CURVE SMOOTH",
"901 39 LINE SMOOTH",
"770 4 OFFCURVE",
"681 -14 OFFCURVE",
"548 -14 CURVE SMOOTH",
"324 -14 OFFCURVE",
"178 95 OFFCURVE",
"107 261 CURVE SMOOTH",
"36 427 OFFCURVE",
"20 718 OFFCURVE",
"128 954 CURVE SMOOTH",
"236 1190 OFFCURVE",
"458 1325 OFFCURVE",
"774 1325 CURVE SMOOTH"
);
},
{
closed = 1;
nodes = (
"1026 1086 LINE",
"1019 1097 OFFCURVE",
"1013 1105 OFFCURVE",
"1008 1110 CURVE"
);
}
);
width = 1228;
}
);
note = Gbreve;
unicode = 011E;
},
{
glyphname = Gcaron;
layers = (
{
layerId = "91C2604D-2087-4E0F-8837-A2CE9AC82E20";
name = "Bold Italic";
paths = (
{
closed = 1;
nodes = (
"933 1325 OFFCURVE",
"1013 1309 OFFCURVE",
"1109 1284 CURVE SMOOTH",
"1129 1279 OFFCURVE",
"1141 1276 OFFCURVE",
"1146 1275 CURVE SMOOTH",
"1200 1265 LINE",
"1144 979 LINE",
"937 979 LINE",
"928 1177 LINE",
"883 1202 OFFCURVE",
"832 1214 OFFCURVE",
"777 1214 CURVE SMOOTH",
"481 1214 OFFCURVE",
"372 961 OFFCURVE",
"372 566 CURVE SMOOTH",
"372 393 OFFCURVE",
"406 253 OFFCURVE",
"475 175 CURVE SMOOTH",
"510 136 OFFCURVE",
"553 116 OFFCURVE",
"605 116 CURVE SMOOTH",
"689 116 OFFCURVE",
"747 123 OFFCURVE",
"796 140 CURVE",
"841 507 LINE",
"667 522 LINE",
"684 648 LINE",
"1162 648 LINE",
"1085 72 LINE",
"1042 68 OFFCURVE",
"969 56 OFFCURVE",
"922 44 CURVE SMOOTH",
"901 39 LINE SMOOTH",
"770 4 OFFCURVE",
"681 -14 OFFCURVE",
"548 -14 CURVE SMOOTH",
"324 -14 OFFCURVE",
"178 95 OFFCURVE",
"107 261 CURVE SMOOTH",
"36 427 OFFCURVE",
"20 718 OFFCURVE",
"128 954 CURVE SMOOTH",
"236 1190 OFFCURVE",
"458 1325 OFFCURVE",
"774 1325 CURVE SMOOTH"
);
},
{
closed = 1;
nodes = (
"1026 1086 LINE",
"1019 1097 OFFCURVE",
"1013 1105 OFFCURVE",
"1008 1110 CURVE"
);
},
{
closed = 1;
nodes = (
"627 1732 LINE",
"800 1584 LINE",
"1077 1732 LINE",
"1169 1683 LINE",
"853 1375 LINE",
"701 1375 LINE",
"520 1682 LINE"
);
}
);
width = 1217;
}
);
note = Gcaron;
unicode = 01E6;
},
{
glyphname = Gcircumflex;
layers = (
{
layerId = "91C2604D-2087-4E0F-8837-A2CE9AC82E20";
name = "Bold Italic";
paths = (
{
closed = 1;
nodes = (
"933 1325 OFFCURVE",
"1013 1309 OFFCURVE",
"1109 1284 CURVE SMOOTH",
"1129 1279 OFFCURVE",
"1141 1276 OFFCURVE",
"1146 1275 CURVE SMOOTH",
"1200 1265 LINE",
"1144 979 LINE",
"937 979 LINE",
"928 1177 LINE",
"883 1202 OFFCURVE",
"832 1214 OFFCURVE",
"777 1214 CURVE SMOOTH",
"481 1214 OFFCURVE",
"372 961 OFFCURVE",
"372 566 CURVE SMOOTH",
"372 393 OFFCURVE",
"406 253 OFFCURVE",
"475 175 CURVE SMOOTH",
"510 136 OFFCURVE",
"553 116 OFFCURVE",
"605 116 CURVE SMOOTH",
"689 116 OFFCURVE",
"747 123 OFFCURVE",
"796 140 CURVE",
"841 507 LINE",
"667 522 LINE",
"684 648 LINE",
"1162 648 LINE",
"1085 72 LINE",
"1042 68 OFFCURVE",
"969 56 OFFCURVE",
"922 44 CURVE SMOOTH",
"901 39 LINE SMOOTH",
"770 4 OFFCURVE",
"681 -14 OFFCURVE",
"548 -14 CURVE SMOOTH",
"324 -14 OFFCURVE",
"178 95 OFFCURVE",
"107 261 CURVE SMOOTH",
"36 427 OFFCURVE",
"20 718 OFFCURVE",
"128 954 CURVE SMOOTH",
"236 1190 OFFCURVE",
"458 1325 OFFCURVE",
"774 1325 CURVE SMOOTH"
);
},
{
closed = 1;
nodes = (
"1026 1086 LINE",
"1019 1097 OFFCURVE",
"1013 1105 OFFCURVE",
"1008 1110 CURVE"
);
},
{
closed = 1;
nodes = (
"782 1732 LINE",
"935 1732 LINE",
"1116 1425 LINE",
"1009 1375 LINE",
"837 1553 LINE",
"559 1376 LINE",
"467 1425 LINE"
);
}
);
width = 1217;
}
);
note = Gcircumflex;
unicode = 011C;
},
{
glyphname = Gcommaaccent;
layers = (
{
layerId = "91C2604D-2087-4E0F-8837-A2CE9AC82E20";
name = "Bold Italic";
paths = (
{
closed = 1;
nodes = (
"479 -399 LINE",
"507 -384 OFFCURVE",
"538 -343 OFFCURVE",
"538 -288 CURVE SMOOTH",
"538 -244 OFFCURVE",
"513 -205 OFFCURVE",
"480 -201 CURVE",
"490 -121 LINE",
"622 -32 LINE",
"674 -43 OFFCURVE",
"717 -79 OFFCURVE",
"741 -130 CURVE",
"752 -156 OFFCURVE",
"758 -184 OFFCURVE",
"758 -214 CURVE SMOOTH",
"758 -307 OFFCURVE",
"714 -388 OFFCURVE",
"654 -436 CURVE SMOOTH",
"623 -461 OFFCURVE",
"593 -476 OFFCURVE",
"563 -482 CURVE",
"477 -421 LINE"
);
},
{
closed = 1;
nodes = (
"933 1325 OFFCURVE",
"1013 1309 OFFCURVE",
"1109 1284 CURVE SMOOTH",
"1129 1279 OFFCURVE",
"1141 1276 OFFCURVE",
"1146 1275 CURVE SMOOTH",
"1200 1265 LINE",
"1144 979 LINE",
"937 979 LINE",
"928 1177 LINE",
"883 1202 OFFCURVE",
"832 1214 OFFCURVE",
"777 1214 CURVE SMOOTH",
"481 1214 OFFCURVE",
"372 961 OFFCURVE",
"372 566 CURVE SMOOTH",
"372 393 OFFCURVE",
"406 253 OFFCURVE",
"475 175 CURVE SMOOTH",
"510 136 OFFCURVE",
"553 116 OFFCURVE",
"605 116 CURVE SMOOTH",
"689 116 OFFCURVE",
"747 123 OFFCURVE",
"796 140 CURVE",
"841 507 LINE",
"667 522 LINE",
"684 648 LINE",
"1162 648 LINE",
"1085 72 LINE",
"1042 68 OFFCURVE",
"969 56 OFFCURVE",
"922 44 CURVE SMOOTH",
"901 39 LINE SMOOTH",
"770 4 OFFCURVE",
"681 -14 OFFCURVE",
"548 -14 CURVE SMOOTH",
"324 -14 OFFCURVE",
"178 95 OFFCURVE",
"107 261 CURVE SMOOTH",
"36 427 OFFCURVE",
"20 718 OFFCURVE",
"128 954 CURVE SMOOTH",
"236 1190 OFFCURVE",
"458 1325 OFFCURVE",
"774 1325 CURVE SMOOTH"
);
},
{
closed = 1;
nodes = (
"1026 1086 LINE",
"1019 1097 OFFCURVE",
"1013 1105 OFFCURVE",
"1008 1110 CURVE"
);
}
);
width = 1228;
}
);
note = Gcommaaccent;
unicode = 0122;
},
{
glyphname = Gdotaccent;
layers = (
{
layerId = "91C2604D-2087-4E0F-8837-A2CE9AC82E20";
name = "Bold Italic";
paths = (
{
closed = 1;
nodes = (
"627 1591 OFFCURVE",
"659 1646 OFFCURVE",
"713 1676 CURVE SMOOTH",
"740 1691 OFFCURVE",
"771 1698 OFFCURVE",
"806 1698 CURVE SMOOTH",
"865 1698 OFFCURVE",
"913 1671 OFFCURVE",
"941 1629 CURVE SMOOTH",
"954 1608 OFFCURVE",
"961 1586 OFFCURVE",
"961 1563 CURVE SMOOTH",
"961 1496 OFFCURVE",
"932 1441 OFFCURVE",
"876 1410 CURVE SMOOTH",
"848 1394 OFFCURVE",
"814 1386 OFFCURVE",
"775 1386 CURVE SMOOTH",
"726 1386 OFFCURVE",
"676 1417 OFFCURVE",
"648 1461 CURVE SMOOTH",
"634 1482 OFFCURVE",
"627 1504 OFFCURVE",
"627 1527 CURVE SMOOTH"
);
},
{
closed = 1;
nodes = (
"933 1325 OFFCURVE",
"1013 1309 OFFCURVE",
"1109 1284 CURVE SMOOTH",
"1129 1279 OFFCURVE",
"1141 1276 OFFCURVE",
"1146 1275 CURVE SMOOTH",
"1200 1265 LINE",
"1144 979 LINE",
"937 979 LINE",
"928 1177 LINE",
"883 1202 OFFCURVE",
"832 1214 OFFCURVE",
"777 1214 CURVE SMOOTH",
"481 1214 OFFCURVE",
"372 961 OFFCURVE",
"372 566 CURVE SMOOTH",
"372 393 OFFCURVE",
"406 253 OFFCURVE",
"475 175 CURVE SMOOTH",
"510 136 OFFCURVE",
"553 116 OFFCURVE",
"605 116 CURVE SMOOTH",
"689 116 OFFCURVE",
"747 123 OFFCURVE",
"796 140 CURVE",
"841 507 LINE",
"667 522 LINE",
"684 648 LINE",
"1162 648 LINE",
"1085 72 LINE",
"1042 68 OFFCURVE",
"969 56 OFFCURVE",
"922 44 CURVE SMOOTH",
"901 39 LINE SMOOTH",
"770 4 OFFCURVE",
"681 -14 OFFCURVE",
"548 -14 CURVE SMOOTH",
"324 -14 OFFCURVE",
"178 95 OFFCURVE",
"107 261 CURVE SMOOTH",
"36 427 OFFCURVE",
"20 718 OFFCURVE",
"128 954 CURVE SMOOTH",
"236 1190 OFFCURVE",
"458 1325 OFFCURVE",
"774 1325 CURVE SMOOTH"
);
},
{
closed = 1;
nodes = (
"1026 1086 LINE",
"1019 1097 OFFCURVE",
"1013 1105 OFFCURVE",
"1008 1110 CURVE"
);
}
);
width = 1228;
}
);
note = Gdotaccent;
unicode = 0120;
},
{
glyphname = H;
layers = (
{
layerId = "91C2604D-2087-4E0F-8837-A2CE9AC82E20";
name = "Bold Italic";
paths = (
{
closed = 1;
nodes = (
"899 117 LINE",
"963 605 LINE",
"488 605 LINE",
"424 117 LINE",
"574 91 LINE",
"567 0 LINE",
"-7 0 LINE",
"3 91 LINE",
"121 117 LINE",
"264 1192 LINE",
"139 1214 LINE",
"151 1309 LINE",
"732 1309 LINE",
"722 1214 LINE",
"567 1192 LINE",
"505 726 LINE",
"980 726 LINE",
"1041 1192 LINE",
"889 1214 LINE",
"900 1309 LINE",
"1487 1309 LINE",
"1477 1214 LINE",
"1344 1192 LINE",
"1202 117 LINE",
"1337 91 LINE",
"1327 0 LINE",
"722 0 LINE",
"734 91 LINE"
);
}
);
width = 1424;
}
);
note = H;
unicode = 0048;
},
{
glyphname = Hbar;
layers = (
{
layerId = "91C2604D-2087-4E0F-8837-A2CE9AC82E20";
name = "Bold Italic";
paths = (
{
closed = 1;
nodes = (
"900 117 LINE",
"954 536 LINE",
"479 536 LINE",
"426 117 LINE",
"575 91 LINE",
"568 0 LINE",
"-5 0 LINE",
"4 91 LINE",
"123 117 LINE",
"215 845 LINE",
"66 845 LINE",
"78 965 LINE",
"230 965 LINE",
"261 1199 LINE",
"136 1221 LINE",
"148 1316 LINE",
"728 1316 LINE",
"718 1221 LINE",
"563 1199 LINE",
"533 965 LINE",
"1008 965 LINE",
"1038 1199 LINE",
"886 1221 LINE",
"896 1316 LINE",
"1484 1316 LINE",
"1473 1221 LINE",
"1341 1199 LINE",
"1311 965 LINE",
"1464 965 LINE",
"1452 845 LINE",
"1296 845 LINE",
"1204 117 LINE",
"1339 91 LINE",
"1329 0 LINE",
"724 0 LINE",
"736 91 LINE"
);
},
{
closed = 1;
nodes = (
"969 656 LINE",
"993 845 LINE",
"519 845 LINE",
"494 656 LINE"
);
}
);
width = 1424;
}
);
note = Hbar;
unicode = 0126;
},
{
glyphname = Hcircumflex;
layers = (
{
layerId = "91C2604D-2087-4E0F-8837-A2CE9AC82E20";
name = "Bold Italic";
paths = (
{
closed = 1;
nodes = (
"899 117 LINE",
"963 605 LINE",
"488 605 LINE",
"424 117 LINE",
"574 91 LINE",
"567 0 LINE",
"-7 0 LINE",
"3 91 LINE",
"121 117 LINE",
"264 1192 LINE",
"139 1214 LINE",
"151 1309 LINE",
"732 1309 LINE",
"722 1214 LINE",
"567 1192 LINE",
"505 726 LINE",
"980 726 LINE",
"1041 1192 LINE",
"889 1214 LINE",
"900 1309 LINE",
"1487 1309 LINE",
"1477 1214 LINE",
"1344 1192 LINE",
"1202 117 LINE",
"1337 91 LINE",
"1327 0 LINE",
"722 0 LINE",
"734 91 LINE"
);
},
{
closed = 1;
nodes = (
"852 1732 LINE",
"1005 1732 LINE",
"1186 1425 LINE",
"1079 1375 LINE",
"907 1553 LINE",
"629 1376 LINE",
"537 1425 LINE"
);
}
);
width = 1424;
}
);
note = Hcircumflex;
unicode = 0124;
},
{
glyphname = I;
layers = (
{
layerId = "91C2604D-2087-4E0F-8837-A2CE9AC82E20";
name = "Bold Italic";
paths = (
{
closed = 1;
nodes = (
"125 117 LINE",
"267 1192 LINE",
"140 1214 LINE",
"150 1309 LINE",
"728 1309 LINE",
"717 1214 LINE",
"569 1192 LINE",
"427 117 LINE",
"578 91 LINE",
"572 0 LINE",
"-15 0 LINE",
"-4 91 LINE"
);
}
);
width = 659;
}
);
note = I;
unicode = 0049;
},
{
glyphname = IJ;
layers = (
{
layerId = "91C2604D-2087-4E0F-8837-A2CE9AC82E20";
name = "Bold Italic";
paths = (
{
closed = 1;
nodes = (
"125 117 LINE",
"267 1192 LINE",
"140 1214 LINE",
"150 1309 LINE",
"728 1309 LINE",
"717 1214 LINE",
"569 1192 LINE",
"427 117 LINE",
"578 91 LINE",
"572 0 LINE",
"-15 0 LINE",
"-4 91 LINE"
);
},
{
closed = 1;
nodes = (
"804 1214 LINE",
"817 1309 LINE",
"1363 1309 LINE",
"1354 1214 LINE",
"1230 1192 LINE",
"1226 1156 LINE SMOOTH",
"1185 827 OFFCURVE",
"1153 572 OFFCURVE",
"1129 391 CURVE SMOOTH",
"1080 27 OFFCURVE",
"1065 -9 OFFCURVE",
"961 -109 CURVE SMOOTH",
"856 -210 OFFCURVE",
"706 -274 OFFCURVE",
"543 -297 CURVE",
"498 -204 LINE",
"673 -149 OFFCURVE",
"749 -53 OFFCURVE",
"774 74 CURVE SMOOTH",
"827 363 OFFCURVE",
"879 735 OFFCURVE",
"930 1191 CURVE"
);
}
);
width = 1295;
}
);
note = IJ;
unicode = 0132;
},
{
glyphname = Iacute;
layers = (
{
layerId = "91C2604D-2087-4E0F-8837-A2CE9AC82E20";
name = "Bold Italic";
paths = (
{
closed = 1;
nodes = (
"125 117 LINE",
"267 1192 LINE",
"140 1214 LINE",
"150 1309 LINE",
"728 1309 LINE",
"717 1214 LINE",
"569 1192 LINE",
"427 117 LINE",
"578 91 LINE",
"572 0 LINE",
"-15 0 LINE",
"-4 91 LINE"
);
},
{
closed = 1;
nodes = (
"615 1732 LINE",
"776 1573 LINE",
"748 1520 OFFCURVE",
"668 1453 OFFCURVE",
"585 1404 CURVE SMOOTH",
"543 1379 OFFCURVE",
"507 1361 OFFCURVE",
"478 1350 CURVE",
"378 1438 LINE"
);
}
);
width = 659;
}
);
note = Iacute;
unicode = 00CD;
},
{
glyphname = Ibreve;
layers = (
{
layerId = "91C2604D-2087-4E0F-8837-A2CE9AC82E20";
name = "Bold Italic";
paths = (
{
closed = 1;
nodes = (
"125 117 LINE",
"267 1192 LINE",
"140 1214 LINE",
"150 1309 LINE",
"728 1309 LINE",
"717 1214 LINE",
"569 1192 LINE",
"427 117 LINE",
"578 91 LINE",
"572 0 LINE",
"-15 0 LINE",
"-4 91 LINE"
);
},
{
closed = 1;
nodes = (
"200 1694 OFFCURVE",
"202 1713 OFFCURVE",
"205 1732 CURVE",
"364 1732 LINE",
"364 1664 OFFCURVE",
"367 1632 OFFCURVE",
"399 1609 CURVE SMOOTH",
"415 1597 OFFCURVE",
"440 1591 OFFCURVE",
"474 1591 CURVE SMOOTH",
"568 1591 OFFCURVE",
"615 1638 OFFCURVE",
"615 1732 CURVE",
"770 1732 LINE",
"770 1603 OFFCURVE",
"721 1500 OFFCURVE",
"631 1445 CURVE SMOOTH",
"586 1418 OFFCURVE",
"532 1404 OFFCURVE",
"470 1404 CURVE SMOOTH",
"258 1404 OFFCURVE",
"200 1525 OFFCURVE",
"200 1674 CURVE SMOOTH"
);
}
);
width = 659;
}
);
note = Ibreve;
unicode = 012C;
},
{
glyphname = Icircumflex;
layers = (
{
layerId = "91C2604D-2087-4E0F-8837-A2CE9AC82E20";
name = "Bold Italic";
paths = (
{
closed = 1;
nodes = (
"125 117 LINE",
"267 1192 LINE",
"140 1214 LINE",
"150 1309 LINE",
"728 1309 LINE",
"717 1214 LINE",
"569 1192 LINE",
"427 117 LINE",
"578 91 LINE",
"572 0 LINE",
"-15 0 LINE",
"-4 91 LINE"
);
},
{
closed = 1;
nodes = (
"464 1732 LINE",
"617 1732 LINE",
"798 1425 LINE",
"691 1375 LINE",
"519 1553 LINE",
"241 1376 LINE",
"149 1425 LINE"
);
}
);
width = 659;
}
);
note = Icircumflex;
unicode = 00CE;
},
{
glyphname = Idieresis;
layers = (
{
layerId = "91C2604D-2087-4E0F-8837-A2CE9AC82E20";
name = "Bold Italic";
paths = (
{
closed = 1;
nodes = (
"125 117 LINE",
"267 1192 LINE",
"140 1214 LINE",
"150 1309 LINE",
"728 1309 LINE",
"717 1214 LINE",
"569 1192 LINE",
"427 117 LINE",
"578 91 LINE",
"572 0 LINE",
"-15 0 LINE",
"-4 91 LINE"
);
},
{
closed = 1;
nodes = (
"149 1647 OFFCURVE",
"205 1706 OFFCURVE",
"294 1706 CURVE SMOOTH",
"371 1706 OFFCURVE",
"416 1658 OFFCURVE",
"416 1589 CURVE SMOOTH",
"416 1489 OFFCURVE",
"365 1428 OFFCURVE",
"265 1428 CURVE SMOOTH",
"197 1428 OFFCURVE",
"149 1482 OFFCURVE",
"149 1551 CURVE SMOOTH"
);
},
{
closed = 1;
nodes = (
"538 1647 OFFCURVE",
"594 1706 OFFCURVE",
"682 1706 CURVE SMOOTH",
"761 1706 OFFCURVE",
"804 1658 OFFCURVE",
"804 1589 CURVE SMOOTH",
"804 1489 OFFCURVE",
"754 1428 OFFCURVE",
"654 1428 CURVE SMOOTH",
"586 1428 OFFCURVE",
"538 1482 OFFCURVE",
"538 1551 CURVE SMOOTH"
);
}
);
width = 659;
}
);
note = Idieresis;
unicode = 00CF;
},
{
glyphname = Idotaccent;
layers = (
{
layerId = "91C2604D-2087-4E0F-8837-A2CE9AC82E20";
name = "Bold Italic";
paths = (
{
closed = 1;
nodes = (
"125 117 LINE",
"267 1192 LINE",
"140 1214 LINE",
"150 1309 LINE",
"728 1309 LINE",
"717 1214 LINE",
"569 1192 LINE",
"427 117 LINE",
"578 91 LINE",
"572 0 LINE",
"-15 0 LINE",
"-4 91 LINE"
);
},
{
closed = 1;
nodes = (
"309 1591 OFFCURVE",
"341 1646 OFFCURVE",
"395 1676 CURVE SMOOTH",
"422 1691 OFFCURVE",
"453 1698 OFFCURVE",
"488 1698 CURVE SMOOTH",
"547 1698 OFFCURVE",
"595 1671 OFFCURVE",
"623 1629 CURVE SMOOTH",
"636 1608 OFFCURVE",
"643 1586 OFFCURVE",
"643 1563 CURVE SMOOTH",
"643 1496 OFFCURVE",
"614 1441 OFFCURVE",
"558 1410 CURVE SMOOTH",
"530 1394 OFFCURVE",
"496 1386 OFFCURVE",
"457 1386 CURVE SMOOTH",
"408 1386 OFFCURVE",
"358 1417 OFFCURVE",
"330 1461 CURVE SMOOTH",
"316 1482 OFFCURVE",
"309 1504 OFFCURVE",
"309 1527 CURVE SMOOTH"
);
}
);
width = 659;
}
);
note = Idotaccent;
unicode = 0130;
},
{
glyphname = Igrave;
layers = (
{
layerId = "91C2604D-2087-4E0F-8837-A2CE9AC82E20";
name = "Bold Italic";
paths = (
{
closed = 1;
nodes = (
"125 117 LINE",
"267 1192 LINE",
"140 1214 LINE",
"150 1309 LINE",
"728 1309 LINE",
"717 1214 LINE",
"569 1192 LINE",
"427 117 LINE",
"578 91 LINE",
"572 0 LINE",
"-15 0 LINE",
"-4 91 LINE"
);
},
{
closed = 1;
nodes = (
"333 1732 LINE",
"570 1438 LINE",
"470 1350 LINE",
"411 1373 OFFCURVE",
"322 1425 OFFCURVE",
"250 1485 CURVE SMOOTH",
"214 1515 OFFCURVE",
"188 1544 OFFCURVE",
"172 1573 CURVE"
);
}
);
width = 659;
}
);
note = Igrave;
unicode = 00CC;
},
{
glyphname = Imacron;
layers = (
{
layerId = "91C2604D-2087-4E0F-8837-A2CE9AC82E20";
name = "Bold Italic";
paths = (
{
closed = 1;
nodes = (
"125 117 LINE",
"267 1192 LINE",
"140 1214 LINE",
"150 1309 LINE",
"728 1309 LINE",
"717 1214 LINE",
"569 1192 LINE",
"427 117 LINE",
"578 91 LINE",
"572 0 LINE",
"-15 0 LINE",
"-4 91 LINE"
);
},
{
closed = 1;
nodes = (
"731 1648 LINE",
"713 1468 LINE",
"222 1468 LINE",
"239 1648 LINE"
);
}
);
width = 659;
}
);
note = Imacron;
unicode = 012A;
},
{
glyphname = Iogonek;
layers = (
{
layerId = "91C2604D-2087-4E0F-8837-A2CE9AC82E20";
name = "Bold Italic";
paths = (
{
closed = 1;
nodes = (
"125 117 LINE",
"267 1192 LINE",
"140 1214 LINE",
"150 1309 LINE",
"728 1309 LINE",
"717 1214 LINE",
"569 1192 LINE",
"427 117 LINE",
"578 91 LINE",
"572 0 LINE",
"380 0 LINE",
"269 -75 OFFCURVE",
"213 -137 OFFCURVE",
"213 -185 CURVE SMOOTH",
"213 -230 OFFCURVE",
"234 -247 OFFCURVE",
"271 -247 CURVE SMOOTH",
"314 -247 OFFCURVE",
"345 -229 OFFCURVE",
"402 -182 CURVE",
"433 -280 LINE",
"357 -360 OFFCURVE",
"254 -413 OFFCURVE",
"138 -413 CURVE SMOOTH",
"29 -413 OFFCURVE",
"-28 -356 OFFCURVE",
"-28 -263 CURVE SMOOTH",
"-28 -235 OFFCURVE",
"-11 -189 OFFCURVE",
"10 -157 CURVE SMOOTH",
"65 -77 OFFCURVE",
"121 -36 OFFCURVE",
"192 0 CURVE",
"-15 0 LINE",
"-4 91 LINE"
);
}
);
width = 659;
}
);
note = Iogonek;
unicode = 012E;
},
{
glyphname = Itilde;
layers = (
{
layerId = "91C2604D-2087-4E0F-8837-A2CE9AC82E20";
name = "Bold Italic";
paths = (
{
closed = 1;
nodes = (
"125 117 LINE",
"267 1192 LINE",
"140 1214 LINE",
"150 1309 LINE",
"728 1309 LINE",
"717 1214 LINE",
"569 1192 LINE",
"427 117 LINE",
"578 91 LINE",
"572 0 LINE",
"-15 0 LINE",
"-4 91 LINE"
);
},
{
closed = 1;
nodes = (
"160 1549 LINE",
"179 1598 OFFCURVE",
"222 1646 OFFCURVE",
"283 1674 CURVE SMOOTH",
"313 1687 OFFCURVE",
"346 1694 OFFCURVE",
"381 1694 CURVE SMOOTH",
"446 1694 OFFCURVE",
"482 1668 OFFCURVE",
"530 1619 CURVE SMOOTH",
"569 1580 OFFCURVE",
"588 1565 OFFCURVE",
"621 1565 CURVE SMOOTH",
"677 1565 OFFCURVE",
"716 1603 OFFCURVE",
"752 1651 CURVE",
"828 1539 LINE",
"808 1487 OFFCURVE",
"762 1436 OFFCURVE",
"703 1406 CURVE SMOOTH",
"673 1391 OFFCURVE",
"643 1383 OFFCURVE",
"612 1383 CURVE SMOOTH",
"560 1383 OFFCURVE",
"522 1399 OFFCURVE",
"497 1419 CURVE",
"484 1428 OFFCURVE",
"470 1441 OFFCURVE",
"454 1457 CURVE SMOOTH",
"415 1494 OFFCURVE",
"394 1512 OFFCURVE",
"351 1512 CURVE SMOOTH",
"304 1512 OFFCURVE",
"267 1485 OFFCURVE",
"226 1442 CURVE"
);
}
);
width = 659;
}
);
note = Itilde;
unicode = 0128;
},
{
glyphname = J;
layers = (
{
layerId = "91C2604D-2087-4E0F-8837-A2CE9AC82E20";
name = "Bold Italic";
paths = (
{
closed = 1;
nodes = (
"144 1214 LINE",
"157 1309 LINE",
"703 1309 LINE",
"694 1214 LINE",
"570 1192 LINE",
"566 1156 LINE SMOOTH",
"525 827 OFFCURVE",
"493 572 OFFCURVE",
"469 391 CURVE SMOOTH",
"420 27 OFFCURVE",
"405 -9 OFFCURVE",
"301 -109 CURVE SMOOTH",
"196 -210 OFFCURVE",
"46 -274 OFFCURVE",
"-117 -297 CURVE",
"-162 -204 LINE",
"13 -149 OFFCURVE",
"89 -53 OFFCURVE",
"114 74 CURVE SMOOTH",
"167 363 OFFCURVE",
"219 735 OFFCURVE",
"270 1191 CURVE"
);
}
);
width = 635;
}
);
note = J;
unicode = 004A;
},
{
glyphname = Jcircumflex;
layers = (
{
layerId = "91C2604D-2087-4E0F-8837-A2CE9AC82E20";
name = "Bold Italic";
paths = (
{
closed = 1;
nodes = (
"144 1214 LINE",
"157 1309 LINE",
"703 1309 LINE",
"694 1214 LINE",
"570 1192 LINE",
"566 1156 LINE SMOOTH",
"525 827 OFFCURVE",
"493 572 OFFCURVE",
"469 391 CURVE SMOOTH",
"420 27 OFFCURVE",
"405 -9 OFFCURVE",
"301 -109 CURVE SMOOTH",
"196 -210 OFFCURVE",
"46 -274 OFFCURVE",
"-117 -297 CURVE",
"-162 -204 LINE",
"13 -149 OFFCURVE",
"89 -53 OFFCURVE",
"114 74 CURVE SMOOTH",
"167 363 OFFCURVE",
"219 735 OFFCURVE",
"270 1191 CURVE"
);
},
{
closed = 1;
nodes = (
"440 1732 LINE",
"593 1732 LINE",
"774 1425 LINE",
"667 1375 LINE",
"495 1553 LINE",
"217 1376 LINE",
"125 1425 LINE"
);
}
);
width = 635;
}
);
note = Jcircumflex;
unicode = 0134;
},
{
glyphname = K;
layers = (
{
layerId = "91C2604D-2087-4E0F-8837-A2CE9AC82E20";
name = "Bold Italic";
paths = (
{
closed = 1;
nodes = (
"790 170 OFFCURVE",
"715 373 OFFCURVE",
"680 464 CURVE SMOOTH",
"662 509 OFFCURVE",
"643 551 OFFCURVE",
"624 589 CURVE",
"461 426 LINE",
"421 117 LINE",
"570 91 LINE",
"562 0 LINE",
"-19 0 LINE",
"-8 91 LINE",
"118 117 LINE",
"260 1192 LINE",
"135 1214 LINE",
"147 1309 LINE",
"728 1309 LINE",
"717 1214 LINE",
"562 1192 LINE",
"487 621 LINE",
"1023 1192 LINE",
"906 1215 LINE",
"916 1309 LINE",
"1347 1309 LINE",
"1336 1214 LINE",
"1227 1192 LINE",
"827 792 LINE",
"852 754 OFFCURVE",
"896 665 OFFCURVE",
"961 524 CURVE SMOOTH",
"1029 380 OFFCURVE",
"1085 271 OFFCURVE",
"1130 192 CURVE SMOOTH",
"1153 152 OFFCURVE",
"1173 127 OFFCURVE",
"1192 117 CURVE",
"1293 91 LINE",
"1282 0 LINE",
"909 0 LINE",
"874 4 OFFCURVE",
"856 23 OFFCURVE",
"834 67 CURVE SMOOTH",
"823 89 OFFCURVE",
"807 125 OFFCURVE",
"787 175 CURVE"
);
}
);
width = 1277;
}
);
note = K;
unicode = 004B;
},
{
glyphname = Kcommaaccent;
layers = (
{
layerId = "91C2604D-2087-4E0F-8837-A2CE9AC82E20";
name = "Bold Italic";
paths = (
{
closed = 1;
nodes = (
"526 -397 LINE",
"554 -382 OFFCURVE",
"585 -341 OFFCURVE",
"585 -286 CURVE SMOOTH",
"585 -242 OFFCURVE",
"560 -203 OFFCURVE",
"527 -199 CURVE",
"537 -119 LINE",
"669 -30 LINE",
"721 -41 OFFCURVE",
"764 -77 OFFCURVE",
"788 -128 CURVE",
"799 -154 OFFCURVE",
"805 -182 OFFCURVE",
"805 -212 CURVE SMOOTH",
"805 -305 OFFCURVE",
"761 -386 OFFCURVE",
"701 -434 CURVE SMOOTH",
"670 -459 OFFCURVE",
"640 -474 OFFCURVE",
"610 -480 CURVE",
"524 -419 LINE"
);
},
{
closed = 1;
nodes = (
"790 170 OFFCURVE",
"715 373 OFFCURVE",
"680 464 CURVE SMOOTH",
"662 509 OFFCURVE",
"643 551 OFFCURVE",
"624 589 CURVE",
"461 426 LINE",
"421 117 LINE",
"570 91 LINE",
"562 0 LINE",
"-19 0 LINE",
"-8 91 LINE",
"118 117 LINE",
"260 1192 LINE",
"135 1214 LINE",
"147 1309 LINE",
"728 1309 LINE",
"717 1214 LINE",
"562 1192 LINE",
"487 621 LINE",
"1023 1192 LINE",
"906 1215 LINE",
"916 1309 LINE",
"1347 1309 LINE",
"1336 1214 LINE",
"1227 1192 LINE",
"827 792 LINE",
"852 754 OFFCURVE",
"896 665 OFFCURVE",
"961 524 CURVE SMOOTH",
"1029 380 OFFCURVE",
"1085 271 OFFCURVE",
"1130 192 CURVE SMOOTH",
"1153 152 OFFCURVE",
"1173 127 OFFCURVE",
"1192 117 CURVE",
"1293 91 LINE",
"1282 0 LINE",
"909 0 LINE",
"874 4 OFFCURVE",
"856 23 OFFCURVE",
"834 67 CURVE SMOOTH",
"823 89 OFFCURVE",
"807 125 OFFCURVE",
"787 175 CURVE"
);
}
);
width = 1277;
}
);
note = Kcommaaccent;
unicode = 0136;
},
{
glyphname = L;
layers = (
{
layerId = "91C2604D-2087-4E0F-8837-A2CE9AC82E20";
name = "Bold Italic";
paths = (
{
closed = 1;
nodes = (
"118 117 LINE",
"260 1192 LINE",
"134 1214 LINE",
"145 1309 LINE",
"729 1309 LINE",
"719 1214 LINE",
"562 1192 LINE",
"420 111 LINE",
"728 128 LINE",
"910 516 LINE",
"1066 496 LINE",
"976 0 LINE",
"-11 0 LINE",
"-1 91 LINE"
);
}
);
width = 1091;
}
);
note = L;
unicode = 004C;
},
{
glyphname = Lacute;
layers = (
{
layerId = "91C2604D-2087-4E0F-8837-A2CE9AC82E20";
name = "Bold Italic";
paths = (
{
closed = 1;
nodes = (
"662 1734 LINE",
"823 1575 LINE",
"795 1522 OFFCURVE",
"715 1455 OFFCURVE",
"632 1406 CURVE SMOOTH",
"590 1381 OFFCURVE",
"554 1363 OFFCURVE",
"525 1352 CURVE",
"425 1440 LINE"
);
},
{
closed = 1;
nodes = (
"118 117 LINE",
"260 1192 LINE",
"134 1214 LINE",
"145 1309 LINE",
"729 1309 LINE",
"719 1214 LINE",
"562 1192 LINE",
"420 111 LINE",
"728 128 LINE",
"910 516 LINE",
"1066 496 LINE",
"976 0 LINE",
"-11 0 LINE",
"-1 91 LINE"
);
}
);
width = 1091;
}
);
note = Lacute;
unicode = 0139;
},
{
glyphname = Lcaron;
layers = (
{
layerId = "91C2604D-2087-4E0F-8837-A2CE9AC82E20";
name = "Bold Italic";
paths = (
{
closed = 1;
nodes = (
"118 117 LINE",
"260 1192 LINE",
"134 1214 LINE",
"145 1309 LINE",
"729 1309 LINE",
"719 1214 LINE",
"562 1192 LINE",
"420 111 LINE",
"728 128 LINE",
"910 516 LINE",
"1066 496 LINE",
"976 0 LINE",
"-11 0 LINE",
"-1 91 LINE"
);
},
{
closed = 1;
nodes = (
"820 911 LINE",
"841 967 OFFCURVE",
"855 1073 OFFCURVE",
"855 1170 CURVE SMOOTH",
"855 1265 OFFCURVE",
"848 1322 OFFCURVE",
"835 1343 CURVE",
"851 1379 LINE",
"1029 1419 LINE",
"1049 1396 OFFCURVE",
"1062 1328 OFFCURVE",
"1062 1256 CURVE SMOOTH",
"1062 1113 OFFCURVE",
"1014 947 OFFCURVE",
"937 864 CURVE",
"825 890 LINE"
);
}
);
width = 1091;
}
);
note = Lcaron;
unicode = 013D;
},
{
glyphname = Lcommaaccent;
layers = (
{
layerId = "91C2604D-2087-4E0F-8837-A2CE9AC82E20";
name = "Bold Italic";
paths = (
{
closed = 1;
nodes = (
"326 -397 LINE",
"354 -382 OFFCURVE",
"385 -341 OFFCURVE",
"385 -286 CURVE SMOOTH",
"385 -242 OFFCURVE",
"360 -203 OFFCURVE",
"327 -199 CURVE",
"337 -119 LINE",
"469 -30 LINE",
"521 -41 OFFCURVE",
"564 -77 OFFCURVE",
"588 -128 CURVE",
"599 -154 OFFCURVE",
"605 -182 OFFCURVE",
"605 -212 CURVE SMOOTH",
"605 -305 OFFCURVE",
"561 -386 OFFCURVE",
"501 -434 CURVE SMOOTH",
"470 -459 OFFCURVE",
"440 -474 OFFCURVE",
"410 -480 CURVE",
"324 -419 LINE"
);
},
{
closed = 1;
nodes = (
"118 117 LINE",
"260 1192 LINE",
"134 1214 LINE",
"145 1309 LINE",
"729 1309 LINE",
"719 1214 LINE",
"562 1192 LINE",
"420 111 LINE",
"728 128 LINE",
"910 516 LINE",
"1066 496 LINE",
"976 0 LINE",
"-11 0 LINE",
"-1 91 LINE"
);
}
);
width = 1091;
}
);
note = Lcommaaccent;
unicode = 013B;
},
{
glyphname = Ldot;
layers = (
{
layerId = "91C2604D-2087-4E0F-8837-A2CE9AC82E20";
name = "Bold Italic";
paths = (
{
closed = 1;
nodes = (
"118 117 LINE",
"260 1192 LINE",
"134 1214 LINE",
"145 1309 LINE",
"729 1309 LINE",
"719 1214 LINE",
"562 1192 LINE",
"420 111 LINE",
"728 128 LINE",
"910 516 LINE",
"1066 496 LINE",
"976 0 LINE",
"-11 0 LINE",
"-1 91 LINE"
);
},
{
closed = 1;
nodes = (
"1029 961 OFFCURVE",
"1069 934 OFFCURVE",
"1089 891 CURVE SMOOTH",
"1098 870 OFFCURVE",
"1103 847 OFFCURVE",
"1103 823 CURVE SMOOTH",
"1103 748 OFFCURVE",
"1065 697 OFFCURVE",
"1012 671 CURVE SMOOTH",
"985 658 OFFCURVE",
"958 651 OFFCURVE",
"929 651 CURVE SMOOTH",
"886 651 OFFCURVE",
"848 676 OFFCURVE",
"827 719 CURVE SMOOTH",
"816 740 OFFCURVE",
"811 764 OFFCURVE",
"811 789 CURVE SMOOTH",
"811 858 OFFCURVE",
"848 912 OFFCURVE",
"898 940 CURVE SMOOTH",
"923 954 OFFCURVE",
"949 961 OFFCURVE",
"976 961 CURVE SMOOTH"
);
}
);
width = 1091;
}
);
note = Ldot;
unicode = 013F;
},
{
glyphname = Lslash;
layers = (
{
layerId = "91C2604D-2087-4E0F-8837-A2CE9AC82E20";
name = "Bold Italic";
paths = (
{
closed = 1;
nodes = (
"179 587 LINE",
"260 1194 LINE",
"134 1216 LINE",
"145 1311 LINE",
"729 1311 LINE",
"719 1216 LINE",
"562 1194 LINE",
"499 716 LINE",
"761 823 LINE",
"791 714 LINE",
"482 592 LINE",
"420 113 LINE",
"728 130 LINE",
"910 518 LINE",
"1066 498 LINE",
"976 2 LINE",
"-11 2 LINE",
"-1 93 LINE",
"118 119 LINE",
"163 464 LINE",
"39 415 LINE",
"8 517 LINE"
);
}
);
width = 1091;
}
);
note = Lslash;
unicode = 0141;
},
{
glyphname = M;
layers = (
{
layerId = "91C2604D-2087-4E0F-8837-A2CE9AC82E20";
name = "Bold Italic";
paths = (
{
closed = 1;
nodes = (
"73 117 LINE",
"353 1192 LINE",
"187 1214 LINE",
"200 1309 LINE",
"795 1309 LINE",
"880 585 LINE",
"898 438 LINE",
"945 585 LINE",
"1232 1309 LINE",
"1757 1309 LINE",
"1746 1214 LINE",
"1594 1192 LINE",
"1560 117 LINE",
"1716 91 LINE",
"1709 0 LINE",
"1095 0 LINE",
"1103 93 LINE",
"1265 117 LINE",
"1314 850 LINE",
"1331 1192 LINE",
"1208 891 LINE",
"831 -3 LINE",
"685 -15 LINE",
"568 870 LINE",
"522 1193 LINE",
"447 862 LINE",
"267 117 LINE",
"461 92 LINE",
"452 0 LINE",
"-76 0 LINE",
"-65 91 LINE"
);
}
);
width = 1738;
}
);
note = M;
unicode = 004D;
},
{
glyphname = N;
layers = (
{
layerId = "91C2604D-2087-4E0F-8837-A2CE9AC82E20";
name = "Bold Italic";
paths = (
{
closed = 1;
nodes = (
"119 117 LINE",
"279 1192 LINE",
"132 1214 LINE",
"146 1309 LINE",
"625 1309 LINE",
"944 460 LINE",
"1011 262 LINE",
"1128 1192 LINE",
"980 1214 LINE",
"990 1309 LINE",
"1422 1309 LINE",
"1412 1214 LINE",
"1306 1192 LINE",
"1124 0 LINE",
"816 0 LINE",
"480 877 LINE",
"413 1096 LINE",
"305 117 LINE",
"469 91 LINE",
"459 0 LINE",
"-16 0 LINE",
"-9 91 LINE"
);
}
);
width = 1336;
}
);
note = N;
unicode = 004E;
},
{
glyphname = Nacute;
layers = (
{
layerId = "91C2604D-2087-4E0F-8837-A2CE9AC82E20";
name = "Bold Italic";
paths = (
{
closed = 1;
nodes = (
"954 1732 LINE",
"1115 1573 LINE",
"1087 1520 OFFCURVE",
"1007 1453 OFFCURVE",
"924 1404 CURVE SMOOTH",
"882 1379 OFFCURVE",
"846 1361 OFFCURVE",
"817 1350 CURVE",
"717 1438 LINE"
);
},
{
closed = 1;
nodes = (
"119 117 LINE",
"279 1192 LINE",
"132 1214 LINE",
"146 1309 LINE",
"625 1309 LINE",
"944 460 LINE",
"1011 262 LINE",
"1128 1192 LINE",
"980 1214 LINE",
"990 1309 LINE",
"1422 1309 LINE",
"1412 1214 LINE",
"1306 1192 LINE",
"1124 0 LINE",
"816 0 LINE",
"480 877 LINE",
"413 1096 LINE",
"305 117 LINE",
"469 91 LINE",
"459 0 LINE",
"-16 0 LINE",
"-9 91 LINE"
);
}
);
width = 1336;
}
);
note = Nacute;
unicode = 0143;
},
{
glyphname = Ncaron;
layers = (
{
layerId = "91C2604D-2087-4E0F-8837-A2CE9AC82E20";
name = "Bold Italic";
paths = (
{
closed = 1;
nodes = (
"648 1732 LINE",
"821 1584 LINE",
"1098 1732 LINE",
"1190 1683 LINE",
"874 1375 LINE",
"722 1375 LINE",
"541 1682 LINE"
);
},
{
closed = 1;
nodes = (
"119 117 LINE",
"279 1192 LINE",
"132 1214 LINE",
"146 1309 LINE",
"625 1309 LINE",
"944 460 LINE",
"1011 262 LINE",
"1128 1192 LINE",
"980 1214 LINE",
"990 1309 LINE",
"1422 1309 LINE",
"1412 1214 LINE",
"1306 1192 LINE",
"1124 0 LINE",
"816 0 LINE",
"480 877 LINE",
"413 1096 LINE",
"305 117 LINE",
"469 91 LINE",
"459 0 LINE",
"-16 0 LINE",
"-9 91 LINE"
);
}
);
width = 1336;
}
);
note = Ncaron;
unicode = 0147;
},
{
glyphname = Ncommaaccent;
layers = (
{
layerId = "91C2604D-2087-4E0F-8837-A2CE9AC82E20";
name = "Bold Italic";
paths = (
{
closed = 1;
nodes = (
"474 -399 LINE",
"502 -384 OFFCURVE",
"533 -343 OFFCURVE",
"533 -288 CURVE SMOOTH",
"533 -244 OFFCURVE",
"508 -205 OFFCURVE",
"475 -201 CURVE",
"485 -121 LINE",
"617 -32 LINE",
"669 -43 OFFCURVE",
"712 -79 OFFCURVE",
"736 -130 CURVE",
"747 -156 OFFCURVE",
"753 -184 OFFCURVE",
"753 -214 CURVE SMOOTH",
"753 -307 OFFCURVE",
"709 -388 OFFCURVE",
"649 -436 CURVE SMOOTH",
"618 -461 OFFCURVE",
"588 -476 OFFCURVE",
"558 -482 CURVE",
"472 -421 LINE"
);
},
{
closed = 1;
nodes = (
"119 117 LINE",
"279 1192 LINE",
"132 1214 LINE",
"146 1309 LINE",
"625 1309 LINE",
"944 460 LINE",
"1011 262 LINE",
"1128 1192 LINE",
"980 1214 LINE",
"990 1309 LINE",
"1422 1309 LINE",
"1412 1214 LINE",
"1306 1192 LINE",
"1124 0 LINE",
"816 0 LINE",
"480 877 LINE",
"413 1096 LINE",
"305 117 LINE",
"469 91 LINE",
"459 0 LINE",
"-16 0 LINE",
"-9 91 LINE"
);
}
);
width = 1336;
}
);
note = Ncommaaccent;
unicode = 0145;
},
{
glyphname = Eng;
layers = (
{
layerId = "91C2604D-2087-4E0F-8837-A2CE9AC82E20";
name = "Bold Italic";
paths = (
{
closed = 1;
nodes = (
"116 117 LINE",
"272 1199 LINE",
"126 1221 LINE",
"139 1316 LINE",
"618 1316 LINE",
"955 533 LINE",
"1016 318 LINE",
"1121 1199 LINE",
"974 1221 LINE",
"983 1316 LINE",
"1415 1316 LINE",
"1405 1221 LINE",
"1299 1199 LINE",
"1121 0 LINE SMOOTH",
"1101 -141 OFFCURVE",
"1022 -271 OFFCURVE",
"891 -350 CURVE SMOOTH",
"826 -389 OFFCURVE",
"750 -412 OFFCURVE",
"665 -417 CURVE",
"624 -316 LINE",
"697 -301 OFFCURVE",
"784 -245 OFFCURVE",
"836 -159 CURVE SMOOTH",
"862 -116 OFFCURVE",
"875 -70 OFFCURVE",
"875 -19 CURVE SMOOTH",
"875 -11 OFFCURVE",
"875 -5 OFFCURVE",
"875 0 CURVE",
"473 884 LINE",
"406 1103 LINE",
"303 117 LINE",
"466 91 LINE",
"457 0 LINE",
"-19 0 LINE",
"-12 91 LINE"
);
}
);
width = 1336;
}
);
note = Eng;
unicode = 014A;
},
{
glyphname = Ntilde;
layers = (
{
layerId = "91C2604D-2087-4E0F-8837-A2CE9AC82E20";
name = "Bold Italic";
paths = (
{
closed = 1;
nodes = (
"499 1549 LINE",
"518 1598 OFFCURVE",
"561 1646 OFFCURVE",
"622 1674 CURVE SMOOTH",
"652 1687 OFFCURVE",
"685 1694 OFFCURVE",
"720 1694 CURVE SMOOTH",
"785 1694 OFFCURVE",
"821 1668 OFFCURVE",
"869 1619 CURVE SMOOTH",
"908 1580 OFFCURVE",
"927 1565 OFFCURVE",
"960 1565 CURVE SMOOTH",
"1016 1565 OFFCURVE",
"1055 1603 OFFCURVE",
"1091 1651 CURVE",
"1167 1539 LINE",
"1147 1487 OFFCURVE",
"1101 1436 OFFCURVE",
"1042 1406 CURVE SMOOTH",
"1012 1391 OFFCURVE",
"982 1383 OFFCURVE",
"951 1383 CURVE SMOOTH",
"899 1383 OFFCURVE",
"861 1399 OFFCURVE",
"836 1419 CURVE",
"823 1428 OFFCURVE",
"809 1441 OFFCURVE",
"793 1457 CURVE SMOOTH",
"754 1494 OFFCURVE",
"733 1512 OFFCURVE",
"690 1512 CURVE SMOOTH",
"643 1512 OFFCURVE",
"606 1485 OFFCURVE",
"565 1442 CURVE"
);
},
{
closed = 1;
nodes = (
"119 117 LINE",
"279 1192 LINE",
"132 1214 LINE",
"146 1309 LINE",
"625 1309 LINE",
"944 460 LINE",
"1011 262 LINE",
"1128 1192 LINE",
"980 1214 LINE",
"990 1309 LINE",
"1422 1309 LINE",
"1412 1214 LINE",
"1306 1192 LINE",
"1124 0 LINE",
"816 0 LINE",
"480 877 LINE",
"413 1096 LINE",
"305 117 LINE",
"469 91 LINE",
"459 0 LINE",
"-16 0 LINE",
"-9 91 LINE"
);
}
);
width = 1336;
}
);
note = Ntilde;
unicode = 00D1;
},
{
glyphname = O;
layers = (
{
layerId = "91C2604D-2087-4E0F-8837-A2CE9AC82E20";
name = "Bold Italic";
paths = (
{
closed = 1;
nodes = (
"964 1326 OFFCURVE",
"1112 1218 OFFCURVE",
"1180 1050 CURVE SMOOTH",
"1214 966 OFFCURVE",
"1231 872 OFFCURVE",
"1231 768 CURVE SMOOTH",
"1231 493 OFFCURVE",
"1139 242 OFFCURVE",
"935 94 CURVE SMOOTH",
"833 20 OFFCURVE",
"705 -17 OFFCURVE",
"551 -17 CURVE SMOOTH",
"322 -17 OFFCURVE",
"173 86 OFFCURVE",
"104 255 CURVE SMOOTH",
"69 339 OFFCURVE",
"52 437 OFFCURVE",
"52 548 CURVE SMOOTH",
"52 824 OFFCURVE",
"152 1073 OFFCURVE",
"357 1218 CURVE SMOOTH",
"459 1290 OFFCURVE",
"584 1326 OFFCURVE",
"732 1326 CURVE SMOOTH"
);
},
{
closed = 1;
nodes = (
"903 909 OFFCURVE",
"888 1023 OFFCURVE",
"857 1102 CURVE SMOOTH",
"826 1180 OFFCURVE",
"777 1219 OFFCURVE",
"709 1219 CURVE SMOOTH",
"572 1219 OFFCURVE",
"471 1084 OFFCURVE",
"419 881 CURVE SMOOTH",
"393 780 OFFCURVE",
"380 672 OFFCURVE",
"380 558 CURVE SMOOTH",
"380 285 OFFCURVE",
"425 88 OFFCURVE",
"576 88 CURVE SMOOTH",
"720 88 OFFCURVE",
"819 214 OFFCURVE",
"867 416 CURVE SMOOTH",
"891 517 OFFCURVE",
"903 631 OFFCURVE",
"903 758 CURVE SMOOTH"
);
}
);
width = 1257;
}
);
note = O;
unicode = 004F;
},
{
glyphname = Oacute;
layers = (
{
layerId = "91C2604D-2087-4E0F-8837-A2CE9AC82E20";
name = "Bold Italic";
paths = (
{
closed = 1;
nodes = (
"891 1732 LINE",
"1052 1573 LINE",
"1024 1520 OFFCURVE",
"944 1453 OFFCURVE",
"861 1404 CURVE SMOOTH",
"819 1379 OFFCURVE",
"783 1361 OFFCURVE",
"754 1350 CURVE",
"654 1438 LINE"
);
},
{
closed = 1;
nodes = (
"967 1326 OFFCURVE",
"1115 1218 OFFCURVE",
"1183 1050 CURVE SMOOTH",
"1217 966 OFFCURVE",
"1234 872 OFFCURVE",
"1234 768 CURVE SMOOTH",
"1234 493 OFFCURVE",
"1142 242 OFFCURVE",
"938 94 CURVE SMOOTH",
"836 20 OFFCURVE",
"708 -17 OFFCURVE",
"554 -17 CURVE SMOOTH",
"325 -17 OFFCURVE",
"176 86 OFFCURVE",
"107 255 CURVE SMOOTH",
"72 339 OFFCURVE",
"55 437 OFFCURVE",
"55 548 CURVE SMOOTH",
"55 824 OFFCURVE",
"155 1073 OFFCURVE",
"360 1218 CURVE SMOOTH",
"462 1290 OFFCURVE",
"587 1326 OFFCURVE",
"735 1326 CURVE SMOOTH"
);
},
{
closed = 1;
nodes = (
"906 909 OFFCURVE",
"891 1023 OFFCURVE",
"860 1102 CURVE SMOOTH",
"829 1180 OFFCURVE",
"780 1219 OFFCURVE",
"712 1219 CURVE SMOOTH",
"575 1219 OFFCURVE",
"474 1084 OFFCURVE",
"422 881 CURVE SMOOTH",
"396 780 OFFCURVE",
"383 672 OFFCURVE",
"383 558 CURVE SMOOTH",
"383 285 OFFCURVE",
"428 88 OFFCURVE",
"579 88 CURVE SMOOTH",
"723 88 OFFCURVE",
"822 214 OFFCURVE",
"870 416 CURVE SMOOTH",
"894 517 OFFCURVE",
"906 631 OFFCURVE",
"906 758 CURVE SMOOTH"
);
}
);
width = 1257;
}
);
note = Oacute;
unicode = 00D3;
},
{
glyphname = Obreve;
layers = (
{
layerId = "91C2604D-2087-4E0F-8837-A2CE9AC82E20";
name = "Bold Italic";
paths = (
{
closed = 1;
nodes = (
"475 1694 OFFCURVE",
"477 1713 OFFCURVE",
"480 1732 CURVE",
"639 1732 LINE",
"639 1664 OFFCURVE",
"642 1632 OFFCURVE",
"674 1609 CURVE SMOOTH",
"690 1597 OFFCURVE",
"715 1591 OFFCURVE",
"749 1591 CURVE SMOOTH",
"843 1591 OFFCURVE",
"890 1638 OFFCURVE",
"890 1732 CURVE",
"1045 1732 LINE",
"1045 1603 OFFCURVE",
"996 1500 OFFCURVE",
"906 1445 CURVE SMOOTH",
"861 1418 OFFCURVE",
"807 1404 OFFCURVE",
"745 1404 CURVE SMOOTH",
"533 1404 OFFCURVE",
"475 1525 OFFCURVE",
"475 1674 CURVE SMOOTH"
);
},
{
closed = 1;
nodes = (
"967 1326 OFFCURVE",
"1115 1218 OFFCURVE",
"1183 1050 CURVE SMOOTH",
"1217 966 OFFCURVE",
"1234 872 OFFCURVE",
"1234 768 CURVE SMOOTH",
"1234 493 OFFCURVE",
"1142 242 OFFCURVE",
"938 94 CURVE SMOOTH",
"836 20 OFFCURVE",
"708 -17 OFFCURVE",
"554 -17 CURVE SMOOTH",
"325 -17 OFFCURVE",
"176 86 OFFCURVE",
"107 255 CURVE SMOOTH",
"72 339 OFFCURVE",
"55 437 OFFCURVE",
"55 548 CURVE SMOOTH",
"55 824 OFFCURVE",
"155 1073 OFFCURVE",
"360 1218 CURVE SMOOTH",
"462 1290 OFFCURVE",
"587 1326 OFFCURVE",
"735 1326 CURVE SMOOTH"
);
},
{
closed = 1;
nodes = (
"906 909 OFFCURVE",
"891 1023 OFFCURVE",
"860 1102 CURVE SMOOTH",
"829 1180 OFFCURVE",
"780 1219 OFFCURVE",
"712 1219 CURVE SMOOTH",
"575 1219 OFFCURVE",
"474 1084 OFFCURVE",
"422 881 CURVE SMOOTH",
"396 780 OFFCURVE",
"383 672 OFFCURVE",
"383 558 CURVE SMOOTH",
"383 285 OFFCURVE",
"428 88 OFFCURVE",
"579 88 CURVE SMOOTH",
"723 88 OFFCURVE",
"822 214 OFFCURVE",
"870 416 CURVE SMOOTH",
"894 517 OFFCURVE",
"906 631 OFFCURVE",
"906 758 CURVE SMOOTH"
);
}
);
width = 1257;
}
);
note = Obreve;
unicode = 014E;
},
{
glyphname = Ocircumflex;
layers = (
{
layerId = "91C2604D-2087-4E0F-8837-A2CE9AC82E20";
name = "Bold Italic";
paths = (
{
closed = 1;
nodes = (
"964 1326 OFFCURVE",
"1112 1218 OFFCURVE",
"1180 1050 CURVE SMOOTH",
"1214 966 OFFCURVE",
"1231 872 OFFCURVE",
"1231 768 CURVE SMOOTH",
"1231 493 OFFCURVE",
"1139 242 OFFCURVE",
"935 94 CURVE SMOOTH",
"833 20 OFFCURVE",
"705 -17 OFFCURVE",
"551 -17 CURVE SMOOTH",
"322 -17 OFFCURVE",
"173 86 OFFCURVE",
"104 255 CURVE SMOOTH",
"69 339 OFFCURVE",
"52 437 OFFCURVE",
"52 548 CURVE SMOOTH",
"52 824 OFFCURVE",
"152 1073 OFFCURVE",
"357 1218 CURVE SMOOTH",
"459 1290 OFFCURVE",
"584 1326 OFFCURVE",
"732 1326 CURVE SMOOTH"
);
},
{
closed = 1;
nodes = (
"903 909 OFFCURVE",
"888 1023 OFFCURVE",
"857 1102 CURVE SMOOTH",
"826 1180 OFFCURVE",
"777 1219 OFFCURVE",
"709 1219 CURVE SMOOTH",
"572 1219 OFFCURVE",
"471 1084 OFFCURVE",
"419 881 CURVE SMOOTH",
"393 780 OFFCURVE",
"380 672 OFFCURVE",
"380 558 CURVE SMOOTH",
"380 285 OFFCURVE",
"425 88 OFFCURVE",
"576 88 CURVE SMOOTH",
"720 88 OFFCURVE",
"819 214 OFFCURVE",
"867 416 CURVE SMOOTH",
"891 517 OFFCURVE",
"903 631 OFFCURVE",
"903 758 CURVE SMOOTH"
);
},
{
closed = 1;
nodes = (
"736 1732 LINE",
"889 1732 LINE",
"1070 1425 LINE",
"963 1375 LINE",
"791 1553 LINE",
"513 1376 LINE",
"421 1425 LINE"
);
}
);
width = 1257;
}
);
note = Ocircumflex;
unicode = 00D4;
},
{
glyphname = Odieresis;
layers = (
{
layerId = "91C2604D-2087-4E0F-8837-A2CE9AC82E20";
name = "Bold Italic";
paths = (
{
closed = 1;
nodes = (
"424 1647 OFFCURVE",
"480 1706 OFFCURVE",
"569 1706 CURVE SMOOTH",
"646 1706 OFFCURVE",
"691 1658 OFFCURVE",
"691 1589 CURVE SMOOTH",
"691 1489 OFFCURVE",
"640 1428 OFFCURVE",
"540 1428 CURVE SMOOTH",
"472 1428 OFFCURVE",
"424 1482 OFFCURVE",
"424 1551 CURVE SMOOTH"
);
},
{
closed = 1;
nodes = (
"813 1647 OFFCURVE",
"869 1706 OFFCURVE",
"957 1706 CURVE SMOOTH",
"1036 1706 OFFCURVE",
"1079 1658 OFFCURVE",
"1079 1589 CURVE SMOOTH",
"1079 1489 OFFCURVE",
"1029 1428 OFFCURVE",
"929 1428 CURVE SMOOTH",
"861 1428 OFFCURVE",
"813 1482 OFFCURVE",
"813 1551 CURVE SMOOTH"
);
},
{
closed = 1;
nodes = (
"967 1326 OFFCURVE",
"1115 1218 OFFCURVE",
"1183 1050 CURVE SMOOTH",
"1217 966 OFFCURVE",
"1234 872 OFFCURVE",
"1234 768 CURVE SMOOTH",
"1234 493 OFFCURVE",
"1142 242 OFFCURVE",
"938 94 CURVE SMOOTH",
"836 20 OFFCURVE",
"708 -17 OFFCURVE",
"554 -17 CURVE SMOOTH",
"325 -17 OFFCURVE",
"176 86 OFFCURVE",
"107 255 CURVE SMOOTH",
"72 339 OFFCURVE",
"55 437 OFFCURVE",
"55 548 CURVE SMOOTH",
"55 824 OFFCURVE",
"155 1073 OFFCURVE",
"360 1218 CURVE SMOOTH",
"462 1290 OFFCURVE",
"587 1326 OFFCURVE",
"735 1326 CURVE SMOOTH"
);
},
{
closed = 1;
nodes = (
"906 909 OFFCURVE",
"891 1023 OFFCURVE",
"860 1102 CURVE SMOOTH",
"829 1180 OFFCURVE",
"780 1219 OFFCURVE",
"712 1219 CURVE SMOOTH",
"575 1219 OFFCURVE",
"474 1084 OFFCURVE",
"422 881 CURVE SMOOTH",
"396 780 OFFCURVE",
"383 672 OFFCURVE",
"383 558 CURVE SMOOTH",
"383 285 OFFCURVE",
"428 88 OFFCURVE",
"579 88 CURVE SMOOTH",
"723 88 OFFCURVE",
"822 214 OFFCURVE",
"870 416 CURVE SMOOTH",
"894 517 OFFCURVE",
"906 631 OFFCURVE",
"906 758 CURVE SMOOTH"
);
}
);
width = 1257;
}
);
note = Odieresis;
unicode = 00D6;
},
{
glyphname = Ograve;
layers = (
{
layerId = "91C2604D-2087-4E0F-8837-A2CE9AC82E20";
name = "Bold Italic";
paths = (
{
closed = 1;
nodes = (
"608 1732 LINE",
"845 1438 LINE",
"745 1350 LINE",
"686 1373 OFFCURVE",
"597 1425 OFFCURVE",
"525 1485 CURVE SMOOTH",
"489 1515 OFFCURVE",
"463 1544 OFFCURVE",
"447 1573 CURVE"
);
},
{
closed = 1;
nodes = (
"967 1326 OFFCURVE",
"1115 1218 OFFCURVE",
"1183 1050 CURVE SMOOTH",
"1217 966 OFFCURVE",
"1234 872 OFFCURVE",
"1234 768 CURVE SMOOTH",
"1234 493 OFFCURVE",
"1142 242 OFFCURVE",
"938 94 CURVE SMOOTH",
"836 20 OFFCURVE",
"708 -17 OFFCURVE",
"554 -17 CURVE SMOOTH",
"325 -17 OFFCURVE",
"176 86 OFFCURVE",
"107 255 CURVE SMOOTH",
"72 339 OFFCURVE",
"55 437 OFFCURVE",
"55 548 CURVE SMOOTH",
"55 824 OFFCURVE",
"155 1073 OFFCURVE",
"360 1218 CURVE SMOOTH",
"462 1290 OFFCURVE",
"587 1326 OFFCURVE",
"735 1326 CURVE SMOOTH"
);
},
{
closed = 1;
nodes = (
"906 909 OFFCURVE",
"891 1023 OFFCURVE",
"860 1102 CURVE SMOOTH",
"829 1180 OFFCURVE",
"780 1219 OFFCURVE",
"712 1219 CURVE SMOOTH",
"575 1219 OFFCURVE",
"474 1084 OFFCURVE",
"422 881 CURVE SMOOTH",
"396 780 OFFCURVE",
"383 672 OFFCURVE",
"383 558 CURVE SMOOTH",
"383 285 OFFCURVE",
"428 88 OFFCURVE",
"579 88 CURVE SMOOTH",
"723 88 OFFCURVE",
"822 214 OFFCURVE",
"870 416 CURVE SMOOTH",
"894 517 OFFCURVE",
"906 631 OFFCURVE",
"906 758 CURVE SMOOTH"
);
}
);
width = 1257;
}
);
note = Ograve;
unicode = 00D2;
},
{
glyphname = Ohungarumlaut;
layers = (
{
layerId = "91C2604D-2087-4E0F-8837-A2CE9AC82E20";
name = "Bold Italic";
paths = (
{
closed = 1;
nodes = (
"964 1326 OFFCURVE",
"1112 1218 OFFCURVE",
"1180 1050 CURVE SMOOTH",
"1214 966 OFFCURVE",
"1231 872 OFFCURVE",
"1231 768 CURVE SMOOTH",
"1231 493 OFFCURVE",
"1139 242 OFFCURVE",
"935 94 CURVE SMOOTH",
"833 20 OFFCURVE",
"705 -17 OFFCURVE",
"551 -17 CURVE SMOOTH",
"322 -17 OFFCURVE",
"173 86 OFFCURVE",
"104 255 CURVE SMOOTH",
"69 339 OFFCURVE",
"52 437 OFFCURVE",
"52 548 CURVE SMOOTH",
"52 824 OFFCURVE",
"152 1073 OFFCURVE",
"357 1218 CURVE SMOOTH",
"459 1290 OFFCURVE",
"584 1326 OFFCURVE",
"732 1326 CURVE SMOOTH"
);
},
{
closed = 1;
nodes = (
"903 909 OFFCURVE",
"888 1023 OFFCURVE",
"857 1102 CURVE SMOOTH",
"826 1180 OFFCURVE",
"777 1219 OFFCURVE",
"709 1219 CURVE SMOOTH",
"572 1219 OFFCURVE",
"471 1084 OFFCURVE",
"419 881 CURVE SMOOTH",
"393 780 OFFCURVE",
"380 672 OFFCURVE",
"380 558 CURVE SMOOTH",
"380 285 OFFCURVE",
"425 88 OFFCURVE",
"576 88 CURVE SMOOTH",
"720 88 OFFCURVE",
"819 214 OFFCURVE",
"867 416 CURVE SMOOTH",
"891 517 OFFCURVE",
"903 631 OFFCURVE",
"903 758 CURVE SMOOTH"
);
},
{
closed = 1;
nodes = (
"650 1732 LINE",
"790 1619 LINE",
"761 1554 OFFCURVE",
"686 1471 OFFCURVE",
"606 1411 CURVE SMOOTH",
"565 1381 OFFCURVE",
"529 1361 OFFCURVE",
"497 1350 CURVE",
"407 1415 LINE"
);
},
{
closed = 1;
nodes = (
"1071 1732 LINE",
"1209 1618 LINE",
"1169 1549 OFFCURVE",
"1098 1468 OFFCURVE",
"1022 1410 CURVE SMOOTH",
"983 1381 OFFCURVE",
"947 1361 OFFCURVE",
"914 1350 CURVE",
"829 1415 LINE"
);
}
);
width = 1257;
}
);
note = Ohungarumlaut;
unicode = 0150;
},
{
glyphname = Omacron;
layers = (
{
layerId = "91C2604D-2087-4E0F-8837-A2CE9AC82E20";
name = "Bold Italic";
paths = (
{
closed = 1;
nodes = (
"1006 1648 LINE",
"988 1468 LINE",
"497 1468 LINE",
"514 1648 LINE"
);
},
{
closed = 1;
nodes = (
"967 1326 OFFCURVE",
"1115 1218 OFFCURVE",
"1183 1050 CURVE SMOOTH",
"1217 966 OFFCURVE",
"1234 872 OFFCURVE",
"1234 768 CURVE SMOOTH",
"1234 493 OFFCURVE",
"1142 242 OFFCURVE",
"938 94 CURVE SMOOTH",
"836 20 OFFCURVE",
"708 -17 OFFCURVE",
"554 -17 CURVE SMOOTH",
"325 -17 OFFCURVE",
"176 86 OFFCURVE",
"107 255 CURVE SMOOTH",
"72 339 OFFCURVE",
"55 437 OFFCURVE",
"55 548 CURVE SMOOTH",
"55 824 OFFCURVE",
"155 1073 OFFCURVE",
"360 1218 CURVE SMOOTH",
"462 1290 OFFCURVE",
"587 1326 OFFCURVE",
"735 1326 CURVE SMOOTH"
);
},
{
closed = 1;
nodes = (
"906 909 OFFCURVE",
"891 1023 OFFCURVE",
"860 1102 CURVE SMOOTH",
"829 1180 OFFCURVE",
"780 1219 OFFCURVE",
"712 1219 CURVE SMOOTH",
"575 1219 OFFCURVE",
"474 1084 OFFCURVE",
"422 881 CURVE SMOOTH",
"396 780 OFFCURVE",
"383 672 OFFCURVE",
"383 558 CURVE SMOOTH",
"383 285 OFFCURVE",
"428 88 OFFCURVE",
"579 88 CURVE SMOOTH",
"723 88 OFFCURVE",
"822 214 OFFCURVE",
"870 416 CURVE SMOOTH",
"894 517 OFFCURVE",
"906 631 OFFCURVE",
"906 758 CURVE SMOOTH"
);
}
);
width = 1257;
}
);
note = Omacron;
unicode = 014C;
},
{
glyphname = Oslash;
layers = (
{
layerId = "91C2604D-2087-4E0F-8837-A2CE9AC82E20";
name = "Bold Italic";
paths = (
{
closed = 1;
nodes = (
"831 1328 OFFCURVE",
"914 1310 OFFCURVE",
"985 1274 CURVE",
"1102 1445 LINE",
"1178 1394 LINE",
"1059 1225 LINE",
"1178 1125 OFFCURVE",
"1234 961 OFFCURVE",
"1234 770 CURVE SMOOTH",
"1234 494 OFFCURVE",
"1142 243 OFFCURVE",
"938 96 CURVE SMOOTH",
"836 22 OFFCURVE",
"708 -15 OFFCURVE",
"555 -15 CURVE SMOOTH",
"450 -15 OFFCURVE",
"361 5 OFFCURVE",
"288 46 CURVE",
"180 -114 LINE",
"103 -63 LINE",
"217 99 LINE",
"108 198 OFFCURVE",
"56 355 OFFCURVE",
"56 550 CURVE SMOOTH",
"56 826 OFFCURVE",
"155 1075 OFFCURVE",
"360 1220 CURVE SMOOTH",
"462 1292 OFFCURVE",
"587 1328 OFFCURVE",
"735 1328 CURVE SMOOTH"
);
},
{
closed = 1;
nodes = (
"864 1092 LINE",
"833 1178 OFFCURVE",
"783 1221 OFFCURVE",
"712 1221 CURVE SMOOTH",
"576 1221 OFFCURVE",
"474 1086 OFFCURVE",
"423 883 CURVE SMOOTH",
"397 782 OFFCURVE",
"384 674 OFFCURVE",
"384 560 CURVE SMOOTH",
"384 471 OFFCURVE",
"389 396 OFFCURVE",
"398 333 CURVE"
);
},
{
closed = 1;
nodes = (
"906 852 OFFCURVE",
"901 930 OFFCURVE",
"890 993 CURVE",
"423 229 LINE",
"454 136 OFFCURVE",
"507 89 OFFCURVE",
"580 89 CURVE SMOOTH",
"723 89 OFFCURVE",
"822 216 OFFCURVE",
"870 417 CURVE SMOOTH",
"894 518 OFFCURVE",
"906 632 OFFCURVE",
"906 759 CURVE SMOOTH"
);
}
);
width = 1257;
}
);
note = Oslash;
unicode = 00D8;
},
{
glyphname = Oslashacute;
layers = (
{
layerId = "91C2604D-2087-4E0F-8837-A2CE9AC82E20";
name = "Bold Italic";
paths = (
{
closed = 1;
nodes = (
"831 1328 OFFCURVE",
"914 1310 OFFCURVE",
"985 1274 CURVE",
"1102 1445 LINE",
"1178 1394 LINE",
"1059 1225 LINE",
"1178 1125 OFFCURVE",
"1234 961 OFFCURVE",
"1234 770 CURVE SMOOTH",
"1234 494 OFFCURVE",
"1142 243 OFFCURVE",
"938 96 CURVE SMOOTH",
"836 22 OFFCURVE",
"708 -15 OFFCURVE",
"555 -15 CURVE SMOOTH",
"450 -15 OFFCURVE",
"361 5 OFFCURVE",
"288 46 CURVE",
"180 -114 LINE",
"103 -63 LINE",
"217 99 LINE",
"108 198 OFFCURVE",
"56 355 OFFCURVE",
"56 550 CURVE SMOOTH",
"56 826 OFFCURVE",
"155 1075 OFFCURVE",
"360 1220 CURVE SMOOTH",
"462 1292 OFFCURVE",
"587 1328 OFFCURVE",
"735 1328 CURVE SMOOTH"
);
},
{
closed = 1;
nodes = (
"864 1092 LINE",
"833 1178 OFFCURVE",
"783 1221 OFFCURVE",
"712 1221 CURVE SMOOTH",
"576 1221 OFFCURVE",
"474 1086 OFFCURVE",
"423 883 CURVE SMOOTH",
"397 782 OFFCURVE",
"384 674 OFFCURVE",
"384 560 CURVE SMOOTH",
"384 471 OFFCURVE",
"389 396 OFFCURVE",
"398 333 CURVE"
);
},
{
closed = 1;
nodes = (
"906 852 OFFCURVE",
"901 930 OFFCURVE",
"890 993 CURVE",
"423 229 LINE",
"454 136 OFFCURVE",
"507 89 OFFCURVE",
"580 89 CURVE SMOOTH",
"723 89 OFFCURVE",
"822 216 OFFCURVE",
"870 417 CURVE SMOOTH",
"894 518 OFFCURVE",
"906 632 OFFCURVE",
"906 759 CURVE SMOOTH"
);
},
{
closed = 1;
nodes = (
"885 1732 LINE",
"1046 1573 LINE",
"1018 1520 OFFCURVE",
"938 1453 OFFCURVE",
"855 1404 CURVE SMOOTH",
"813 1379 OFFCURVE",
"777 1361 OFFCURVE",
"748 1350 CURVE",
"648 1438 LINE"
);
}
);
width = 1257;
}
);
note = Oslashacute;
unicode = 01FE;
},
{
glyphname = Otilde;
layers = (
{
layerId = "91C2604D-2087-4E0F-8837-A2CE9AC82E20";
name = "Bold Italic";
paths = (
{
closed = 1;
nodes = (
"435 1549 LINE",
"454 1598 OFFCURVE",
"497 1646 OFFCURVE",
"558 1674 CURVE SMOOTH",
"588 1687 OFFCURVE",
"621 1694 OFFCURVE",
"656 1694 CURVE SMOOTH",
"721 1694 OFFCURVE",
"757 1668 OFFCURVE",
"805 1619 CURVE SMOOTH",
"844 1580 OFFCURVE",
"863 1565 OFFCURVE",
"896 1565 CURVE SMOOTH",
"952 1565 OFFCURVE",
"991 1603 OFFCURVE",
"1027 1651 CURVE",
"1103 1539 LINE",
"1083 1487 OFFCURVE",
"1037 1436 OFFCURVE",
"978 1406 CURVE SMOOTH",
"948 1391 OFFCURVE",
"918 1383 OFFCURVE",
"887 1383 CURVE SMOOTH",
"835 1383 OFFCURVE",
"797 1399 OFFCURVE",
"772 1419 CURVE",
"759 1428 OFFCURVE",
"745 1441 OFFCURVE",
"729 1457 CURVE SMOOTH",
"690 1494 OFFCURVE",
"669 1512 OFFCURVE",
"626 1512 CURVE SMOOTH",
"579 1512 OFFCURVE",
"542 1485 OFFCURVE",
"501 1442 CURVE"
);
},
{
closed = 1;
nodes = (
"967 1326 OFFCURVE",
"1115 1218 OFFCURVE",
"1183 1050 CURVE SMOOTH",
"1217 966 OFFCURVE",
"1234 872 OFFCURVE",
"1234 768 CURVE SMOOTH",
"1234 493 OFFCURVE",
"1142 242 OFFCURVE",
"938 94 CURVE SMOOTH",
"836 20 OFFCURVE",
"708 -17 OFFCURVE",
"554 -17 CURVE SMOOTH",
"325 -17 OFFCURVE",
"176 86 OFFCURVE",
"107 255 CURVE SMOOTH",
"72 339 OFFCURVE",
"55 437 OFFCURVE",
"55 548 CURVE SMOOTH",
"55 824 OFFCURVE",
"155 1073 OFFCURVE",
"360 1218 CURVE SMOOTH",
"462 1290 OFFCURVE",
"587 1326 OFFCURVE",
"735 1326 CURVE SMOOTH"
);
},
{
closed = 1;
nodes = (
"906 909 OFFCURVE",
"891 1023 OFFCURVE",
"860 1102 CURVE SMOOTH",
"829 1180 OFFCURVE",
"780 1219 OFFCURVE",
"712 1219 CURVE SMOOTH",
"575 1219 OFFCURVE",
"474 1084 OFFCURVE",
"422 881 CURVE SMOOTH",
"396 780 OFFCURVE",
"383 672 OFFCURVE",
"383 558 CURVE SMOOTH",
"383 285 OFFCURVE",
"428 88 OFFCURVE",
"579 88 CURVE SMOOTH",
"723 88 OFFCURVE",
"822 214 OFFCURVE",
"870 416 CURVE SMOOTH",
"894 517 OFFCURVE",
"906 631 OFFCURVE",
"906 758 CURVE SMOOTH"
);
}
);
width = 1257;
}
);
note = Otilde;
unicode = 00D5;
},
{
glyphname = OE;
layers = (
{
layerId = "91C2604D-2087-4E0F-8837-A2CE9AC82E20";
name = "Bold Italic";
paths = (
{
closed = 1;
nodes = (
"917 1326 OFFCURVE",
"1042 1264 OFFCURVE",
"1113 1140 CURVE",
"1134 1309 LINE",
"1966 1309 LINE",
"1935 991 LINE",
"1744 991 LINE",
"1715 1183 LINE",
"1423 1206 LINE",
"1361 746 LINE",
"1754 783 LINE",
"1720 581 LINE",
"1344 612 LINE",
"1276 117 LINE",
"1675 147 LINE",
"1776 402 LINE",
"1959 390 LINE",
"1899 0 LINE",
"968 0 LINE",
"986 142 LINE",
"882 36 OFFCURVE",
"740 -17 OFFCURVE",
"560 -17 CURVE SMOOTH",
"328 -17 OFFCURVE",
"177 86 OFFCURVE",
"106 255 CURVE SMOOTH",
"70 339 OFFCURVE",
"52 437 OFFCURVE",
"52 548 CURVE SMOOTH",
"52 825 OFFCURVE",
"151 1073 OFFCURVE",
"358 1218 CURVE SMOOTH",
"461 1290 OFFCURVE",
"589 1326 OFFCURVE",
"740 1326 CURVE SMOOTH"
);
},
{
closed = 1;
nodes = (
"929 909 OFFCURVE",
"912 1023 OFFCURVE",
"879 1102 CURVE SMOOTH",
"846 1180 OFFCURVE",
"792 1219 OFFCURVE",
"717 1219 CURVE SMOOTH",
"574 1219 OFFCURVE",
"467 1084 OFFCURVE",
"413 881 CURVE SMOOTH",
"386 780 OFFCURVE",
"372 672 OFFCURVE",
"372 558 CURVE SMOOTH",
"372 285 OFFCURVE",
"420 88 OFFCURVE",
"585 88 CURVE SMOOTH",
"736 88 OFFCURVE",
"840 214 OFFCURVE",
"891 416 CURVE SMOOTH",
"916 517 OFFCURVE",
"929 631 OFFCURVE",
"929 758 CURVE SMOOTH"
);
}
);
width = 1983;
}
);
note = OE;
unicode = 0152;
},
{
glyphname = P;
layers = (
{
layerId = "91C2604D-2087-4E0F-8837-A2CE9AC82E20";
name = "Bold Italic";
paths = (
{
closed = 1;
nodes = (
"117 117 LINE",
"261 1192 LINE",
"134 1214 LINE",
"146 1309 LINE",
"418 1309 LINE SMOOTH",
"455 1309 OFFCURVE",
"506 1311 OFFCURVE",
"570 1316 CURVE SMOOTH",
"629 1321 OFFCURVE",
"672 1323 OFFCURVE",
"699 1323 CURVE SMOOTH",
"934 1323 OFFCURVE",
"1072 1265 OFFCURVE",
"1134 1157 CURVE SMOOTH",
"1165 1102 OFFCURVE",
"1180 1034 OFFCURVE",
"1180 952 CURVE SMOOTH",
"1180 737 OFFCURVE",
"1076 582 OFFCURVE",
"892 502 CURVE SMOOTH",
"799 462 OFFCURVE",
"691 442 OFFCURVE",
"566 442 CURVE SMOOTH",
"519 442 OFFCURVE",
"485 443 OFFCURVE",
"465 445 CURVE",
"426 117 LINE",
"665 91 LINE",
"658 0 LINE",
"-11 0 LINE",
"-2 91 LINE"
);
},
{
closed = 1;
nodes = (
"574 556 LINE",
"695 556 OFFCURVE",
"786 630 OFFCURVE",
"834 754 CURVE SMOOTH",
"857 816 OFFCURVE",
"869 888 OFFCURVE",
"869 969 CURVE SMOOTH",
"869 1138 OFFCURVE",
"786 1214 OFFCURVE",
"643 1214 CURVE SMOOTH",
"618 1214 OFFCURVE",
"592 1212 OFFCURVE",
"567 1207 CURVE",
"479 562 LINE",
"500 557 OFFCURVE",
"523 555 OFFCURVE",
"548 555 CURVE"
);
}
);
width = 1153;
}
);
note = P;
unicode = 0050;
},
{
glyphname = Thorn;
layers = (
{
layerId = "91C2604D-2087-4E0F-8837-A2CE9AC82E20";
name = "Bold Italic";
paths = (
{
closed = 1;
nodes = (
"121 117 LINE",
"264 1192 LINE",
"139 1214 LINE",
"151 1309 LINE",
"732 1309 LINE",
"722 1214 LINE",
"567 1192 LINE",
"544 1019 LINE",
"572 1021 LINE SMOOTH",
"592 1022 OFFCURVE",
"668 1027 OFFCURVE",
"723 1027 CURVE SMOOTH",
"958 1027 OFFCURVE",
"1076 965 OFFCURVE",
"1120 879 CURVE SMOOTH",
"1141 836 OFFCURVE",
"1152 785 OFFCURVE",
"1152 727 CURVE SMOOTH",
"1152 584 OFFCURVE",
"1093 457 OFFCURVE",
"914 377 CURVE SMOOTH",
"824 336 OFFCURVE",
"701 316 OFFCURVE",
"546 316 CURVE SMOOTH",
"501 316 OFFCURVE",
"469 317 OFFCURVE",
"451 318 CURVE",
"424 117 LINE",
"574 91 LINE",
"567 0 LINE",
"-7 0 LINE",
"3 91 LINE"
);
},
{
closed = 1;
nodes = (
"465 433 LINE",
"496 433 LINE",
"562 433 LINE SMOOTH",
"662 433 OFFCURVE",
"748 471 OFFCURVE",
"797 552 CURVE SMOOTH",
"821 593 OFFCURVE",
"833 644 OFFCURVE",
"833 705 CURVE SMOOTH",
"833 842 OFFCURVE",
"759 915 OFFCURVE",
"630 915 CURVE SMOOTH",
"605 915 OFFCURVE",
"564 911 OFFCURVE",
"528 904 CURVE"
);
}
);
width = 1125;
}
);
note = Thorn;
unicode = 00DE;
},
{
glyphname = Q;
layers = (
{
layerId = "91C2604D-2087-4E0F-8837-A2CE9AC82E20";
name = "Bold Italic";
paths = (
{
closed = 1;
nodes = (
"964 1325 OFFCURVE",
"1113 1217 OFFCURVE",
"1181 1050 CURVE SMOOTH",
"1215 966 OFFCURVE",
"1232 872 OFFCURVE",
"1232 767 CURVE SMOOTH",
"1232 524 OFFCURVE",
"1160 299 OFFCURVE",
"1001 147 CURVE SMOOTH",
"922 70 OFFCURVE",
"822 20 OFFCURVE",
"703 -3 CURVE",
"703 -91 OFFCURVE",
"748 -131 OFFCURVE",
"817 -145 CURVE SMOOTH",
"852 -152 OFFCURVE",
"897 -156 OFFCURVE",
"952 -156 CURVE SMOOTH",
"1016 -156 OFFCURVE",
"1134 -143 OFFCURVE",
"1201 -122 CURVE",
"1202 -282 LINE",
"1141 -329 OFFCURVE",
"1024 -378 OFFCURVE",
"869 -378 CURVE SMOOTH",
"644 -378 OFFCURVE",
"535 -302 OFFCURVE",
"535 -157 CURVE SMOOTH",
"535 -117 OFFCURVE",
"544 -70 OFFCURVE",
"562 -17 CURVE",
"552 -18 LINE",
"323 -18 OFFCURVE",
"174 85 OFFCURVE",
"105 254 CURVE SMOOTH",
"70 338 OFFCURVE",
"53 436 OFFCURVE",
"53 547 CURVE SMOOTH",
"53 823 OFFCURVE",
"153 1073 OFFCURVE",
"358 1217 CURVE SMOOTH",
"460 1289 OFFCURVE",
"585 1325 OFFCURVE",
"733 1325 CURVE SMOOTH"
);
},
{
closed = 1;
nodes = (
"904 908 OFFCURVE",
"889 1022 OFFCURVE",
"858 1101 CURVE SMOOTH",
"827 1180 OFFCURVE",
"778 1219 OFFCURVE",
"710 1219 CURVE SMOOTH",
"573 1219 OFFCURVE",
"471 1083 OFFCURVE",
"420 880 CURVE SMOOTH",
"394 779 OFFCURVE",
"381 671 OFFCURVE",
"381 557 CURVE SMOOTH",
"381 284 OFFCURVE",
"426 87 OFFCURVE",
"577 87 CURVE SMOOTH",
"721 87 OFFCURVE",
"820 213 OFFCURVE",
"868 415 CURVE SMOOTH",
"892 516 OFFCURVE",
"904 630 OFFCURVE",
"904 757 CURVE SMOOTH"
);
}
);
width = 1259;
}
);
note = Q;
unicode = 0051;
},
{
glyphname = R;
layers = (
{
layerId = "91C2604D-2087-4E0F-8837-A2CE9AC82E20";
name = "Bold Italic";
paths = (
{
closed = 1;
nodes = (
"118 117 LINE",
"260 1192 LINE",
"135 1214 LINE",
"146 1309 LINE",
"414 1309 LINE SMOOTH",
"454 1309 OFFCURVE",
"499 1311 OFFCURVE",
"548 1315 CURVE SMOOTH",
"597 1319 OFFCURVE",
"658 1323 OFFCURVE",
"729 1323 CURVE SMOOTH",
"960 1323 OFFCURVE",
"1091 1269 OFFCURVE",
"1148 1174 CURVE SMOOTH",
"1176 1126 OFFCURVE",
"1190 1066 OFFCURVE",
"1190 994 CURVE SMOOTH",
"1190 811 OFFCURVE",
"1081 668 OFFCURVE",
"900 604 CURVE",
"935 563 OFFCURVE",
"975 464 OFFCURVE",
"1023 339 CURVE SMOOTH",
"1031 317 LINE",
"1046 286 LINE",
"1093 179 OFFCURVE",
"1113 139 OFFCURVE",
"1153 112 CURVE SMOOTH",
"1172 99 OFFCURVE",
"1198 92 OFFCURVE",
"1230 91 CURVE",
"1221 -1 LINE",
"864 1 LINE",
"855 0 OFFCURVE",
"847 10 OFFCURVE",
"838 29 CURVE SMOOTH",
"829 48 OFFCURVE",
"816 81 OFFCURVE",
"800 126 CURVE SMOOTH",
"787 162 LINE",
"748 269 LINE SMOOTH",
"715 362 OFFCURVE",
"690 431 OFFCURVE",
"673 478 CURVE SMOOTH",
"656 525 OFFCURVE",
"642 555 OFFCURVE",
"631 569 CURVE",
"474 568 LINE",
"417 117 LINE",
"575 91 LINE",
"570 0 LINE",
"-11 0 LINE",
"-3 91 LINE"
);
},
{
closed = 1;
nodes = (
"727 685 OFFCURVE",
"808 736 OFFCURVE",
"848 834 CURVE SMOOTH",
"888 932 OFFCURVE",
"889 1096 OFFCURVE",
"814 1164 CURVE SMOOTH",
"776 1197 OFFCURVE",
"724 1214 OFFCURVE",
"659 1214 CURVE SMOOTH",
"635 1214 OFFCURVE",
"588 1211 OFFCURVE",
"560 1206 CURVE",
"490 688 LINE",
"510 686 OFFCURVE",
"553 685 OFFCURVE",
"618 685 CURVE SMOOTH"
);
}
);
width = 1247;
}
);
note = R;
unicode = 0052;
},
{
glyphname = Racute;
layers = (
{
layerId = "91C2604D-2087-4E0F-8837-A2CE9AC82E20";
name = "Bold Italic";
paths = (
{
closed = 1;
nodes = (
"118 117 LINE",
"260 1192 LINE",
"135 1214 LINE",
"146 1309 LINE",
"414 1309 LINE SMOOTH",
"454 1309 OFFCURVE",
"499 1311 OFFCURVE",
"548 1315 CURVE SMOOTH",
"597 1319 OFFCURVE",
"658 1323 OFFCURVE",
"729 1323 CURVE SMOOTH",
"960 1323 OFFCURVE",
"1091 1269 OFFCURVE",
"1148 1174 CURVE SMOOTH",
"1176 1126 OFFCURVE",
"1190 1066 OFFCURVE",
"1190 994 CURVE SMOOTH",
"1190 811 OFFCURVE",
"1081 668 OFFCURVE",
"900 604 CURVE",
"935 563 OFFCURVE",
"975 464 OFFCURVE",
"1023 339 CURVE SMOOTH",
"1031 317 LINE",
"1046 286 LINE",
"1093 179 OFFCURVE",
"1113 139 OFFCURVE",
"1153 112 CURVE SMOOTH",
"1172 99 OFFCURVE",
"1198 92 OFFCURVE",
"1230 91 CURVE",
"1221 -1 LINE",
"864 1 LINE",
"855 0 OFFCURVE",
"847 10 OFFCURVE",
"838 29 CURVE SMOOTH",
"829 48 OFFCURVE",
"816 81 OFFCURVE",
"800 126 CURVE SMOOTH",
"787 162 LINE",
"748 269 LINE SMOOTH",
"715 362 OFFCURVE",
"690 431 OFFCURVE",
"673 478 CURVE SMOOTH",
"656 525 OFFCURVE",
"642 555 OFFCURVE",
"631 569 CURVE",
"474 568 LINE",
"417 117 LINE",
"575 91 LINE",
"570 0 LINE",
"-11 0 LINE",
"-3 91 LINE"
);
},
{
closed = 1;
nodes = (
"727 685 OFFCURVE",
"808 736 OFFCURVE",
"848 834 CURVE SMOOTH",
"888 932 OFFCURVE",
"889 1096 OFFCURVE",
"814 1164 CURVE SMOOTH",
"776 1197 OFFCURVE",
"724 1214 OFFCURVE",
"659 1214 CURVE SMOOTH",
"635 1214 OFFCURVE",
"588 1211 OFFCURVE",
"560 1206 CURVE",
"490 688 LINE",
"510 686 OFFCURVE",
"553 685 OFFCURVE",
"618 685 CURVE SMOOTH"
);
},
{
closed = 1;
nodes = (
"915 1732 LINE",
"1076 1573 LINE",
"1048 1520 OFFCURVE",
"968 1453 OFFCURVE",
"885 1404 CURVE SMOOTH",
"843 1379 OFFCURVE",
"807 1361 OFFCURVE",
"778 1350 CURVE",
"678 1438 LINE"
);
}
);
width = 1247;
}
);
note = Racute;
unicode = 0154;
},
{
glyphname = Rcaron;
layers = (
{
layerId = "91C2604D-2087-4E0F-8837-A2CE9AC82E20";
name = "Bold Italic";
paths = (
{
closed = 1;
nodes = (
"608 1732 LINE",
"781 1584 LINE",
"1058 1732 LINE",
"1150 1683 LINE",
"834 1375 LINE",
"682 1375 LINE",
"501 1682 LINE"
);
},
{
closed = 1;
nodes = (
"118 117 LINE",
"260 1192 LINE",
"135 1214 LINE",
"146 1309 LINE",
"414 1309 LINE SMOOTH",
"454 1309 OFFCURVE",
"499 1311 OFFCURVE",
"548 1315 CURVE SMOOTH",
"597 1319 OFFCURVE",
"658 1323 OFFCURVE",
"729 1323 CURVE SMOOTH",
"960 1323 OFFCURVE",
"1091 1269 OFFCURVE",
"1148 1174 CURVE SMOOTH",
"1176 1126 OFFCURVE",
"1190 1066 OFFCURVE",
"1190 994 CURVE SMOOTH",
"1190 811 OFFCURVE",
"1081 668 OFFCURVE",
"900 604 CURVE",
"935 563 OFFCURVE",
"975 464 OFFCURVE",
"1023 339 CURVE SMOOTH",
"1031 317 LINE",
"1046 286 LINE",
"1093 179 OFFCURVE",
"1113 139 OFFCURVE",
"1153 112 CURVE SMOOTH",
"1172 99 OFFCURVE",
"1198 92 OFFCURVE",
"1230 91 CURVE",
"1221 -1 LINE",
"864 1 LINE",
"855 0 OFFCURVE",
"847 10 OFFCURVE",
"838 29 CURVE SMOOTH",
"829 48 OFFCURVE",
"816 81 OFFCURVE",
"800 126 CURVE SMOOTH",
"787 162 LINE",
"748 269 LINE SMOOTH",
"715 362 OFFCURVE",
"690 431 OFFCURVE",
"673 478 CURVE SMOOTH",
"656 525 OFFCURVE",
"642 555 OFFCURVE",
"631 569 CURVE",
"474 568 LINE",
"417 117 LINE",
"575 91 LINE",
"570 0 LINE",
"-11 0 LINE",
"-3 91 LINE"
);
},
{
closed = 1;
nodes = (
"727 685 OFFCURVE",
"808 736 OFFCURVE",
"848 834 CURVE SMOOTH",
"888 932 OFFCURVE",
"889 1096 OFFCURVE",
"814 1164 CURVE SMOOTH",
"776 1197 OFFCURVE",
"724 1214 OFFCURVE",
"659 1214 CURVE SMOOTH",
"635 1214 OFFCURVE",
"588 1211 OFFCURVE",
"560 1206 CURVE",
"490 688 LINE",
"510 686 OFFCURVE",
"553 685 OFFCURVE",
"618 685 CURVE SMOOTH"
);
}
);
width = 1247;
}
);
note = Rcaron;
unicode = 0158;
},
{
glyphname = Rcommaaccent;
layers = (
{
layerId = "91C2604D-2087-4E0F-8837-A2CE9AC82E20";
name = "Bold Italic";
paths = (
{
closed = 1;
nodes = (
"502 -399 LINE",
"530 -384 OFFCURVE",
"561 -343 OFFCURVE",
"561 -288 CURVE SMOOTH",
"561 -244 OFFCURVE",
"536 -205 OFFCURVE",
"503 -201 CURVE",
"513 -121 LINE",
"645 -32 LINE",
"697 -43 OFFCURVE",
"740 -79 OFFCURVE",
"764 -130 CURVE",
"775 -156 OFFCURVE",
"781 -184 OFFCURVE",
"781 -214 CURVE SMOOTH",
"781 -307 OFFCURVE",
"737 -388 OFFCURVE",
"677 -436 CURVE SMOOTH",
"646 -461 OFFCURVE",
"616 -476 OFFCURVE",
"586 -482 CURVE",
"500 -421 LINE"
);
},
{
closed = 1;
nodes = (
"118 117 LINE",
"260 1192 LINE",
"135 1214 LINE",
"146 1309 LINE",
"414 1309 LINE SMOOTH",
"454 1309 OFFCURVE",
"499 1311 OFFCURVE",
"548 1315 CURVE SMOOTH",
"597 1319 OFFCURVE",
"658 1323 OFFCURVE",
"729 1323 CURVE SMOOTH",
"960 1323 OFFCURVE",
"1091 1269 OFFCURVE",
"1148 1174 CURVE SMOOTH",
"1176 1126 OFFCURVE",
"1190 1066 OFFCURVE",
"1190 994 CURVE SMOOTH",
"1190 811 OFFCURVE",
"1081 668 OFFCURVE",
"900 604 CURVE",
"935 563 OFFCURVE",
"975 464 OFFCURVE",
"1023 339 CURVE SMOOTH",
"1031 317 LINE",
"1046 286 LINE",
"1093 179 OFFCURVE",
"1113 139 OFFCURVE",
"1153 112 CURVE SMOOTH",
"1172 99 OFFCURVE",
"1198 92 OFFCURVE",
"1230 91 CURVE",
"1221 -1 LINE",
"864 1 LINE",
"855 0 OFFCURVE",
"847 10 OFFCURVE",
"838 29 CURVE SMOOTH",
"829 48 OFFCURVE",
"816 81 OFFCURVE",
"800 126 CURVE SMOOTH",
"787 162 LINE",
"748 269 LINE SMOOTH",
"715 362 OFFCURVE",
"690 431 OFFCURVE",
"673 478 CURVE SMOOTH",
"656 525 OFFCURVE",
"642 555 OFFCURVE",
"631 569 CURVE",
"474 568 LINE",
"417 117 LINE",
"575 91 LINE",
"570 0 LINE",
"-11 0 LINE",
"-3 91 LINE"
);
},
{
closed = 1;
nodes = (
"727 685 OFFCURVE",
"808 736 OFFCURVE",
"848 834 CURVE SMOOTH",
"888 932 OFFCURVE",
"889 1096 OFFCURVE",
"814 1164 CURVE SMOOTH",
"776 1197 OFFCURVE",
"724 1214 OFFCURVE",
"659 1214 CURVE SMOOTH",
"635 1214 OFFCURVE",
"588 1211 OFFCURVE",
"560 1206 CURVE",
"490 688 LINE",
"510 686 OFFCURVE",
"553 685 OFFCURVE",
"618 685 CURVE SMOOTH"
);
}
);
width = 1247;
}
);
note = Rcommaaccent;
unicode = 0156;
},
{
glyphname = S;
layers = (
{
layerId = "91C2604D-2087-4E0F-8837-A2CE9AC82E20";
name = "Bold Italic";
paths = (
{
closed = 1;
nodes = (
"241 338 LINE",
"250 144 LINE",
"295 109 OFFCURVE",
"350 91 OFFCURVE",
"415 91 CURVE SMOOTH",
"576 91 OFFCURVE",
"644 159 OFFCURVE",
"644 266 CURVE SMOOTH",
"644 339 OFFCURVE",
"616 394 OFFCURVE",
"553 450 CURVE SMOOTH",
"521 477 OFFCURVE",
"477 509 OFFCURVE",
"421 544 CURVE SMOOTH",
"248 656 OFFCURVE",
"142 776 OFFCURVE",
"142 941 CURVE SMOOTH",
"142 1104 OFFCURVE",
"230 1221 OFFCURVE",
"378 1281 CURVE SMOOTH",
"451 1310 OFFCURVE",
"536 1325 OFFCURVE",
"631 1325 CURVE SMOOTH",
"786 1325 OFFCURVE",
"901 1304 OFFCURVE",
"974 1262 CURVE",
"928 1002 LINE",
"764 1002 LINE",
"738 1176 LINE",
"701 1204 OFFCURVE",
"666 1217 OFFCURVE",
"610 1217 CURVE SMOOTH",
"487 1217 OFFCURVE",
"415 1156 OFFCURVE",
"415 1064 CURVE SMOOTH",
"415 983 OFFCURVE",
"448 922 OFFCURVE",
"517 865 CURVE SMOOTH",
"551 836 OFFCURVE",
"598 803 OFFCURVE",
"658 765 CURVE SMOOTH",
"822 661 OFFCURVE",
"926 540 OFFCURVE",
"926 380 CURVE SMOOTH",
"926 237 OFFCURVE",
"852 108 OFFCURVE",
"701 35 CURVE SMOOTH",
"625 -2 OFFCURVE",
"532 -20 OFFCURVE",
"421 -20 CURVE SMOOTH",
"301 -20 OFFCURVE",
"178 2 OFFCURVE",
"95 28 CURVE SMOOTH",
"54 41 OFFCURVE",
"26 53 OFFCURVE",
"12 64 CURVE",
"64 338 LINE"
);
},
{
closed = 1;
nodes = (
"172 237 LINE",
"173 236 OFFCURVE",
"175 232 OFFCURVE",
"179 225 CURVE"
);
}
);
width = 995;
}
);
note = S;
unicode = 0053;
},
{
glyphname = Sacute;
layers = (
{
layerId = "91C2604D-2087-4E0F-8837-A2CE9AC82E20";
name = "Bold Italic";
paths = (
{
closed = 1;
nodes = (
"241 338 LINE",
"250 144 LINE",
"295 109 OFFCURVE",
"350 91 OFFCURVE",
"415 91 CURVE SMOOTH",
"576 91 OFFCURVE",
"644 159 OFFCURVE",
"644 266 CURVE SMOOTH",
"644 339 OFFCURVE",
"616 394 OFFCURVE",
"553 450 CURVE SMOOTH",
"521 477 OFFCURVE",
"477 509 OFFCURVE",
"421 544 CURVE SMOOTH",
"248 656 OFFCURVE",
"142 776 OFFCURVE",
"142 941 CURVE SMOOTH",
"142 1104 OFFCURVE",
"230 1221 OFFCURVE",
"378 1281 CURVE SMOOTH",
"451 1310 OFFCURVE",
"536 1325 OFFCURVE",
"631 1325 CURVE SMOOTH",
"786 1325 OFFCURVE",
"901 1304 OFFCURVE",
"974 1262 CURVE",
"928 1002 LINE",
"764 1002 LINE",
"738 1176 LINE",
"701 1204 OFFCURVE",
"666 1217 OFFCURVE",
"610 1217 CURVE SMOOTH",
"487 1217 OFFCURVE",
"415 1156 OFFCURVE",
"415 1064 CURVE SMOOTH",
"415 983 OFFCURVE",
"448 922 OFFCURVE",
"517 865 CURVE SMOOTH",
"551 836 OFFCURVE",
"598 803 OFFCURVE",
"658 765 CURVE SMOOTH",
"822 661 OFFCURVE",
"926 540 OFFCURVE",
"926 380 CURVE SMOOTH",
"926 237 OFFCURVE",
"852 108 OFFCURVE",
"701 35 CURVE SMOOTH",
"625 -2 OFFCURVE",
"532 -20 OFFCURVE",
"421 -20 CURVE SMOOTH",
"301 -20 OFFCURVE",
"178 2 OFFCURVE",
"95 28 CURVE SMOOTH",
"54 41 OFFCURVE",
"26 53 OFFCURVE",
"12 64 CURVE",
"64 338 LINE"
);
},
{
closed = 1;
nodes = (
"172 237 LINE",
"173 236 OFFCURVE",
"175 232 OFFCURVE",
"179 225 CURVE"
);
},
{
closed = 1;
nodes = (
"764 1732 LINE",
"925 1573 LINE",
"897 1520 OFFCURVE",
"817 1453 OFFCURVE",
"734 1404 CURVE SMOOTH",
"692 1379 OFFCURVE",
"656 1361 OFFCURVE",
"627 1350 CURVE",
"527 1438 LINE"
);
}
);
width = 995;
}
);
note = Sacute;
unicode = 015A;
},
{
glyphname = Scaron;
layers = (
{
layerId = "91C2604D-2087-4E0F-8837-A2CE9AC82E20";
name = "Bold Italic";
paths = (
{
closed = 1;
nodes = (
"241 338 LINE",
"250 144 LINE",
"295 109 OFFCURVE",
"350 91 OFFCURVE",
"415 91 CURVE SMOOTH",
"576 91 OFFCURVE",
"644 159 OFFCURVE",
"644 266 CURVE SMOOTH",
"644 339 OFFCURVE",
"616 394 OFFCURVE",
"553 450 CURVE SMOOTH",
"521 477 OFFCURVE",
"477 509 OFFCURVE",
"421 544 CURVE SMOOTH",
"248 656 OFFCURVE",
"142 776 OFFCURVE",
"142 941 CURVE SMOOTH",
"142 1104 OFFCURVE",
"230 1221 OFFCURVE",
"378 1281 CURVE SMOOTH",
"451 1310 OFFCURVE",
"536 1325 OFFCURVE",
"631 1325 CURVE SMOOTH",
"786 1325 OFFCURVE",
"901 1304 OFFCURVE",
"974 1262 CURVE",
"928 1002 LINE",
"764 1002 LINE",
"738 1176 LINE",
"701 1204 OFFCURVE",
"666 1217 OFFCURVE",
"610 1217 CURVE SMOOTH",
"487 1217 OFFCURVE",
"415 1156 OFFCURVE",
"415 1064 CURVE SMOOTH",
"415 983 OFFCURVE",
"448 922 OFFCURVE",
"517 865 CURVE SMOOTH",
"551 836 OFFCURVE",
"598 803 OFFCURVE",
"658 765 CURVE SMOOTH",
"822 661 OFFCURVE",
"926 540 OFFCURVE",
"926 380 CURVE SMOOTH",
"926 237 OFFCURVE",
"852 108 OFFCURVE",
"701 35 CURVE SMOOTH",
"625 -2 OFFCURVE",
"532 -20 OFFCURVE",
"421 -20 CURVE SMOOTH",
"301 -20 OFFCURVE",
"178 2 OFFCURVE",
"95 28 CURVE SMOOTH",
"54 41 OFFCURVE",
"26 53 OFFCURVE",
"12 64 CURVE",
"64 338 LINE"
);
},
{
closed = 1;
nodes = (
"172 237 LINE",
"173 236 OFFCURVE",
"175 232 OFFCURVE",
"179 225 CURVE"
);
},
{
closed = 1;
nodes = (
"458 1732 LINE",
"631 1584 LINE",
"908 1732 LINE",
"1000 1683 LINE",
"684 1375 LINE",
"532 1375 LINE",
"351 1682 LINE"
);
}
);
width = 995;
}
);
note = Scaron;
unicode = 0160;
},
{
glyphname = Scedilla;
layers = (
{
layerId = "91C2604D-2087-4E0F-8837-A2CE9AC82E20";
name = "Bold Italic";
paths = (
{
closed = 1;
nodes = (
"487 1217 OFFCURVE",
"415 1156 OFFCURVE",
"415 1064 CURVE SMOOTH",
"415 983 OFFCURVE",
"448 922 OFFCURVE",
"517 865 CURVE SMOOTH",
"551 836 OFFCURVE",
"598 803 OFFCURVE",
"658 765 CURVE SMOOTH",
"822 661 OFFCURVE",
"926 540 OFFCURVE",
"926 380 CURVE SMOOTH",
"926 245 OFFCURVE",
"860 123 OFFCURVE",
"724 48 CURVE SMOOTH",
"656 10 OFFCURVE",
"573 -12 OFFCURVE",
"475 -18 CURVE",
"491 -70 OFFCURVE",
"503 -149 OFFCURVE",
"503 -205 CURVE SMOOTH",
"503 -340 OFFCURVE",
"427 -416 OFFCURVE",
"247 -416 CURVE SMOOTH",
"194 -416 OFFCURVE",
"93 -405 OFFCURVE",
"77 -392 CURVE",
"107 -261 LINE",
"122 -269 OFFCURVE",
"147 -274 OFFCURVE",
"174 -274 CURVE SMOOTH",
"269 -274 OFFCURVE",
"327 -236 OFFCURVE",
"331 -132 CURVE",
"332 -125 OFFCURVE",
"332 -115 OFFCURVE",
"332 -102 CURVE SMOOTH",
"332 -70 OFFCURVE",
"330 -41 OFFCURVE",
"325 -15 CURVE",
"229 -7 OFFCURVE",
"137 13 OFFCURVE",
"75 35 CURVE SMOOTH",
"44 46 OFFCURVE",
"23 55 OFFCURVE",
"12 64 CURVE",
"64 338 LINE",
"241 338 LINE",
"250 144 LINE",
"295 109 OFFCURVE",
"350 91 OFFCURVE",
"415 91 CURVE SMOOTH",
"576 91 OFFCURVE",
"644 159 OFFCURVE",
"644 266 CURVE SMOOTH",
"644 339 OFFCURVE",
"616 394 OFFCURVE",
"553 450 CURVE SMOOTH",
"521 477 OFFCURVE",
"477 509 OFFCURVE",
"421 544 CURVE SMOOTH",
"248 656 OFFCURVE",
"142 776 OFFCURVE",
"142 941 CURVE SMOOTH",
"142 1104 OFFCURVE",
"230 1221 OFFCURVE",
"378 1281 CURVE SMOOTH",
"451 1310 OFFCURVE",
"536 1325 OFFCURVE",
"631 1325 CURVE SMOOTH",
"786 1325 OFFCURVE",
"901 1304 OFFCURVE",
"974 1262 CURVE",
"928 1002 LINE",
"764 1002 LINE",
"738 1176 LINE",
"701 1204 OFFCURVE",
"666 1217 OFFCURVE",
"610 1217 CURVE SMOOTH"
);
},
{
closed = 1;
nodes = (
"172 237 LINE",
"173 236 OFFCURVE",
"175 232 OFFCURVE",
"179 225 CURVE"
);
}
);
width = 995;
}
);
note = Scedilla;
unicode = 015E;
},
{
glyphname = Scircumflex;
layers = (
{
layerId = "91C2604D-2087-4E0F-8837-A2CE9AC82E20";
name = "Bold Italic";
paths = (
{
closed = 1;
nodes = (
"241 338 LINE",
"250 144 LINE",
"295 109 OFFCURVE",
"350 91 OFFCURVE",
"415 91 CURVE SMOOTH",
"576 91 OFFCURVE",
"644 159 OFFCURVE",
"644 266 CURVE SMOOTH",
"644 339 OFFCURVE",
"616 394 OFFCURVE",
"553 450 CURVE SMOOTH",
"521 477 OFFCURVE",
"477 509 OFFCURVE",
"421 544 CURVE SMOOTH",
"248 656 OFFCURVE",
"142 776 OFFCURVE",
"142 941 CURVE SMOOTH",
"142 1104 OFFCURVE",
"230 1221 OFFCURVE",
"378 1281 CURVE SMOOTH",
"451 1310 OFFCURVE",
"536 1325 OFFCURVE",
"631 1325 CURVE SMOOTH",
"786 1325 OFFCURVE",
"901 1304 OFFCURVE",
"974 1262 CURVE",
"928 1002 LINE",
"764 1002 LINE",
"738 1176 LINE",
"701 1204 OFFCURVE",
"666 1217 OFFCURVE",
"610 1217 CURVE SMOOTH",
"487 1217 OFFCURVE",
"415 1156 OFFCURVE",
"415 1064 CURVE SMOOTH",
"415 983 OFFCURVE",
"448 922 OFFCURVE",
"517 865 CURVE SMOOTH",
"551 836 OFFCURVE",
"598 803 OFFCURVE",
"658 765 CURVE SMOOTH",
"822 661 OFFCURVE",
"926 540 OFFCURVE",
"926 380 CURVE SMOOTH",
"926 237 OFFCURVE",
"852 108 OFFCURVE",
"701 35 CURVE SMOOTH",
"625 -2 OFFCURVE",
"532 -20 OFFCURVE",
"421 -20 CURVE SMOOTH",
"301 -20 OFFCURVE",
"178 2 OFFCURVE",
"95 28 CURVE SMOOTH",
"54 41 OFFCURVE",
"26 53 OFFCURVE",
"12 64 CURVE",
"64 338 LINE"
);
},
{
closed = 1;
nodes = (
"172 237 LINE",
"173 236 OFFCURVE",
"175 232 OFFCURVE",
"179 225 CURVE"
);
},
{
closed = 1;
nodes = (
"613 1732 LINE",
"766 1732 LINE",
"947 1425 LINE",
"840 1375 LINE",
"668 1553 LINE",
"390 1376 LINE",
"298 1425 LINE"
);
}
);
width = 995;
}
);
note = Scircumflex;
unicode = 015C;
},
{
glyphname = Scommaaccent;
layers = (
{
layerId = "91C2604D-2087-4E0F-8837-A2CE9AC82E20";
name = "Bold Italic";
paths = (
{
closed = 1;
nodes = (
"267 -399 LINE",
"295 -384 OFFCURVE",
"326 -343 OFFCURVE",
"326 -288 CURVE SMOOTH",
"326 -244 OFFCURVE",
"301 -205 OFFCURVE",
"268 -201 CURVE",
"278 -121 LINE",
"410 -32 LINE",
"462 -43 OFFCURVE",
"505 -79 OFFCURVE",
"529 -130 CURVE",
"540 -156 OFFCURVE",
"546 -184 OFFCURVE",
"546 -214 CURVE SMOOTH",
"546 -307 OFFCURVE",
"502 -388 OFFCURVE",
"442 -436 CURVE SMOOTH",
"411 -461 OFFCURVE",
"381 -476 OFFCURVE",
"351 -482 CURVE",
"265 -421 LINE"
);
},
{
closed = 1;
nodes = (
"241 338 LINE",
"250 144 LINE",
"295 109 OFFCURVE",
"350 91 OFFCURVE",
"415 91 CURVE SMOOTH",
"576 91 OFFCURVE",
"644 159 OFFCURVE",
"644 266 CURVE SMOOTH",
"644 339 OFFCURVE",
"616 394 OFFCURVE",
"553 450 CURVE SMOOTH",
"521 477 OFFCURVE",
"477 509 OFFCURVE",
"421 544 CURVE SMOOTH",
"248 656 OFFCURVE",
"142 776 OFFCURVE",
"142 941 CURVE SMOOTH",
"142 1104 OFFCURVE",
"230 1221 OFFCURVE",
"378 1281 CURVE SMOOTH",
"451 1310 OFFCURVE",
"536 1325 OFFCURVE",
"631 1325 CURVE SMOOTH",
"786 1325 OFFCURVE",
"901 1304 OFFCURVE",
"974 1262 CURVE",
"928 1002 LINE",
"764 1002 LINE",
"738 1176 LINE",
"701 1204 OFFCURVE",
"666 1217 OFFCURVE",
"610 1217 CURVE SMOOTH",
"487 1217 OFFCURVE",
"415 1156 OFFCURVE",
"415 1064 CURVE SMOOTH",
"415 983 OFFCURVE",
"448 922 OFFCURVE",
"517 865 CURVE SMOOTH",
"551 836 OFFCURVE",
"598 803 OFFCURVE",
"658 765 CURVE SMOOTH",
"822 661 OFFCURVE",
"926 540 OFFCURVE",
"926 380 CURVE SMOOTH",
"926 237 OFFCURVE",
"852 108 OFFCURVE",
"701 35 CURVE SMOOTH",
"625 -2 OFFCURVE",
"532 -20 OFFCURVE",
"421 -20 CURVE SMOOTH",
"301 -20 OFFCURVE",
"178 2 OFFCURVE",
"95 28 CURVE SMOOTH",
"54 41 OFFCURVE",
"26 53 OFFCURVE",
"12 64 CURVE",
"64 338 LINE"
);
},
{
closed = 1;
nodes = (
"172 237 LINE",
"173 236 OFFCURVE",
"175 232 OFFCURVE",
"179 225 CURVE"
);
}
);
width = 995;
}
);
note = Scommaaccent;
unicode = 0218;
},
{
glyphname = uni1E9E;
layers = (
{
layerId = "91C2604D-2087-4E0F-8837-A2CE9AC82E20";
name = "Bold Italic";
paths = (
{
closed = 1;
nodes = (
"918 792 LINE",
"1107 741 OFFCURVE",
"1243 624 OFFCURVE",
"1243 413 CURVE SMOOTH",
"1243 238 OFFCURVE",
"1154 110 OFFCURVE",
"1016 44 CURVE SMOOTH",
"947 11 OFFCURVE",
"871 -6 OFFCURVE",
"789 -6 CURVE SMOOTH",
"717 -6 OFFCURVE",
"659 7 OFFCURVE",
"579 28 CURVE SMOOTH",
"539 40 OFFCURVE",
"510 46 OFFCURVE",
"493 47 CURVE",
"537 336 LINE",
"676 336 LINE",
"691 158 LINE",
"707 115 OFFCURVE",
"746 92 OFFCURVE",
"802 92 CURVE SMOOTH",
"885 92 OFFCURVE",
"939 179 OFFCURVE",
"939 359 CURVE SMOOTH",
"939 502 OFFCURVE",
"823 605 OFFCURVE",
"687 686 CURVE",
"697 748 LINE",
"958 1092 LINE",
"958 1140 OFFCURVE",
"925 1183 OFFCURVE",
"869 1207 CURVE",
"840 1218 OFFCURVE",
"809 1224 OFFCURVE",
"774 1224 CURVE SMOOTH",
"587 1224 OFFCURVE",
"496 1092 OFFCURVE",
"460 832 CURVE SMOOTH",
"346 0 LINE",
"-60 0 LINE",
"-51 91 LINE",
"58 117 LINE",
"151 798 LINE SMOOTH",
"175 994 OFFCURVE",
"296 1166 OFFCURVE",
"486 1260 CURVE SMOOTH",
"581 1307 OFFCURVE",
"686 1330 OFFCURVE",
"803 1330 CURVE SMOOTH",
"1023 1330 OFFCURVE",
"1147 1270 OFFCURVE",
"1195 1202 CURVE",
"1187 1134 LINE"
);
}
);
width = 1257;
}
);
note = uni1E9E;
unicode = 1E9E;
},
{
glyphname = uni018F;
layers = (
{
layerId = "91C2604D-2087-4E0F-8837-A2CE9AC82E20";
name = "Bold Italic";
paths = (
{
closed = 1;
nodes = (
"1135 489 OFFCURVE",
"1012 227 OFFCURVE",
"819 86 CURVE SMOOTH",
"722 15 OFFCURVE",
"618 -20 OFFCURVE",
"505 -20 CURVE SMOOTH",
"326 -20 OFFCURVE",
"193 50 OFFCURVE",
"124 179 CURVE SMOOTH",
"89 244 OFFCURVE",
"72 321 OFFCURVE",
"72 412 CURVE SMOOTH",
"72 505 OFFCURVE",
"93 615 OFFCURVE",
"114 670 CURVE",
"835 670 LINE",
"837 694 LINE",
"838 727 OFFCURVE",
"838 752 OFFCURVE",
"838 767 CURVE SMOOTH",
"838 1051 OFFCURVE",
"759 1225 OFFCURVE",
"592 1225 CURVE SMOOTH",
"497 1225 OFFCURVE",
"442 1196 OFFCURVE",
"414 1135 CURVE SMOOTH",
"332 959 LINE",
"171 959 LINE",
"209 1244 LINE",
"237 1244 OFFCURVE",
"258 1250 OFFCURVE",
"307 1266 CURVE SMOOTH",
"408 1301 OFFCURVE",
"503 1323 OFFCURVE",
"686 1323 CURVE SMOOTH",
"865 1323 OFFCURVE",
"1004 1232 OFFCURVE",
"1079 1073 CURVE SMOOTH",
"1116 993 OFFCURVE",
"1135 901 OFFCURVE",
"1135 796 CURVE SMOOTH"
);
},
{
closed = 1;
nodes = (
"373 550 LINE",
"356 477 OFFCURVE",
"349 438 OFFCURVE",
"349 383 CURVE SMOOTH",
"349 199 OFFCURVE",
"412 95 OFFCURVE",
"544 95 CURVE SMOOTH",
"612 95 OFFCURVE",
"671 131 OFFCURVE",
"721 203 CURVE SMOOTH",
"771 274 OFFCURVE",
"806 390 OFFCURVE",
"825 550 CURVE"
);
}
);
width = 1158;
}
);
note = uni018F;
unicode = 018F;
},
{
glyphname = T;
layers = (
{
layerId = "91C2604D-2087-4E0F-8837-A2CE9AC82E20";
name = "Bold Italic";
paths = (
{
closed = 1;
nodes = (
"426 117 LINE",
"570 1206 LINE",
"365 1183 LINE",
"223 806 LINE",
"61 806 LINE",
"146 1309 LINE",
"1324 1309 LINE",
"1251 808 LINE",
"1096 806 LINE",
"1080 1183 LINE",
"874 1206 LINE",
"728 117 LINE",
"973 91 LINE",
"964 0 LINE",
"200 0 LINE",
"211 91 LINE"
);
}
);
width = 1244;
}
);
note = T;
unicode = 0054;
},
{
glyphname = Tbar;
layers = (
{
layerId = "91C2604D-2087-4E0F-8837-A2CE9AC82E20";
name = "Bold Italic";
paths = (
{
closed = 1;
nodes = (
"505 714 LINE",
"570 1206 LINE",
"365 1183 LINE",
"223 806 LINE",
"61 806 LINE",
"146 1309 LINE",
"1324 1309 LINE",
"1251 808 LINE",
"1096 806 LINE",
"1080 1183 LINE",
"874 1206 LINE",
"808 714 LINE",
"1010 714 LINE",
"997 585 LINE",
"790 585 LINE",
"728 117 LINE",
"973 91 LINE",
"964 0 LINE",
"200 0 LINE",
"211 91 LINE",
"426 117 LINE",
"488 585 LINE",
"297 585 LINE",
"310 714 LINE"
);
}
);
width = 1247;
}
);
note = Tbar;
unicode = 0166;
},
{
glyphname = Tcaron;
layers = (
{
layerId = "91C2604D-2087-4E0F-8837-A2CE9AC82E20";
name = "Bold Italic";
paths = (
{
closed = 1;
nodes = (
"603 1732 LINE",
"776 1584 LINE",
"1053 1732 LINE",
"1145 1683 LINE",
"829 1375 LINE",
"677 1375 LINE",
"496 1682 LINE"
);
},
{
closed = 1;
nodes = (
"426 117 LINE",
"570 1206 LINE",
"365 1183 LINE",
"223 806 LINE",
"61 806 LINE",
"146 1309 LINE",
"1324 1309 LINE",
"1251 808 LINE",
"1096 806 LINE",
"1080 1183 LINE",
"874 1206 LINE",
"728 117 LINE",
"973 91 LINE",
"964 0 LINE",
"200 0 LINE",
"211 91 LINE"
);
}
);
width = 1247;
}
);
note = Tcaron;
unicode = 0164;
},
{
glyphname = U;
layers = (
{
layerId = "91C2604D-2087-4E0F-8837-A2CE9AC82E20";
name = "Bold Italic";
paths = (
{
closed = 1;
nodes = (
"230 1192 LINE",
"105 1214 LINE",
"117 1309 LINE",
"711 1309 LINE",
"703 1215 LINE",
"532 1192 LINE",
"445 536 LINE SMOOTH",
"436 448 OFFCURVE",
"431 390 OFFCURVE",
"431 363 CURVE SMOOTH",
"431 195 OFFCURVE",
"511 89 OFFCURVE",
"654 89 CURVE SMOOTH",
"793 89 OFFCURVE",
"878 160 OFFCURVE",
"929 290 CURVE SMOOTH",
"954 355 OFFCURVE",
"974 437 OFFCURVE",
"987 538 CURVE SMOOTH",
"1077 1192 LINE",
"949 1215 LINE",
"958 1309 LINE",
"1358 1309 LINE",
"1345 1215 LINE",
"1234 1192 LINE",
"1151 539 LINE SMOOTH",
"1116 272 OFFCURVE",
"1024 113 OFFCURVE",
"875 39 CURVE SMOOTH",
"800 2 OFFCURVE",
"709 -17 OFFCURVE",
"601 -17 CURVE SMOOTH",
"385 -17 OFFCURVE",
"246 54 OFFCURVE",
"183 170 CURVE SMOOTH",
"151 227 OFFCURVE",
"135 293 OFFCURVE",
"135 368 CURVE SMOOTH",
"135 429 OFFCURVE",
"137 476 OFFCURVE",
"141 510 CURVE SMOOTH"
);
}
);
width = 1259;
}
);
note = U;
unicode = 0055;
},
{
glyphname = Uacute;
layers = (
{
layerId = "91C2604D-2087-4E0F-8837-A2CE9AC82E20";
name = "Bold Italic";
paths = (
{
closed = 1;
nodes = (
"972 1732 LINE",
"1133 1573 LINE",
"1105 1520 OFFCURVE",
"1025 1453 OFFCURVE",
"942 1404 CURVE SMOOTH",
"900 1379 OFFCURVE",
"864 1361 OFFCURVE",
"835 1350 CURVE",
"735 1438 LINE"
);
},
{
closed = 1;
nodes = (
"230 1192 LINE",
"105 1214 LINE",
"117 1309 LINE",
"711 1309 LINE",
"703 1215 LINE",
"532 1192 LINE",
"445 536 LINE SMOOTH",
"436 448 OFFCURVE",
"431 390 OFFCURVE",
"431 363 CURVE SMOOTH",
"431 195 OFFCURVE",
"511 89 OFFCURVE",
"654 89 CURVE SMOOTH",
"793 89 OFFCURVE",
"878 160 OFFCURVE",
"929 290 CURVE SMOOTH",
"954 355 OFFCURVE",
"974 437 OFFCURVE",
"987 538 CURVE SMOOTH",
"1077 1192 LINE",
"949 1215 LINE",
"958 1309 LINE",
"1358 1309 LINE",
"1345 1215 LINE",
"1234 1192 LINE",
"1151 539 LINE SMOOTH",
"1116 272 OFFCURVE",
"1024 113 OFFCURVE",
"875 39 CURVE SMOOTH",
"800 2 OFFCURVE",
"709 -17 OFFCURVE",
"601 -17 CURVE SMOOTH",
"385 -17 OFFCURVE",
"246 54 OFFCURVE",
"183 170 CURVE SMOOTH",
"151 227 OFFCURVE",
"135 293 OFFCURVE",
"135 368 CURVE SMOOTH",
"135 429 OFFCURVE",
"137 476 OFFCURVE",
"141 510 CURVE SMOOTH"
);
}
);
width = 1259;
}
);
note = Uacute;
unicode = 00DA;
},
{
glyphname = Ubreve;
layers = (
{
layerId = "91C2604D-2087-4E0F-8837-A2CE9AC82E20";
name = "Bold Italic";
paths = (
{
closed = 1;
nodes = (
"557 1694 OFFCURVE",
"559 1713 OFFCURVE",
"562 1732 CURVE",
"721 1732 LINE",
"721 1664 OFFCURVE",
"724 1632 OFFCURVE",
"756 1609 CURVE SMOOTH",
"772 1597 OFFCURVE",
"797 1591 OFFCURVE",
"831 1591 CURVE SMOOTH",
"925 1591 OFFCURVE",
"972 1638 OFFCURVE",
"972 1732 CURVE",
"1127 1732 LINE",
"1127 1603 OFFCURVE",
"1078 1500 OFFCURVE",
"988 1445 CURVE SMOOTH",
"943 1418 OFFCURVE",
"889 1404 OFFCURVE",
"827 1404 CURVE SMOOTH",
"615 1404 OFFCURVE",
"557 1525 OFFCURVE",
"557 1674 CURVE SMOOTH"
);
},
{
closed = 1;
nodes = (
"230 1192 LINE",
"105 1214 LINE",
"117 1309 LINE",
"711 1309 LINE",
"703 1215 LINE",
"532 1192 LINE",
"445 536 LINE SMOOTH",
"436 448 OFFCURVE",
"431 390 OFFCURVE",
"431 363 CURVE SMOOTH",
"431 195 OFFCURVE",
"511 89 OFFCURVE",
"654 89 CURVE SMOOTH",
"793 89 OFFCURVE",
"878 160 OFFCURVE",
"929 290 CURVE SMOOTH",
"954 355 OFFCURVE",
"974 437 OFFCURVE",
"987 538 CURVE SMOOTH",
"1077 1192 LINE",
"949 1215 LINE",
"958 1309 LINE",
"1358 1309 LINE",
"1345 1215 LINE",
"1234 1192 LINE",
"1151 539 LINE SMOOTH",
"1116 272 OFFCURVE",
"1024 113 OFFCURVE",
"875 39 CURVE SMOOTH",
"800 2 OFFCURVE",
"709 -17 OFFCURVE",
"601 -17 CURVE SMOOTH",
"385 -17 OFFCURVE",
"246 54 OFFCURVE",
"183 170 CURVE SMOOTH",
"151 227 OFFCURVE",
"135 293 OFFCURVE",
"135 368 CURVE SMOOTH",
"135 429 OFFCURVE",
"137 476 OFFCURVE",
"141 510 CURVE SMOOTH"
);
}
);
width = 1259;
}
);
note = Ubreve;
unicode = 016C;
},
{
glyphname = Ucircumflex;
layers = (
{
layerId = "91C2604D-2087-4E0F-8837-A2CE9AC82E20";
name = "Bold Italic";
paths = (
{
closed = 1;
nodes = (
"230 1192 LINE",
"105 1214 LINE",
"117 1309 LINE",
"711 1309 LINE",
"703 1215 LINE",
"532 1192 LINE",
"445 536 LINE SMOOTH",
"436 448 OFFCURVE",
"431 390 OFFCURVE",
"431 363 CURVE SMOOTH",
"431 195 OFFCURVE",
"511 89 OFFCURVE",
"654 89 CURVE SMOOTH",
"793 89 OFFCURVE",
"878 160 OFFCURVE",
"929 290 CURVE SMOOTH",
"954 355 OFFCURVE",
"974 437 OFFCURVE",
"987 538 CURVE SMOOTH",
"1077 1192 LINE",
"949 1215 LINE",
"958 1309 LINE",
"1358 1309 LINE",
"1345 1215 LINE",
"1234 1192 LINE",
"1151 539 LINE SMOOTH",
"1116 272 OFFCURVE",
"1024 113 OFFCURVE",
"875 39 CURVE SMOOTH",
"800 2 OFFCURVE",
"709 -17 OFFCURVE",
"601 -17 CURVE SMOOTH",
"385 -17 OFFCURVE",
"246 54 OFFCURVE",
"183 170 CURVE SMOOTH",
"151 227 OFFCURVE",
"135 293 OFFCURVE",
"135 368 CURVE SMOOTH",
"135 429 OFFCURVE",
"137 476 OFFCURVE",
"141 510 CURVE SMOOTH"
);
},
{
closed = 1;
nodes = (
"821 1732 LINE",
"974 1732 LINE",
"1155 1425 LINE",
"1048 1375 LINE",
"876 1553 LINE",
"598 1376 LINE",
"506 1425 LINE"
);
}
);
width = 1259;
}
);
note = Ucircumflex;
unicode = 00DB;
},
{
glyphname = Udieresis;
layers = (
{
layerId = "91C2604D-2087-4E0F-8837-A2CE9AC82E20";
name = "Bold Italic";
paths = (
{
closed = 1;
nodes = (
"506 1647 OFFCURVE",
"562 1706 OFFCURVE",
"651 1706 CURVE SMOOTH",
"728 1706 OFFCURVE",
"773 1658 OFFCURVE",
"773 1589 CURVE SMOOTH",
"773 1489 OFFCURVE",
"722 1428 OFFCURVE",
"622 1428 CURVE SMOOTH",
"554 1428 OFFCURVE",
"506 1482 OFFCURVE",
"506 1551 CURVE SMOOTH"
);
},
{
closed = 1;
nodes = (
"895 1647 OFFCURVE",
"951 1706 OFFCURVE",
"1039 1706 CURVE SMOOTH",
"1118 1706 OFFCURVE",
"1161 1658 OFFCURVE",
"1161 1589 CURVE SMOOTH",
"1161 1489 OFFCURVE",
"1111 1428 OFFCURVE",
"1011 1428 CURVE SMOOTH",
"943 1428 OFFCURVE",
"895 1482 OFFCURVE",
"895 1551 CURVE SMOOTH"
);
},
{
closed = 1;
nodes = (
"230 1192 LINE",
"105 1214 LINE",
"117 1309 LINE",
"711 1309 LINE",
"703 1215 LINE",
"532 1192 LINE",
"445 536 LINE SMOOTH",
"436 448 OFFCURVE",
"431 390 OFFCURVE",
"431 363 CURVE SMOOTH",
"431 195 OFFCURVE",
"511 89 OFFCURVE",
"654 89 CURVE SMOOTH",
"793 89 OFFCURVE",
"878 160 OFFCURVE",
"929 290 CURVE SMOOTH",
"954 355 OFFCURVE",
"974 437 OFFCURVE",
"987 538 CURVE SMOOTH",
"1077 1192 LINE",
"949 1215 LINE",
"958 1309 LINE",
"1358 1309 LINE",
"1345 1215 LINE",
"1234 1192 LINE",
"1151 539 LINE SMOOTH",
"1116 272 OFFCURVE",
"1024 113 OFFCURVE",
"875 39 CURVE SMOOTH",
"800 2 OFFCURVE",
"709 -17 OFFCURVE",
"601 -17 CURVE SMOOTH",
"385 -17 OFFCURVE",
"246 54 OFFCURVE",
"183 170 CURVE SMOOTH",
"151 227 OFFCURVE",
"135 293 OFFCURVE",
"135 368 CURVE SMOOTH",
"135 429 OFFCURVE",
"137 476 OFFCURVE",
"141 510 CURVE SMOOTH"
);
}
);
width = 1259;
}
);
note = Udieresis;
unicode = 00DC;
},
{
glyphname = Ugrave;
layers = (
{
layerId = "91C2604D-2087-4E0F-8837-A2CE9AC82E20";
name = "Bold Italic";
paths = (
{
closed = 1;
nodes = (
"690 1732 LINE",
"927 1438 LINE",
"827 1350 LINE",
"768 1373 OFFCURVE",
"679 1425 OFFCURVE",
"607 1485 CURVE SMOOTH",
"571 1515 OFFCURVE",
"545 1544 OFFCURVE",
"529 1573 CURVE"
);
},
{
closed = 1;
nodes = (
"230 1192 LINE",
"105 1214 LINE",
"117 1309 LINE",
"711 1309 LINE",
"703 1215 LINE",
"532 1192 LINE",
"445 536 LINE SMOOTH",
"436 448 OFFCURVE",
"431 390 OFFCURVE",
"431 363 CURVE SMOOTH",
"431 195 OFFCURVE",
"511 89 OFFCURVE",
"654 89 CURVE SMOOTH",
"793 89 OFFCURVE",
"878 160 OFFCURVE",
"929 290 CURVE SMOOTH",
"954 355 OFFCURVE",
"974 437 OFFCURVE",
"987 538 CURVE SMOOTH",
"1077 1192 LINE",
"949 1215 LINE",
"958 1309 LINE",
"1358 1309 LINE",
"1345 1215 LINE",
"1234 1192 LINE",
"1151 539 LINE SMOOTH",
"1116 272 OFFCURVE",
"1024 113 OFFCURVE",
"875 39 CURVE SMOOTH",
"800 2 OFFCURVE",
"709 -17 OFFCURVE",
"601 -17 CURVE SMOOTH",
"385 -17 OFFCURVE",
"246 54 OFFCURVE",
"183 170 CURVE SMOOTH",
"151 227 OFFCURVE",
"135 293 OFFCURVE",
"135 368 CURVE SMOOTH",
"135 429 OFFCURVE",
"137 476 OFFCURVE",
"141 510 CURVE SMOOTH"
);
}
);
width = 1259;
}
);
note = Ugrave;
unicode = 00D9;
},
{
glyphname = Uhungarumlaut;
layers = (
{
layerId = "91C2604D-2087-4E0F-8837-A2CE9AC82E20";
name = "Bold Italic";
paths = (
{
closed = 1;
nodes = (
"230 1192 LINE",
"105 1214 LINE",
"117 1309 LINE",
"711 1309 LINE",
"703 1215 LINE",
"532 1192 LINE",
"445 536 LINE SMOOTH",
"436 448 OFFCURVE",
"431 390 OFFCURVE",
"431 363 CURVE SMOOTH",
"431 195 OFFCURVE",
"511 89 OFFCURVE",
"654 89 CURVE SMOOTH",
"793 89 OFFCURVE",
"878 160 OFFCURVE",
"929 290 CURVE SMOOTH",
"954 355 OFFCURVE",
"974 437 OFFCURVE",
"987 538 CURVE SMOOTH",
"1077 1192 LINE",
"949 1215 LINE",
"958 1309 LINE",
"1358 1309 LINE",
"1345 1215 LINE",
"1234 1192 LINE",
"1151 539 LINE SMOOTH",
"1116 272 OFFCURVE",
"1024 113 OFFCURVE",
"875 39 CURVE SMOOTH",
"800 2 OFFCURVE",
"709 -17 OFFCURVE",
"601 -17 CURVE SMOOTH",
"385 -17 OFFCURVE",
"246 54 OFFCURVE",
"183 170 CURVE SMOOTH",
"151 227 OFFCURVE",
"135 293 OFFCURVE",
"135 368 CURVE SMOOTH",
"135 429 OFFCURVE",
"137 476 OFFCURVE",
"141 510 CURVE SMOOTH"
);
},
{
closed = 1;
nodes = (
"736 1732 LINE",
"876 1619 LINE",
"847 1554 OFFCURVE",
"772 1471 OFFCURVE",
"692 1411 CURVE SMOOTH",
"651 1381 OFFCURVE",
"615 1361 OFFCURVE",
"583 1350 CURVE",
"493 1415 LINE"
);
},
{
closed = 1;
nodes = (
"1157 1732 LINE",
"1295 1618 LINE",
"1255 1549 OFFCURVE",
"1184 1468 OFFCURVE",
"1108 1410 CURVE SMOOTH",
"1069 1381 OFFCURVE",
"1033 1361 OFFCURVE",
"1000 1350 CURVE",
"915 1415 LINE"
);
}
);
width = 1259;
}
);
note = Uhungarumlaut;
unicode = 0170;
},
{
glyphname = Umacron;
layers = (
{
layerId = "91C2604D-2087-4E0F-8837-A2CE9AC82E20";
name = "Bold Italic";
paths = (
{
closed = 1;
nodes = (
"1088 1648 LINE",
"1070 1468 LINE",
"579 1468 LINE",
"596 1648 LINE"
);
},
{
closed = 1;
nodes = (
"230 1192 LINE",
"105 1214 LINE",
"117 1309 LINE",
"711 1309 LINE",
"703 1215 LINE",
"532 1192 LINE",
"445 536 LINE SMOOTH",
"436 448 OFFCURVE",
"431 390 OFFCURVE",
"431 363 CURVE SMOOTH",
"431 195 OFFCURVE",
"511 89 OFFCURVE",
"654 89 CURVE SMOOTH",
"793 89 OFFCURVE",
"878 160 OFFCURVE",
"929 290 CURVE SMOOTH",
"954 355 OFFCURVE",
"974 437 OFFCURVE",
"987 538 CURVE SMOOTH",
"1077 1192 LINE",
"949 1215 LINE",
"958 1309 LINE",
"1358 1309 LINE",
"1345 1215 LINE",
"1234 1192 LINE",
"1151 539 LINE SMOOTH",
"1116 272 OFFCURVE",
"1024 113 OFFCURVE",
"875 39 CURVE SMOOTH",
"800 2 OFFCURVE",
"709 -17 OFFCURVE",
"601 -17 CURVE SMOOTH",
"385 -17 OFFCURVE",
"246 54 OFFCURVE",
"183 170 CURVE SMOOTH",
"151 227 OFFCURVE",
"135 293 OFFCURVE",
"135 368 CURVE SMOOTH",
"135 429 OFFCURVE",
"137 476 OFFCURVE",
"141 510 CURVE SMOOTH"
);
}
);
width = 1259;
}
);
note = Umacron;
unicode = 016A;
},
{
glyphname = Uogonek;
layers = (
{
layerId = "91C2604D-2087-4E0F-8837-A2CE9AC82E20";
name = "Bold Italic";
paths = (
{
closed = 1;
nodes = (
"230 1192 LINE",
"105 1214 LINE",
"117 1309 LINE",
"711 1309 LINE",
"703 1215 LINE",
"532 1192 LINE",
"445 536 LINE SMOOTH",
"436 448 OFFCURVE",
"431 390 OFFCURVE",
"431 363 CURVE SMOOTH",
"431 195 OFFCURVE",
"511 89 OFFCURVE",
"654 89 CURVE SMOOTH",
"793 89 OFFCURVE",
"878 160 OFFCURVE",
"929 290 CURVE SMOOTH",
"954 355 OFFCURVE",
"974 437 OFFCURVE",
"987 538 CURVE SMOOTH",
"1077 1192 LINE",
"949 1215 LINE",
"958 1309 LINE",
"1358 1309 LINE",
"1345 1215 LINE",
"1234 1192 LINE",
"1151 539 LINE SMOOTH",
"1112 240 OFFCURVE",
"1002 74 OFFCURVE",
"814 13 CURVE",
"741 -56 OFFCURVE",
"694 -125 OFFCURVE",
"694 -176 CURVE SMOOTH",
"694 -224 OFFCURVE",
"716 -247 OFFCURVE",
"752 -247 CURVE SMOOTH",
"795 -247 OFFCURVE",
"831 -226 OFFCURVE",
"883 -182 CURVE",
"914 -280 LINE",
"845 -357 OFFCURVE",
"737 -413 OFFCURVE",
"618 -413 CURVE SMOOTH",
"510 -413 OFFCURVE",
"452 -356 OFFCURVE",
"452 -263 CURVE SMOOTH",
"452 -236 OFFCURVE",
"465 -193 OFFCURVE",
"482 -165 CURVE SMOOTH",
"515 -111 OFFCURVE",
"558 -62 OFFCURVE",
"611 -17 CURVE",
"601 -17 LINE SMOOTH",
"385 -17 OFFCURVE",
"246 54 OFFCURVE",
"183 170 CURVE SMOOTH",
"151 227 OFFCURVE",
"135 293 OFFCURVE",
"135 368 CURVE SMOOTH",
"135 429 OFFCURVE",
"137 476 OFFCURVE",
"141 510 CURVE SMOOTH"
);
}
);
width = 1259;
}
);
note = Uogonek;
unicode = 0172;
},
{
glyphname = Uring;
layers = (
{
layerId = "91C2604D-2087-4E0F-8837-A2CE9AC82E20";
name = "Bold Italic";
paths = (
{
closed = 1;
nodes = (
"230 1192 LINE",
"105 1214 LINE",
"117 1309 LINE",
"711 1309 LINE",
"703 1215 LINE",
"532 1192 LINE",
"445 536 LINE SMOOTH",
"436 448 OFFCURVE",
"431 390 OFFCURVE",
"431 363 CURVE SMOOTH",
"431 195 OFFCURVE",
"511 89 OFFCURVE",
"654 89 CURVE SMOOTH",
"793 89 OFFCURVE",
"878 160 OFFCURVE",
"929 290 CURVE SMOOTH",
"954 355 OFFCURVE",
"974 437 OFFCURVE",
"987 538 CURVE SMOOTH",
"1077 1192 LINE",
"949 1215 LINE",
"958 1309 LINE",
"1358 1309 LINE",
"1345 1215 LINE",
"1234 1192 LINE",
"1151 539 LINE SMOOTH",
"1116 272 OFFCURVE",
"1024 113 OFFCURVE",
"875 39 CURVE SMOOTH",
"800 2 OFFCURVE",
"709 -17 OFFCURVE",
"601 -17 CURVE SMOOTH",
"385 -17 OFFCURVE",
"246 54 OFFCURVE",
"183 170 CURVE SMOOTH",
"151 227 OFFCURVE",
"135 293 OFFCURVE",
"135 368 CURVE SMOOTH",
"135 429 OFFCURVE",
"137 476 OFFCURVE",
"141 510 CURVE SMOOTH"
);
},
{
closed = 1;
nodes = (
"547 1700 OFFCURVE",
"629 1769 OFFCURVE",
"733 1797 CURVE SMOOTH",
"784 1811 OFFCURVE",
"836 1818 OFFCURVE",
"888 1818 CURVE SMOOTH",
"991 1818 OFFCURVE",
"1075 1791 OFFCURVE",
"1122 1739 CURVE SMOOTH",
"1145 1712 OFFCURVE",
"1157 1680 OFFCURVE",
"1157 1643 CURVE SMOOTH",
"1157 1531 OFFCURVE",
"1088 1456 OFFCURVE",
"989 1421 CURVE SMOOTH",
"939 1403 OFFCURVE",
"886 1394 OFFCURVE",
"830 1394 CURVE SMOOTH",
"659 1394 OFFCURVE",
"547 1459 OFFCURVE",
"547 1583 CURVE SMOOTH"
);
},
{
closed = 1;
nodes = (
"991 1668 OFFCURVE",
"931 1701 OFFCURVE",
"866 1701 CURVE SMOOTH",
"785 1701 OFFCURVE",
"714 1674 OFFCURVE",
"714 1603 CURVE SMOOTH",
"714 1567 OFFCURVE",
"742 1540 OFFCURVE",
"782 1525 CURVE SMOOTH",
"801 1518 OFFCURVE",
"821 1514 OFFCURVE",
"841 1514 CURVE SMOOTH",
"941 1514 OFFCURVE",
"991 1549 OFFCURVE",
"991 1619 CURVE SMOOTH"
);
}
);
width = 1259;
}
);
note = Uring;
unicode = 016E;
},
{
glyphname = Utilde;
layers = (
{
layerId = "91C2604D-2087-4E0F-8837-A2CE9AC82E20";
name = "Bold Italic";
paths = (
{
closed = 1;
nodes = (
"517 1549 LINE",
"536 1598 OFFCURVE",
"579 1646 OFFCURVE",
"640 1674 CURVE SMOOTH",
"670 1687 OFFCURVE",
"703 1694 OFFCURVE",
"738 1694 CURVE SMOOTH",
"803 1694 OFFCURVE",
"839 1668 OFFCURVE",
"887 1619 CURVE SMOOTH",
"926 1580 OFFCURVE",
"945 1565 OFFCURVE",
"978 1565 CURVE SMOOTH",
"1034 1565 OFFCURVE",
"1073 1603 OFFCURVE",
"1109 1651 CURVE",
"1185 1539 LINE",
"1165 1487 OFFCURVE",
"1119 1436 OFFCURVE",
"1060 1406 CURVE SMOOTH",
"1030 1391 OFFCURVE",
"1000 1383 OFFCURVE",
"969 1383 CURVE SMOOTH",
"917 1383 OFFCURVE",
"879 1399 OFFCURVE",
"854 1419 CURVE",
"841 1428 OFFCURVE",
"827 1441 OFFCURVE",
"811 1457 CURVE SMOOTH",
"772 1494 OFFCURVE",
"751 1512 OFFCURVE",
"708 1512 CURVE SMOOTH",
"661 1512 OFFCURVE",
"624 1485 OFFCURVE",
"583 1442 CURVE"
);
},
{
closed = 1;
nodes = (
"230 1192 LINE",
"105 1214 LINE",
"117 1309 LINE",
"711 1309 LINE",
"703 1215 LINE",
"532 1192 LINE",
"445 536 LINE SMOOTH",
"436 448 OFFCURVE",
"431 390 OFFCURVE",
"431 363 CURVE SMOOTH",
"431 195 OFFCURVE",
"511 89 OFFCURVE",
"654 89 CURVE SMOOTH",
"793 89 OFFCURVE",
"878 160 OFFCURVE",
"929 290 CURVE SMOOTH",
"954 355 OFFCURVE",
"974 437 OFFCURVE",
"987 538 CURVE SMOOTH",
"1077 1192 LINE",
"949 1215 LINE",
"958 1309 LINE",
"1358 1309 LINE",
"1345 1215 LINE",
"1234 1192 LINE",
"1151 539 LINE SMOOTH",
"1116 272 OFFCURVE",
"1024 113 OFFCURVE",
"875 39 CURVE SMOOTH",
"800 2 OFFCURVE",
"709 -17 OFFCURVE",
"601 -17 CURVE SMOOTH",
"385 -17 OFFCURVE",
"246 54 OFFCURVE",
"183 170 CURVE SMOOTH",
"151 227 OFFCURVE",
"135 293 OFFCURVE",
"135 368 CURVE SMOOTH",
"135 429 OFFCURVE",
"137 476 OFFCURVE",
"141 510 CURVE SMOOTH"
);
}
);
width = 1259;
}
);
note = Utilde;
unicode = 0168;
},
{
glyphname = V;
layers = (
{
layerId = "91C2604D-2087-4E0F-8837-A2CE9AC82E20";
name = "Bold Italic";
paths = (
{
closed = 1;
nodes = (
"-21 1215 LINE",
"-9 1309 LINE",
"562 1309 LINE",
"554 1214 LINE",
"415 1192 LINE",
"509 439 LINE",
"525 260 LINE",
"598 439 LINE",
"943 1192 LINE",
"791 1214 LINE",
"800 1309 LINE",
"1262 1309 LINE",
"1247 1214 LINE",
"1115 1192 LINE",
"550 -9 LINE",
"292 -9 LINE",
"99 1192 LINE"
);
}
);
width = 1070;
}
);
note = V;
unicode = 0056;
},
{
glyphname = W;
layers = (
{
layerId = "91C2604D-2087-4E0F-8837-A2CE9AC82E20";
name = "Bold Italic";
paths = (
{
closed = 1;
nodes = (
"-20 1215 LINE",
"-8 1309 LINE",
"536 1309 LINE",
"528 1214 LINE",
"410 1189 LINE",
"491 439 LINE",
"511 260 LINE",
"579 439 LINE",
"841 1067 LINE",
"830 1191 LINE",
"692 1215 LINE",
"701 1309 LINE",
"1265 1309 LINE",
"1257 1214 LINE",
"1128 1191 LINE",
"1201 439 LINE",
"1207 260 LINE",
"1281 439 LINE",
"1603 1191 LINE",
"1408 1214 LINE",
"1416 1309 LINE",
"1927 1309 LINE",
"1919 1215 LINE",
"1781 1192 LINE",
"1219 -9 LINE",
"953 -9 LINE",
"875 795 LINE",
"541 -9 LINE",
"277 -9 LINE",
"99 1191 LINE"
);
}
);
width = 1680;
}
);
note = W;
unicode = 0057;
},
{
glyphname = Wacute;
layers = (
{
layerId = "91C2604D-2087-4E0F-8837-A2CE9AC82E20";
name = "Bold Italic";
paths = (
{
closed = 1;
nodes = (
"1137 1732 LINE",
"1298 1573 LINE",
"1270 1520 OFFCURVE",
"1190 1453 OFFCURVE",
"1107 1404 CURVE SMOOTH",
"1065 1379 OFFCURVE",
"1029 1361 OFFCURVE",
"1000 1350 CURVE",
"900 1438 LINE"
);
},
{
closed = 1;
nodes = (
"-20 1215 LINE",
"-8 1309 LINE",
"536 1309 LINE",
"528 1214 LINE",
"410 1189 LINE",
"491 439 LINE",
"511 260 LINE",
"579 439 LINE",
"841 1067 LINE",
"830 1191 LINE",
"692 1215 LINE",
"701 1309 LINE",
"1265 1309 LINE",
"1257 1214 LINE",
"1128 1191 LINE",
"1201 439 LINE",
"1207 260 LINE",
"1281 439 LINE",
"1603 1191 LINE",
"1408 1214 LINE",
"1416 1309 LINE",
"1927 1309 LINE",
"1919 1215 LINE",
"1781 1192 LINE",
"1219 -9 LINE",
"953 -9 LINE",
"875 795 LINE",
"541 -9 LINE",
"277 -9 LINE",
"99 1191 LINE"
);
}
);
width = 1680;
}
);
note = Wacute;
unicode = 1E82;
},
{
glyphname = Wcircumflex;
layers = (
{
layerId = "91C2604D-2087-4E0F-8837-A2CE9AC82E20";
name = "Bold Italic";
paths = (
{
closed = 1;
nodes = (
"-20 1215 LINE",
"-8 1309 LINE",
"536 1309 LINE",
"528 1214 LINE",
"410 1189 LINE",
"491 439 LINE",
"511 260 LINE",
"579 439 LINE",
"841 1067 LINE",
"830 1191 LINE",
"692 1215 LINE",
"701 1309 LINE",
"1265 1309 LINE",
"1257 1214 LINE",
"1128 1191 LINE",
"1201 439 LINE",
"1207 260 LINE",
"1281 439 LINE",
"1603 1191 LINE",
"1408 1214 LINE",
"1416 1309 LINE",
"1927 1309 LINE",
"1919 1215 LINE",
"1781 1192 LINE",
"1219 -9 LINE",
"953 -9 LINE",
"875 795 LINE",
"541 -9 LINE",
"277 -9 LINE",
"99 1191 LINE"
);
},
{
closed = 1;
nodes = (
"986 1732 LINE",
"1139 1732 LINE",
"1320 1425 LINE",
"1213 1375 LINE",
"1041 1553 LINE",
"763 1376 LINE",
"671 1425 LINE"
);
}
);
width = 1680;
}
);
note = Wcircumflex;
unicode = 0174;
},
{
glyphname = Wdieresis;
layers = (
{
layerId = "91C2604D-2087-4E0F-8837-A2CE9AC82E20";
name = "Bold Italic";
paths = (
{
closed = 1;
nodes = (
"671 1647 OFFCURVE",
"727 1706 OFFCURVE",
"816 1706 CURVE SMOOTH",
"893 1706 OFFCURVE",
"938 1658 OFFCURVE",
"938 1589 CURVE SMOOTH",
"938 1489 OFFCURVE",
"887 1428 OFFCURVE",
"787 1428 CURVE SMOOTH",
"719 1428 OFFCURVE",
"671 1482 OFFCURVE",
"671 1551 CURVE SMOOTH"
);
},
{
closed = 1;
nodes = (
"1060 1647 OFFCURVE",
"1116 1706 OFFCURVE",
"1204 1706 CURVE SMOOTH",
"1283 1706 OFFCURVE",
"1326 1658 OFFCURVE",
"1326 1589 CURVE SMOOTH",
"1326 1489 OFFCURVE",
"1276 1428 OFFCURVE",
"1176 1428 CURVE SMOOTH",
"1108 1428 OFFCURVE",
"1060 1482 OFFCURVE",
"1060 1551 CURVE SMOOTH"
);
},
{
closed = 1;
nodes = (
"-20 1215 LINE",
"-8 1309 LINE",
"536 1309 LINE",
"528 1214 LINE",
"410 1189 LINE",
"491 439 LINE",
"511 260 LINE",
"579 439 LINE",
"841 1067 LINE",
"830 1191 LINE",
"692 1215 LINE",
"701 1309 LINE",
"1265 1309 LINE",
"1257 1214 LINE",
"1128 1191 LINE",
"1201 439 LINE",
"1207 260 LINE",
"1281 439 LINE",
"1603 1191 LINE",
"1408 1214 LINE",
"1416 1309 LINE",
"1927 1309 LINE",
"1919 1215 LINE",
"1781 1192 LINE",
"1219 -9 LINE",
"953 -9 LINE",
"875 795 LINE",
"541 -9 LINE",
"277 -9 LINE",
"99 1191 LINE"
);
}
);
width = 1680;
}
);
note = Wdieresis;
unicode = 1E84;
},
{
glyphname = Wgrave;
layers = (
{
layerId = "91C2604D-2087-4E0F-8837-A2CE9AC82E20";
name = "Bold Italic";
paths = (
{
closed = 1;
nodes = (
"855 1732 LINE",
"1092 1438 LINE",
"992 1350 LINE",
"933 1373 OFFCURVE",
"844 1425 OFFCURVE",
"772 1485 CURVE SMOOTH",
"736 1515 OFFCURVE",
"710 1544 OFFCURVE",
"694 1573 CURVE"
);
},
{
closed = 1;
nodes = (
"-20 1215 LINE",
"-8 1309 LINE",
"536 1309 LINE",
"528 1214 LINE",
"410 1189 LINE",
"491 439 LINE",
"511 260 LINE",
"579 439 LINE",
"841 1067 LINE",
"830 1191 LINE",
"692 1215 LINE",
"701 1309 LINE",
"1265 1309 LINE",
"1257 1214 LINE",
"1128 1191 LINE",
"1201 439 LINE",
"1207 260 LINE",
"1281 439 LINE",
"1603 1191 LINE",
"1408 1214 LINE",
"1416 1309 LINE",
"1927 1309 LINE",
"1919 1215 LINE",
"1781 1192 LINE",
"1219 -9 LINE",
"953 -9 LINE",
"875 795 LINE",
"541 -9 LINE",
"277 -9 LINE",
"99 1191 LINE"
);
}
);
width = 1680;
}
);
note = Wgrave;
unicode = 1E80;
},
{
glyphname = X;
layers = (
{
layerId = "91C2604D-2087-4E0F-8837-A2CE9AC82E20";
name = "Bold Italic";
paths = (
{
closed = 1;
nodes = (
"43 117 LINE",
"468 637 LINE",
"207 1192 LINE",
"105 1214 LINE",
"114 1309 LINE",
"683 1309 LINE",
"676 1215 LINE",
"552 1192 LINE",
"694 813 LINE",
"951 1192 LINE",
"836 1214 LINE",
"841 1309 LINE",
"1290 1309 LINE",
"1281 1214 LINE",
"1164 1192 LINE",
"758 684 LINE",
"1042 117 LINE",
"1151 91 LINE",
"1142 0 LINE",
"547 0 LINE",
"555 91 LINE",
"679 117 LINE",
"530 501 LINE",
"264 117 LINE",
"395 91 LINE",
"386 0 LINE",
"-65 0 LINE",
"-55 91 LINE"
);
}
);
width = 1186;
}
);
note = X;
unicode = 0058;
},
{
glyphname = Y;
layers = (
{
layerId = "91C2604D-2087-4E0F-8837-A2CE9AC82E20";
name = "Bold Italic";
paths = (
{
closed = 1;
nodes = (
"366 117 LINE",
"415 520 LINE",
"131 1192 LINE",
"18 1214 LINE",
"28 1309 LINE",
"634 1309 LINE",
"619 1214 LINE",
"472 1192 LINE",
"611 781 LINE",
"651 654 LINE",
"704 758 LINE",
"961 1192 LINE",
"820 1214 LINE",
"829 1309 LINE",
"1287 1309 LINE",
"1275 1214 LINE",
"1163 1192 LINE",
"720 520 LINE",
"667 117 LINE",
"878 91 LINE",
"869 0 LINE",
"157 0 LINE",
"168 91 LINE"
);
}
);
width = 1118;
}
);
note = Y;
unicode = 0059;
},
{
glyphname = Yacute;
layers = (
{
layerId = "91C2604D-2087-4E0F-8837-A2CE9AC82E20";
name = "Bold Italic";
paths = (
{
closed = 1;
nodes = (
"366 117 LINE",
"415 520 LINE",
"131 1192 LINE",
"18 1214 LINE",
"28 1309 LINE",
"634 1309 LINE",
"619 1214 LINE",
"472 1192 LINE",
"611 781 LINE",
"651 654 LINE",
"704 758 LINE",
"961 1192 LINE",
"820 1214 LINE",
"829 1309 LINE",
"1287 1309 LINE",
"1275 1214 LINE",
"1163 1192 LINE",
"720 520 LINE",
"667 117 LINE",
"878 91 LINE",
"869 0 LINE",
"157 0 LINE",
"168 91 LINE"
);
},
{
closed = 1;
nodes = (
"875 1732 LINE",
"1036 1573 LINE",
"1008 1520 OFFCURVE",
"928 1453 OFFCURVE",
"845 1404 CURVE SMOOTH",
"803 1379 OFFCURVE",
"767 1361 OFFCURVE",
"738 1350 CURVE",
"638 1438 LINE"
);
}
);
width = 1118;
}
);
note = Yacute;
unicode = 00DD;
},
{
glyphname = Ycircumflex;
layers = (
{
layerId = "91C2604D-2087-4E0F-8837-A2CE9AC82E20";
name = "Bold Italic";
paths = (
{
closed = 1;
nodes = (
"366 117 LINE",
"415 520 LINE",
"131 1192 LINE",
"18 1214 LINE",
"28 1309 LINE",
"634 1309 LINE",
"619 1214 LINE",
"472 1192 LINE",
"611 781 LINE",
"651 654 LINE",
"704 758 LINE",
"961 1192 LINE",
"820 1214 LINE",
"829 1309 LINE",
"1287 1309 LINE",
"1275 1214 LINE",
"1163 1192 LINE",
"720 520 LINE",
"667 117 LINE",
"878 91 LINE",
"869 0 LINE",
"157 0 LINE",
"168 91 LINE"
);
},
{
closed = 1;
nodes = (
"724 1732 LINE",
"877 1732 LINE",
"1058 1425 LINE",
"951 1375 LINE",
"779 1553 LINE",
"501 1376 LINE",
"409 1425 LINE"
);
}
);
width = 1118;
}
);
note = Ycircumflex;
unicode = 0176;
},
{
glyphname = Ydieresis;
layers = (
{
layerId = "91C2604D-2087-4E0F-8837-A2CE9AC82E20";
name = "Bold Italic";
paths = (
{
closed = 1;
nodes = (
"366 117 LINE",
"415 520 LINE",
"131 1192 LINE",
"18 1214 LINE",
"28 1309 LINE",
"634 1309 LINE",
"619 1214 LINE",
"472 1192 LINE",
"611 781 LINE",
"651 654 LINE",
"704 758 LINE",
"961 1192 LINE",
"820 1214 LINE",
"829 1309 LINE",
"1287 1309 LINE",
"1275 1214 LINE",
"1163 1192 LINE",
"720 520 LINE",
"667 117 LINE",
"878 91 LINE",
"869 0 LINE",
"157 0 LINE",
"168 91 LINE"
);
},
{
closed = 1;
nodes = (
"408 1647 OFFCURVE",
"464 1706 OFFCURVE",
"553 1706 CURVE SMOOTH",
"630 1706 OFFCURVE",
"675 1658 OFFCURVE",
"675 1589 CURVE SMOOTH",
"675 1489 OFFCURVE",
"624 1428 OFFCURVE",
"524 1428 CURVE SMOOTH",
"456 1428 OFFCURVE",
"408 1482 OFFCURVE",
"408 1551 CURVE SMOOTH"
);
},
{
closed = 1;
nodes = (
"797 1647 OFFCURVE",
"853 1706 OFFCURVE",
"941 1706 CURVE SMOOTH",
"1020 1706 OFFCURVE",
"1063 1658 OFFCURVE",
"1063 1589 CURVE SMOOTH",
"1063 1489 OFFCURVE",
"1013 1428 OFFCURVE",
"913 1428 CURVE SMOOTH",
"845 1428 OFFCURVE",
"797 1482 OFFCURVE",
"797 1551 CURVE SMOOTH"
);
}
);
width = 1118;
}
);
note = Ydieresis;
unicode = 0178;
},
{
glyphname = Ygrave;
layers = (
{
layerId = "91C2604D-2087-4E0F-8837-A2CE9AC82E20";
name = "Bold Italic";
paths = (
{
closed = 1;
nodes = (
"366 117 LINE",
"415 520 LINE",
"131 1192 LINE",
"18 1214 LINE",
"28 1309 LINE",
"634 1309 LINE",
"619 1214 LINE",
"472 1192 LINE",
"611 781 LINE",
"651 654 LINE",
"704 758 LINE",
"961 1192 LINE",
"820 1214 LINE",
"829 1309 LINE",
"1287 1309 LINE",
"1275 1214 LINE",
"1163 1192 LINE",
"720 520 LINE",
"667 117 LINE",
"878 91 LINE",
"869 0 LINE",
"157 0 LINE",
"168 91 LINE"
);
},
{
closed = 1;
nodes = (
"593 1732 LINE",
"830 1438 LINE",
"730 1350 LINE",
"671 1373 OFFCURVE",
"582 1425 OFFCURVE",
"510 1485 CURVE SMOOTH",
"474 1515 OFFCURVE",
"448 1544 OFFCURVE",
"432 1573 CURVE"
);
}
);
width = 1118;
}
);
note = Ygrave;
unicode = 1EF2;
},
{
glyphname = Z;
layers = (
{
layerId = "91C2604D-2087-4E0F-8837-A2CE9AC82E20";
name = "Bold Italic";
paths = (
{
closed = 1;
nodes = (
"694 1115 LINE",
"800 1199 LINE",
"420 1183 LINE",
"297 951 LINE",
"146 970 LINE",
"201 1309 LINE",
"1096 1309 LINE",
"1121 1235 LINE",
"390 202 LINE",
"294 118 LINE",
"711 137 LINE",
"881 416 LINE",
"1030 374 LINE",
"944 0 LINE",
"-18 0 LINE",
"-47 77 LINE"
);
}
);
width = 1054;
}
);
note = Z;
unicode = 005A;
},
{
glyphname = Zacute;
layers = (
{
layerId = "91C2604D-2087-4E0F-8837-A2CE9AC82E20";
name = "Bold Italic";
paths = (
{
closed = 1;
nodes = (
"694 1115 LINE",
"800 1199 LINE",
"420 1183 LINE",
"297 951 LINE",
"146 970 LINE",
"201 1309 LINE",
"1096 1309 LINE",
"1121 1235 LINE",
"390 202 LINE",
"294 118 LINE",
"711 137 LINE",
"881 416 LINE",
"1030 374 LINE",
"944 0 LINE",
"-18 0 LINE",
"-47 77 LINE"
);
},
{
closed = 1;
nodes = (
"819 1732 LINE",
"980 1573 LINE",
"952 1520 OFFCURVE",
"872 1453 OFFCURVE",
"789 1404 CURVE SMOOTH",
"747 1379 OFFCURVE",
"711 1361 OFFCURVE",
"682 1350 CURVE",
"582 1438 LINE"
);
}
);
width = 1054;
}
);
note = Zacute;
unicode = 0179;
},
{
glyphname = Zcaron;
layers = (
{
layerId = "91C2604D-2087-4E0F-8837-A2CE9AC82E20";
name = "Bold Italic";
paths = (
{
closed = 1;
nodes = (
"513 1732 LINE",
"686 1584 LINE",
"963 1732 LINE",
"1055 1683 LINE",
"739 1375 LINE",
"587 1375 LINE",
"406 1682 LINE"
);
},
{
closed = 1;
nodes = (
"694 1115 LINE",
"800 1199 LINE",
"420 1183 LINE",
"297 951 LINE",
"146 970 LINE",
"201 1309 LINE",
"1096 1309 LINE",
"1121 1235 LINE",
"390 202 LINE",
"294 118 LINE",
"711 137 LINE",
"881 416 LINE",
"1030 374 LINE",
"944 0 LINE",
"-18 0 LINE",
"-47 77 LINE"
);
}
);
width = 1054;
}
);
note = Zcaron;
unicode = 017D;
},
{
glyphname = Zdotaccent;
layers = (
{
layerId = "91C2604D-2087-4E0F-8837-A2CE9AC82E20";
name = "Bold Italic";
paths = (
{
closed = 1;
nodes = (
"513 1591 OFFCURVE",
"545 1646 OFFCURVE",
"599 1676 CURVE SMOOTH",
"626 1691 OFFCURVE",
"657 1698 OFFCURVE",
"692 1698 CURVE SMOOTH",
"751 1698 OFFCURVE",
"799 1671 OFFCURVE",
"827 1629 CURVE SMOOTH",
"840 1608 OFFCURVE",
"847 1586 OFFCURVE",
"847 1563 CURVE SMOOTH",
"847 1496 OFFCURVE",
"818 1441 OFFCURVE",
"762 1410 CURVE SMOOTH",
"734 1394 OFFCURVE",
"700 1386 OFFCURVE",
"661 1386 CURVE SMOOTH",
"612 1386 OFFCURVE",
"562 1417 OFFCURVE",
"534 1461 CURVE SMOOTH",
"520 1482 OFFCURVE",
"513 1504 OFFCURVE",
"513 1527 CURVE SMOOTH"
);
},
{
closed = 1;
nodes = (
"694 1115 LINE",
"800 1199 LINE",
"420 1183 LINE",
"297 951 LINE",
"146 970 LINE",
"201 1309 LINE",
"1096 1309 LINE",
"1121 1235 LINE",
"390 202 LINE",
"294 118 LINE",
"711 137 LINE",
"881 416 LINE",
"1030 374 LINE",
"944 0 LINE",
"-18 0 LINE",
"-47 77 LINE"
);
}
);
width = 1054;
}
);
note = Zdotaccent;
unicode = 017B;
},
{
glyphname = uni0162;
layers = (
{
layerId = "91C2604D-2087-4E0F-8837-A2CE9AC82E20";
name = "Bold Italic";
paths = (
{
closed = 1;
nodes = (
"1324 1309 LINE",
"1251 808 LINE",
"1096 806 LINE",
"1080 1183 LINE",
"874 1206 LINE",
"728 117 LINE",
"973 91 LINE",
"964 0 LINE",
"647 0 LINE",
"666 -49 OFFCURVE",
"681 -141 OFFCURVE",
"681 -205 CURVE SMOOTH",
"681 -340 OFFCURVE",
"605 -416 OFFCURVE",
"425 -416 CURVE SMOOTH",
"372 -416 OFFCURVE",
"271 -405 OFFCURVE",
"255 -392 CURVE",
"285 -261 LINE",
"300 -269 OFFCURVE",
"325 -274 OFFCURVE",
"352 -274 CURVE SMOOTH",
"447 -274 OFFCURVE",
"505 -236 OFFCURVE",
"509 -132 CURVE",
"510 -126 OFFCURVE",
"510 -117 OFFCURVE",
"510 -104 CURVE SMOOTH",
"510 -70 OFFCURVE",
"507 -35 OFFCURVE",
"501 0 CURVE",
"200 0 LINE",
"211 91 LINE",
"426 117 LINE",
"570 1206 LINE",
"365 1183 LINE",
"223 806 LINE",
"61 806 LINE",
"146 1309 LINE"
);
}
);
width = 1244;
}
);
note = uni0162;
unicode = 0162;
},
{
glyphname = uni01C4;
layers = (
{
layerId = "91C2604D-2087-4E0F-8837-A2CE9AC82E20";
name = "Bold Italic";
paths = (
{
closed = 1;
nodes = (
"116 117 LINE",
"261 1192 LINE",
"137 1214 LINE",
"146 1309 LINE",
"419 1309 LINE SMOOTH",
"450 1309 OFFCURVE",
"499 1311 OFFCURVE",
"566 1316 CURVE SMOOTH",
"639 1321 OFFCURVE",
"694 1323 OFFCURVE",
"730 1323 CURVE SMOOTH",
"1121 1323 OFFCURVE",
"1287 1116 OFFCURVE",
"1287 792 CURVE SMOOTH",
"1287 467 OFFCURVE",
"1184 221 OFFCURVE",
"955 87 CURVE SMOOTH",
"840 20 OFFCURVE",
"694 -14 OFFCURVE",
"517 -14 CURVE SMOOTH",
"499 -14 OFFCURVE",
"477 -12 OFFCURVE",
"452 -8 CURVE",
"407 -4 OFFCURVE",
"351 -1 OFFCURVE",
"286 0 CURVE SMOOTH",
"-30 0 LINE",
"-20 91 LINE"
);
},
{
closed = 1;
nodes = (
"418 117 LINE",
"453 105 OFFCURVE",
"502 95 OFFCURVE",
"535 95 CURVE SMOOTH",
"734 95 OFFCURVE",
"862 246 OFFCURVE",
"920 449 CURVE SMOOTH",
"949 550 OFFCURVE",
"963 655 OFFCURVE",
"963 762 CURVE SMOOTH",
"963 979 OFFCURVE",
"925 1108 OFFCURVE",
"848 1169 CURVE SMOOTH",
"809 1199 OFFCURVE",
"759 1214 OFFCURVE",
"697 1214 CURVE SMOOTH",
"634 1214 OFFCURVE",
"580 1204 OFFCURVE",
"561 1192 CURVE"
);
},
{
closed = 1;
nodes = (
"1990 1115 LINE",
"2096 1199 LINE",
"1716 1183 LINE",
"1593 951 LINE",
"1442 970 LINE",
"1497 1309 LINE",
"2392 1309 LINE",
"2417 1235 LINE",
"1686 202 LINE",
"1590 118 LINE",
"2007 137 LINE",
"2177 416 LINE",
"2326 374 LINE",
"2240 0 LINE",
"1278 0 LINE",
"1249 77 LINE"
);
},
{
closed = 1;
nodes = (
"1809 1732 LINE",
"1982 1584 LINE",
"2259 1732 LINE",
"2351 1683 LINE",
"2035 1375 LINE",
"1883 1375 LINE",
"1702 1682 LINE"
);
}
);
width = 2350;
}
);
note = uni01C4;
unicode = 01C4;
},
{
glyphname = uni01C5;
layers = (
{
layerId = "91C2604D-2087-4E0F-8837-A2CE9AC82E20";
name = "Bold Italic";
paths = (
{
closed = 1;
nodes = (
"116 117 LINE",
"261 1192 LINE",
"137 1214 LINE",
"146 1309 LINE",
"419 1309 LINE SMOOTH",
"450 1309 OFFCURVE",
"499 1311 OFFCURVE",
"566 1316 CURVE SMOOTH",
"639 1321 OFFCURVE",
"694 1323 OFFCURVE",
"730 1323 CURVE SMOOTH",
"1121 1323 OFFCURVE",
"1287 1116 OFFCURVE",
"1287 792 CURVE SMOOTH",
"1287 467 OFFCURVE",
"1184 221 OFFCURVE",
"955 87 CURVE SMOOTH",
"840 20 OFFCURVE",
"694 -14 OFFCURVE",
"517 -14 CURVE SMOOTH",
"499 -14 OFFCURVE",
"477 -12 OFFCURVE",
"452 -8 CURVE",
"407 -4 OFFCURVE",
"351 -1 OFFCURVE",
"286 0 CURVE SMOOTH",
"-30 0 LINE",
"-20 91 LINE"
);
},
{
closed = 1;
nodes = (
"418 117 LINE",
"453 105 OFFCURVE",
"502 95 OFFCURVE",
"535 95 CURVE SMOOTH",
"734 95 OFFCURVE",
"862 246 OFFCURVE",
"920 449 CURVE SMOOTH",
"949 550 OFFCURVE",
"963 655 OFFCURVE",
"963 762 CURVE SMOOTH",
"963 979 OFFCURVE",
"925 1108 OFFCURVE",
"848 1169 CURVE SMOOTH",
"809 1199 OFFCURVE",
"759 1214 OFFCURVE",
"697 1214 CURVE SMOOTH",
"634 1214 OFFCURVE",
"580 1204 OFFCURVE",
"561 1192 CURVE"
);
},
{
closed = 1;
nodes = (
"1499 994 OFFCURVE",
"1528 1000 OFFCURVE",
"1557 1000 CURVE SMOOTH",
"1621 1000 OFFCURVE",
"1735 992 OFFCURVE",
"1835 984 CURVE SMOOTH",
"1923 977 OFFCURVE",
"2016 970 OFFCURVE",
"2061 970 CURVE SMOOTH",
"2106 970 OFFCURVE",
"2137 980 OFFCURVE",
"2161 1000 CURVE",
"2207 948 LINE",
"1649 258 LINE",
"1587 221 LINE",
"1869 221 LINE SMOOTH",
"1961 221 OFFCURVE",
"2017 279 OFFCURVE",
"2025 360 CURVE",
"2098 360 LINE",
"2103 326 OFFCURVE",
"2105 288 OFFCURVE",
"2105 247 CURVE SMOOTH",
"2105 131 OFFCURVE",
"2086 29 OFFCURVE",
"2041 -3 CURVE SMOOTH",
"2025 -14 OFFCURVE",
"1995 -20 OFFCURVE",
"1950 -20 CURVE SMOOTH",
"1898 -20 OFFCURVE",
"1799 -15 OFFCURVE",
"1652 -4 CURVE SMOOTH",
"1528 5 OFFCURVE",
"1447 9 OFFCURVE",
"1410 9 CURVE SMOOTH",
"1377 9 OFFCURVE",
"1336 0 OFFCURVE",
"1317 -20 CURVE",
"1263 34 LINE",
"1819 715 LINE",
"1899 759 LINE",
"1638 760 LINE SMOOTH",
"1550 760 OFFCURVE",
"1493 706 OFFCURVE",
"1488 630 CURVE",
"1412 630 LINE",
"1407 666 OFFCURVE",
"1404 706 OFFCURVE",
"1404 749 CURVE SMOOTH",
"1404 862 OFFCURVE",
"1422 962 OFFCURVE",
"1470 981 CURVE"
);
},
{
closed = 1;
nodes = (
"1670 1436 LINE",
"1842 1256 LINE",
"2120 1435 LINE",
"2212 1386 LINE",
"1896 1065 LINE",
"1744 1065 LINE",
"1563 1386 LINE"
);
}
);
width = 2165;
}
);
note = uni01C5;
unicode = 01C5;
},
{
glyphname = uni01C7;
layers = (
{
layerId = "91C2604D-2087-4E0F-8837-A2CE9AC82E20";
name = "Bold Italic";
paths = (
{
closed = 1;
nodes = (
"118 117 LINE",
"260 1192 LINE",
"134 1214 LINE",
"145 1309 LINE",
"729 1309 LINE",
"719 1214 LINE",
"562 1192 LINE",
"420 111 LINE",
"728 128 LINE",
"910 516 LINE",
"1066 496 LINE",
"976 0 LINE",
"-11 0 LINE",
"-1 91 LINE"
);
},
{
closed = 1;
nodes = (
"1235 1214 LINE",
"1248 1309 LINE",
"1794 1309 LINE",
"1785 1214 LINE",
"1661 1192 LINE",
"1657 1156 LINE SMOOTH",
"1616 827 OFFCURVE",
"1584 572 OFFCURVE",
"1560 391 CURVE SMOOTH",
"1511 27 OFFCURVE",
"1496 -9 OFFCURVE",
"1392 -109 CURVE SMOOTH",
"1287 -210 OFFCURVE",
"1137 -274 OFFCURVE",
"974 -297 CURVE",
"929 -204 LINE",
"1104 -149 OFFCURVE",
"1180 -53 OFFCURVE",
"1205 74 CURVE SMOOTH",
"1258 363 OFFCURVE",
"1310 735 OFFCURVE",
"1361 1191 CURVE"
);
}
);
width = 1726;
}
);
note = uni01C7;
unicode = 01C7;
},
{
glyphname = uni01C8;
layers = (
{
layerId = "91C2604D-2087-4E0F-8837-A2CE9AC82E20";
name = "Bold Italic";
paths = (
{
closed = 1;
nodes = (
"118 117 LINE",
"260 1192 LINE",
"134 1214 LINE",
"145 1309 LINE",
"729 1309 LINE",
"719 1214 LINE",
"562 1192 LINE",
"420 111 LINE",
"728 128 LINE",
"910 516 LINE",
"1066 496 LINE",
"976 0 LINE",
"-11 0 LINE",
"-1 91 LINE"
);
},
{
closed = 1;
nodes = (
"910 -318 LINE",
"925 -323 OFFCURVE",
"959 -328 OFFCURVE",
"974 -329 CURVE",
"1077 -329 OFFCURVE",
"1130 -253 OFFCURVE",
"1157 -147 CURVE SMOOTH",
"1170 -94 OFFCURVE",
"1182 -27 OFFCURVE",
"1192 56 CURVE SMOOTH",
"1282 843 LINE",
"1139 887 LINE",
"1157 956 LINE",
"1545 1000 LINE",
"1590 980 LINE",
"1472 0 LINE SMOOTH",
"1448 -192 OFFCURVE",
"1356 -331 OFFCURVE",
"1229 -401 CURVE SMOOTH",
"1166 -436 OFFCURVE",
"1098 -454 OFFCURVE",
"1025 -454 CURVE SMOOTH",
"953 -454 OFFCURVE",
"901 -443 OFFCURVE",
"878 -422 CURVE"
);
},
{
closed = 1;
nodes = (
"1330 1356 OFFCURVE",
"1359 1411 OFFCURVE",
"1411 1441 CURVE SMOOTH",
"1436 1456 OFFCURVE",
"1466 1463 OFFCURVE",
"1501 1463 CURVE SMOOTH",
"1558 1463 OFFCURVE",
"1605 1434 OFFCURVE",
"1629 1393 CURVE SMOOTH",
"1641 1372 OFFCURVE",
"1647 1351 OFFCURVE",
"1647 1328 CURVE SMOOTH",
"1647 1224 OFFCURVE",
"1587 1151 OFFCURVE",
"1470 1151 CURVE SMOOTH",
"1421 1151 OFFCURVE",
"1376 1180 OFFCURVE",
"1350 1224 CURVE SMOOTH",
"1337 1245 OFFCURVE",
"1330 1268 OFFCURVE",
"1330 1292 CURVE SMOOTH"
);
}
);
width = 1652;
}
);
note = uni01C8;
unicode = 01C8;
},
{
glyphname = uni01CA;
layers = (
{
layerId = "91C2604D-2087-4E0F-8837-A2CE9AC82E20";
name = "Bold Italic";
paths = (
{
closed = 1;
nodes = (
"119 117 LINE",
"279 1192 LINE",
"132 1214 LINE",
"146 1309 LINE",
"625 1309 LINE",
"944 460 LINE",
"1011 262 LINE",
"1128 1192 LINE",
"980 1214 LINE",
"990 1309 LINE",
"1422 1309 LINE",
"1412 1214 LINE",
"1306 1192 LINE",
"1124 0 LINE",
"816 0 LINE",
"480 877 LINE",
"413 1096 LINE",
"305 117 LINE",
"469 91 LINE",
"459 0 LINE",
"-16 0 LINE",
"-9 91 LINE"
);
},
{
closed = 1;
nodes = (
"1480 1214 LINE",
"1493 1309 LINE",
"2039 1309 LINE",
"2030 1214 LINE",
"1906 1192 LINE",
"1902 1156 LINE SMOOTH",
"1861 827 OFFCURVE",
"1829 572 OFFCURVE",
"1805 391 CURVE SMOOTH",
"1756 27 OFFCURVE",
"1741 -9 OFFCURVE",
"1637 -109 CURVE SMOOTH",
"1532 -210 OFFCURVE",
"1382 -274 OFFCURVE",
"1219 -297 CURVE",
"1174 -204 LINE",
"1349 -149 OFFCURVE",
"1425 -53 OFFCURVE",
"1450 74 CURVE SMOOTH",
"1503 363 OFFCURVE",
"1555 735 OFFCURVE",
"1606 1191 CURVE"
);
}
);
width = 1971;
}
);
note = uni01CA;
unicode = 01CA;
},
{
glyphname = uni01CB;
layers = (
{
layerId = "91C2604D-2087-4E0F-8837-A2CE9AC82E20";
name = "Bold Italic";
paths = (
{
closed = 1;
nodes = (
"119 117 LINE",
"279 1192 LINE",
"132 1214 LINE",
"146 1309 LINE",
"625 1309 LINE",
"944 460 LINE",
"1011 262 LINE",
"1128 1192 LINE",
"980 1214 LINE",
"990 1309 LINE",
"1422 1309 LINE",
"1412 1214 LINE",
"1306 1192 LINE",
"1124 0 LINE",
"816 0 LINE",
"480 877 LINE",
"413 1096 LINE",
"305 117 LINE",
"469 91 LINE",
"459 0 LINE",
"-16 0 LINE",
"-9 91 LINE"
);
},
{
closed = 1;
nodes = (
"1155 -318 LINE",
"1170 -323 OFFCURVE",
"1204 -328 OFFCURVE",
"1219 -329 CURVE",
"1322 -329 OFFCURVE",
"1375 -253 OFFCURVE",
"1402 -147 CURVE SMOOTH",
"1415 -94 OFFCURVE",
"1427 -27 OFFCURVE",
"1437 56 CURVE SMOOTH",
"1527 843 LINE",
"1384 887 LINE",
"1402 956 LINE",
"1790 1000 LINE",
"1835 980 LINE",
"1717 0 LINE SMOOTH",
"1693 -192 OFFCURVE",
"1601 -331 OFFCURVE",
"1474 -401 CURVE SMOOTH",
"1411 -436 OFFCURVE",
"1343 -454 OFFCURVE",
"1270 -454 CURVE SMOOTH",
"1198 -454 OFFCURVE",
"1146 -443 OFFCURVE",
"1123 -422 CURVE"
);
},
{
closed = 1;
nodes = (
"1575 1356 OFFCURVE",
"1604 1411 OFFCURVE",
"1656 1441 CURVE SMOOTH",
"1681 1456 OFFCURVE",
"1711 1463 OFFCURVE",
"1746 1463 CURVE SMOOTH",
"1803 1463 OFFCURVE",
"1850 1434 OFFCURVE",
"1874 1393 CURVE SMOOTH",
"1886 1372 OFFCURVE",
"1892 1351 OFFCURVE",
"1892 1328 CURVE SMOOTH",
"1892 1224 OFFCURVE",
"1832 1151 OFFCURVE",
"1715 1151 CURVE SMOOTH",
"1666 1151 OFFCURVE",
"1621 1180 OFFCURVE",
"1595 1224 CURVE SMOOTH",
"1582 1245 OFFCURVE",
"1575 1268 OFFCURVE",
"1575 1292 CURVE SMOOTH"
);
}
);
width = 1898;
}
);
note = uni01CB;
unicode = 01CB;
},
{
glyphname = uni01CF;
layers = (
{
layerId = "91C2604D-2087-4E0F-8837-A2CE9AC82E20";
name = "Bold Italic";
paths = (
{
closed = 1;
nodes = (
"125 117 LINE",
"267 1192 LINE",
"140 1214 LINE",
"150 1309 LINE",
"728 1309 LINE",
"717 1214 LINE",
"569 1192 LINE",
"427 117 LINE",
"578 91 LINE",
"572 0 LINE",
"-15 0 LINE",
"-4 91 LINE"
);
},
{
closed = 1;
nodes = (
"309 1732 LINE",
"482 1584 LINE",
"759 1732 LINE",
"851 1683 LINE",
"535 1375 LINE",
"383 1375 LINE",
"202 1682 LINE"
);
}
);
width = 659;
}
);
note = uni01CF;
unicode = 01CF;
},
{
glyphname = uni01F1;
layers = (
{
layerId = "91C2604D-2087-4E0F-8837-A2CE9AC82E20";
name = "Bold Italic";
paths = (
{
closed = 1;
nodes = (
"116 117 LINE",
"261 1192 LINE",
"137 1214 LINE",
"146 1309 LINE",
"419 1309 LINE SMOOTH",
"450 1309 OFFCURVE",
"499 1311 OFFCURVE",
"566 1316 CURVE SMOOTH",
"639 1321 OFFCURVE",
"694 1323 OFFCURVE",
"730 1323 CURVE SMOOTH",
"1121 1323 OFFCURVE",
"1287 1116 OFFCURVE",
"1287 792 CURVE SMOOTH",
"1287 467 OFFCURVE",
"1184 221 OFFCURVE",
"955 87 CURVE SMOOTH",
"840 20 OFFCURVE",
"694 -14 OFFCURVE",
"517 -14 CURVE SMOOTH",
"499 -14 OFFCURVE",
"477 -12 OFFCURVE",
"452 -8 CURVE",
"407 -4 OFFCURVE",
"351 -1 OFFCURVE",
"286 0 CURVE SMOOTH",
"-30 0 LINE",
"-20 91 LINE"
);
},
{
closed = 1;
nodes = (
"418 117 LINE",
"453 105 OFFCURVE",
"502 95 OFFCURVE",
"535 95 CURVE SMOOTH",
"734 95 OFFCURVE",
"862 246 OFFCURVE",
"920 449 CURVE SMOOTH",
"949 550 OFFCURVE",
"963 655 OFFCURVE",
"963 762 CURVE SMOOTH",
"963 979 OFFCURVE",
"925 1108 OFFCURVE",
"848 1169 CURVE SMOOTH",
"809 1199 OFFCURVE",
"759 1214 OFFCURVE",
"697 1214 CURVE SMOOTH",
"634 1214 OFFCURVE",
"580 1204 OFFCURVE",
"561 1192 CURVE"
);
},
{
closed = 1;
nodes = (
"1990 1115 LINE",
"2096 1199 LINE",
"1716 1183 LINE",
"1593 951 LINE",
"1442 970 LINE",
"1497 1309 LINE",
"2392 1309 LINE",
"2417 1235 LINE",
"1686 202 LINE",
"1590 118 LINE",
"2007 137 LINE",
"2177 416 LINE",
"2326 374 LINE",
"2240 0 LINE",
"1278 0 LINE",
"1249 77 LINE"
);
}
);
width = 2350;
}
);
note = uni01F1;
unicode = 01F1;
},
{
glyphname = uni01F2;
layers = (
{
layerId = "91C2604D-2087-4E0F-8837-A2CE9AC82E20";
name = "Bold Italic";
paths = (
{
closed = 1;
nodes = (
"116 117 LINE",
"261 1192 LINE",
"137 1214 LINE",
"146 1309 LINE",
"419 1309 LINE SMOOTH",
"450 1309 OFFCURVE",
"499 1311 OFFCURVE",
"566 1316 CURVE SMOOTH",
"639 1321 OFFCURVE",
"694 1323 OFFCURVE",
"730 1323 CURVE SMOOTH",
"1121 1323 OFFCURVE",
"1287 1116 OFFCURVE",
"1287 792 CURVE SMOOTH",
"1287 467 OFFCURVE",
"1184 221 OFFCURVE",
"955 87 CURVE SMOOTH",
"840 20 OFFCURVE",
"694 -14 OFFCURVE",
"517 -14 CURVE SMOOTH",
"499 -14 OFFCURVE",
"477 -12 OFFCURVE",
"452 -8 CURVE",
"407 -4 OFFCURVE",
"351 -1 OFFCURVE",
"286 0 CURVE SMOOTH",
"-30 0 LINE",
"-20 91 LINE"
);
},
{
closed = 1;
nodes = (
"418 117 LINE",
"453 105 OFFCURVE",
"502 95 OFFCURVE",
"535 95 CURVE SMOOTH",
"734 95 OFFCURVE",
"862 246 OFFCURVE",
"920 449 CURVE SMOOTH",
"949 550 OFFCURVE",
"963 655 OFFCURVE",
"963 762 CURVE SMOOTH",
"963 979 OFFCURVE",
"925 1108 OFFCURVE",
"848 1169 CURVE SMOOTH",
"809 1199 OFFCURVE",
"759 1214 OFFCURVE",
"697 1214 CURVE SMOOTH",
"634 1214 OFFCURVE",
"580 1204 OFFCURVE",
"561 1192 CURVE"
);
},
{
closed = 1;
nodes = (
"1499 994 OFFCURVE",
"1528 1000 OFFCURVE",
"1557 1000 CURVE SMOOTH",
"1621 1000 OFFCURVE",
"1735 992 OFFCURVE",
"1835 984 CURVE SMOOTH",
"1923 977 OFFCURVE",
"2016 970 OFFCURVE",
"2061 970 CURVE SMOOTH",
"2106 970 OFFCURVE",
"2137 980 OFFCURVE",
"2161 1000 CURVE",
"2207 948 LINE",
"1649 258 LINE",
"1587 221 LINE",
"1869 221 LINE SMOOTH",
"1961 221 OFFCURVE",
"2017 279 OFFCURVE",
"2025 360 CURVE",
"2098 360 LINE",
"2103 326 OFFCURVE",
"2105 288 OFFCURVE",
"2105 247 CURVE SMOOTH",
"2105 131 OFFCURVE",
"2086 29 OFFCURVE",
"2041 -3 CURVE SMOOTH",
"2025 -14 OFFCURVE",
"1995 -20 OFFCURVE",
"1950 -20 CURVE SMOOTH",
"1898 -20 OFFCURVE",
"1799 -15 OFFCURVE",
"1652 -4 CURVE SMOOTH",
"1528 5 OFFCURVE",
"1447 9 OFFCURVE",
"1410 9 CURVE SMOOTH",
"1377 9 OFFCURVE",
"1336 0 OFFCURVE",
"1317 -20 CURVE",
"1263 34 LINE",
"1819 715 LINE",
"1899 759 LINE",
"1638 760 LINE SMOOTH",
"1550 760 OFFCURVE",
"1493 706 OFFCURVE",
"1488 630 CURVE",
"1412 630 LINE",
"1407 666 OFFCURVE",
"1404 706 OFFCURVE",
"1404 749 CURVE SMOOTH",
"1404 862 OFFCURVE",
"1422 962 OFFCURVE",
"1470 981 CURVE"
);
}
);
width = 2165;
}
);
note = uni01F2;
unicode = 01F2;
},
{
glyphname = uni021A;
layers = (
{
layerId = "91C2604D-2087-4E0F-8837-A2CE9AC82E20";
name = "Bold Italic";
paths = (
{
closed = 1;
nodes = (
"445 -399 LINE",
"473 -384 OFFCURVE",
"504 -343 OFFCURVE",
"504 -288 CURVE SMOOTH",
"504 -244 OFFCURVE",
"479 -205 OFFCURVE",
"446 -201 CURVE",
"456 -121 LINE",
"588 -32 LINE",
"640 -43 OFFCURVE",
"683 -79 OFFCURVE",
"707 -130 CURVE",
"718 -156 OFFCURVE",
"724 -184 OFFCURVE",
"724 -214 CURVE SMOOTH",
"724 -307 OFFCURVE",
"680 -388 OFFCURVE",
"620 -436 CURVE SMOOTH",
"589 -461 OFFCURVE",
"559 -476 OFFCURVE",
"529 -482 CURVE",
"443 -421 LINE"
);
},
{
closed = 1;
nodes = (
"426 117 LINE",
"570 1206 LINE",
"365 1183 LINE",
"223 806 LINE",
"61 806 LINE",
"146 1309 LINE",
"1324 1309 LINE",
"1251 808 LINE",
"1096 806 LINE",
"1080 1183 LINE",
"874 1206 LINE",
"728 117 LINE",
"973 91 LINE",
"964 0 LINE",
"200 0 LINE",
"211 91 LINE"
);
}
);
width = 1247;
}
);
note = uni021A;
unicode = 021A;
},
{
glyphname = uni1E02;
layers = (
{
layerId = "91C2604D-2087-4E0F-8837-A2CE9AC82E20";
name = "Bold Italic";
paths = (
{
closed = 1;
nodes = (
"524 1591 OFFCURVE",
"556 1646 OFFCURVE",
"610 1676 CURVE SMOOTH",
"637 1691 OFFCURVE",
"668 1698 OFFCURVE",
"703 1698 CURVE SMOOTH",
"762 1698 OFFCURVE",
"810 1671 OFFCURVE",
"838 1629 CURVE SMOOTH",
"851 1608 OFFCURVE",
"858 1586 OFFCURVE",
"858 1563 CURVE SMOOTH",
"858 1496 OFFCURVE",
"829 1441 OFFCURVE",
"773 1410 CURVE SMOOTH",
"745 1394 OFFCURVE",
"711 1386 OFFCURVE",
"672 1386 CURVE SMOOTH",
"623 1386 OFFCURVE",
"573 1417 OFFCURVE",
"545 1461 CURVE SMOOTH",
"531 1482 OFFCURVE",
"524 1504 OFFCURVE",
"524 1527 CURVE SMOOTH"
);
},
{
closed = 1;
nodes = (
"117 117 LINE",
"261 1192 LINE",
"136 1214 LINE",
"147 1309 LINE",
"436 1309 LINE SMOOTH",
"467 1309 OFFCURVE",
"514 1311 OFFCURVE",
"577 1316 CURVE SMOOTH",
"648 1321 OFFCURVE",
"704 1323 OFFCURVE",
"745 1323 CURVE SMOOTH",
"964 1323 OFFCURVE",
"1080 1262 OFFCURVE",
"1124 1175 CURVE SMOOTH",
"1145 1131 OFFCURVE",
"1156 1081 OFFCURVE",
"1156 1024 CURVE SMOOTH",
"1156 849 OFFCURVE",
"1048 743 OFFCURVE",
"832 691 CURVE",
"960 692 OFFCURVE",
"1059 642 OFFCURVE",
"1111 562 CURVE SMOOTH",
"1136 521 OFFCURVE",
"1149 477 OFFCURVE",
"1149 430 CURVE SMOOTH",
"1149 217 OFFCURVE",
"1054 88 OFFCURVE",
"869 28 CURVE SMOOTH",
"776 -2 OFFCURVE",
"660 -17 OFFCURVE",
"519 -17 CURVE SMOOTH",
"490 -17 OFFCURVE",
"443 -14 OFFCURVE",
"378 -9 CURVE SMOOTH",
"313 -3 OFFCURVE",
"269 0 OFFCURVE",
"244 0 CURVE SMOOTH",
"-11 0 LINE",
"-3 91 LINE"
);
},
{
closed = 1;
nodes = (
"488 736 LINE",
"497 735 OFFCURVE",
"508 735 OFFCURVE",
"523 735 CURVE SMOOTH",
"595 736 LINE SMOOTH",
"699 736 OFFCURVE",
"785 771 OFFCURVE",
"835 851 CURVE SMOOTH",
"860 891 OFFCURVE",
"872 942 OFFCURVE",
"872 1004 CURVE SMOOTH",
"872 1140 OFFCURVE",
"804 1214 OFFCURVE",
"677 1214 CURVE SMOOTH",
"644 1214 OFFCURVE",
"587 1210 OFFCURVE",
"551 1202 CURVE"
);
},
{
closed = 1;
nodes = (
"404 110 LINE",
"448 99 OFFCURVE",
"519 90 OFFCURVE",
"556 90 CURVE SMOOTH",
"741 90 OFFCURVE",
"834 182 OFFCURVE",
"834 378 CURVE SMOOTH",
"834 487 OFFCURVE",
"803 557 OFFCURVE",
"729 592 CURVE SMOOTH",
"692 609 OFFCURVE",
"642 618 OFFCURVE",
"580 618 CURVE SMOOTH",
"531 618 OFFCURVE",
"495 617 OFFCURVE",
"472 614 CURVE"
);
}
);
width = 1208;
}
);
note = uni1E02;
unicode = 1E02;
},
{
glyphname = uni1E0A;
layers = (
{
layerId = "91C2604D-2087-4E0F-8837-A2CE9AC82E20";
name = "Bold Italic";
paths = (
{
closed = 1;
nodes = (
"622 1591 OFFCURVE",
"654 1646 OFFCURVE",
"708 1676 CURVE SMOOTH",
"735 1691 OFFCURVE",
"766 1698 OFFCURVE",
"801 1698 CURVE SMOOTH",
"860 1698 OFFCURVE",
"908 1671 OFFCURVE",
"936 1629 CURVE SMOOTH",
"949 1608 OFFCURVE",
"956 1586 OFFCURVE",
"956 1563 CURVE SMOOTH",
"956 1496 OFFCURVE",
"927 1441 OFFCURVE",
"871 1410 CURVE SMOOTH",
"843 1394 OFFCURVE",
"809 1386 OFFCURVE",
"770 1386 CURVE SMOOTH",
"721 1386 OFFCURVE",
"671 1417 OFFCURVE",
"643 1461 CURVE SMOOTH",
"629 1482 OFFCURVE",
"622 1504 OFFCURVE",
"622 1527 CURVE SMOOTH"
);
},
{
closed = 1;
nodes = (
"116 117 LINE",
"261 1192 LINE",
"137 1214 LINE",
"146 1309 LINE",
"419 1309 LINE SMOOTH",
"450 1309 OFFCURVE",
"499 1311 OFFCURVE",
"566 1316 CURVE SMOOTH",
"639 1321 OFFCURVE",
"694 1323 OFFCURVE",
"730 1323 CURVE SMOOTH",
"1121 1323 OFFCURVE",
"1287 1116 OFFCURVE",
"1287 792 CURVE SMOOTH",
"1287 467 OFFCURVE",
"1184 221 OFFCURVE",
"955 87 CURVE SMOOTH",
"840 20 OFFCURVE",
"694 -14 OFFCURVE",
"517 -14 CURVE SMOOTH",
"499 -14 OFFCURVE",
"477 -12 OFFCURVE",
"452 -8 CURVE",
"407 -4 OFFCURVE",
"351 -1 OFFCURVE",
"286 0 CURVE SMOOTH",
"-30 0 LINE",
"-20 91 LINE"
);
},
{
closed = 1;
nodes = (
"418 117 LINE",
"453 105 OFFCURVE",
"502 95 OFFCURVE",
"535 95 CURVE SMOOTH",
"734 95 OFFCURVE",
"862 246 OFFCURVE",
"920 449 CURVE SMOOTH",
"949 550 OFFCURVE",
"963 655 OFFCURVE",
"963 762 CURVE SMOOTH",
"963 979 OFFCURVE",
"925 1108 OFFCURVE",
"848 1169 CURVE SMOOTH",
"809 1199 OFFCURVE",
"759 1214 OFFCURVE",
"697 1214 CURVE SMOOTH",
"634 1214 OFFCURVE",
"580 1204 OFFCURVE",
"561 1192 CURVE"
);
}
);
width = 1302;
}
);
note = uni1E0A;
unicode = 1E0A;
},
{
glyphname = uni1E1E;
layers = (
{
layerId = "91C2604D-2087-4E0F-8837-A2CE9AC82E20";
name = "Bold Italic";
paths = (
{
closed = 1;
nodes = (
"567 1591 OFFCURVE",
"599 1646 OFFCURVE",
"653 1676 CURVE SMOOTH",
"680 1691 OFFCURVE",
"711 1698 OFFCURVE",
"746 1698 CURVE SMOOTH",
"805 1698 OFFCURVE",
"853 1671 OFFCURVE",
"881 1629 CURVE SMOOTH",
"894 1608 OFFCURVE",
"901 1586 OFFCURVE",
"901 1563 CURVE SMOOTH",
"901 1496 OFFCURVE",
"872 1441 OFFCURVE",
"816 1410 CURVE SMOOTH",
"788 1394 OFFCURVE",
"754 1386 OFFCURVE",
"715 1386 CURVE SMOOTH",
"666 1386 OFFCURVE",
"616 1417 OFFCURVE",
"588 1461 CURVE SMOOTH",
"574 1482 OFFCURVE",
"567 1504 OFFCURVE",
"567 1527 CURVE SMOOTH"
);
},
{
closed = 1;
nodes = (
"118 117 LINE",
"259 1192 LINE",
"134 1214 LINE",
"146 1309 LINE",
"1121 1309 LINE",
"1085 980 LINE",
"895 980 LINE",
"869 1183 LINE",
"564 1204 LINE",
"500 739 LINE",
"913 762 LINE",
"887 569 LINE",
"482 603 LINE",
"421 117 LINE",
"659 91 LINE",
"652 0 LINE",
"-10 0 LINE",
"-1 91 LINE"
);
}
);
width = 1052;
}
);
note = uni1E1E;
unicode = 1E1E;
},
{
glyphname = uni1E20;
layers = (
{
layerId = "91C2604D-2087-4E0F-8837-A2CE9AC82E20";
name = "Bold Italic";
paths = (
{
closed = 1;
nodes = (
"933 1325 OFFCURVE",
"1013 1309 OFFCURVE",
"1109 1284 CURVE SMOOTH",
"1129 1279 OFFCURVE",
"1141 1276 OFFCURVE",
"1146 1275 CURVE SMOOTH",
"1200 1265 LINE",
"1144 979 LINE",
"937 979 LINE",
"928 1177 LINE",
"883 1202 OFFCURVE",
"832 1214 OFFCURVE",
"777 1214 CURVE SMOOTH",
"481 1214 OFFCURVE",
"372 961 OFFCURVE",
"372 566 CURVE SMOOTH",
"372 393 OFFCURVE",
"406 253 OFFCURVE",
"475 175 CURVE SMOOTH",
"510 136 OFFCURVE",
"553 116 OFFCURVE",
"605 116 CURVE SMOOTH",
"689 116 OFFCURVE",
"747 123 OFFCURVE",
"796 140 CURVE",
"841 507 LINE",
"667 522 LINE",
"684 648 LINE",
"1162 648 LINE",
"1085 72 LINE",
"1042 68 OFFCURVE",
"969 56 OFFCURVE",
"922 44 CURVE SMOOTH",
"901 39 LINE SMOOTH",
"770 4 OFFCURVE",
"681 -14 OFFCURVE",
"548 -14 CURVE SMOOTH",
"324 -14 OFFCURVE",
"178 95 OFFCURVE",
"107 261 CURVE SMOOTH",
"36 427 OFFCURVE",
"20 718 OFFCURVE",
"128 954 CURVE SMOOTH",
"236 1190 OFFCURVE",
"458 1325 OFFCURVE",
"774 1325 CURVE SMOOTH"
);
},
{
closed = 1;
nodes = (
"1026 1086 LINE",
"1019 1097 OFFCURVE",
"1013 1105 OFFCURVE",
"1008 1110 CURVE"
);
},
{
closed = 1;
nodes = (
"1049 1648 LINE",
"1031 1468 LINE",
"540 1468 LINE",
"557 1648 LINE"
);
}
);
width = 1217;
}
);
note = uni1E20;
unicode = 1E20;
},
{
glyphname = uni1E40;
layers = (
{
layerId = "91C2604D-2087-4E0F-8837-A2CE9AC82E20";
name = "Bold Italic";
paths = (
{
closed = 1;
nodes = (
"878 1591 OFFCURVE",
"910 1646 OFFCURVE",
"964 1676 CURVE SMOOTH",
"991 1691 OFFCURVE",
"1022 1698 OFFCURVE",
"1057 1698 CURVE SMOOTH",
"1116 1698 OFFCURVE",
"1164 1671 OFFCURVE",
"1192 1629 CURVE SMOOTH",
"1205 1608 OFFCURVE",
"1212 1586 OFFCURVE",
"1212 1563 CURVE SMOOTH",
"1212 1496 OFFCURVE",
"1183 1441 OFFCURVE",
"1127 1410 CURVE SMOOTH",
"1099 1394 OFFCURVE",
"1065 1386 OFFCURVE",
"1026 1386 CURVE SMOOTH",
"977 1386 OFFCURVE",
"927 1417 OFFCURVE",
"899 1461 CURVE SMOOTH",
"885 1482 OFFCURVE",
"878 1504 OFFCURVE",
"878 1527 CURVE SMOOTH"
);
},
{
closed = 1;
nodes = (
"73 117 LINE",
"353 1192 LINE",
"187 1214 LINE",
"200 1309 LINE",
"795 1309 LINE",
"880 585 LINE",
"898 438 LINE",
"945 585 LINE",
"1232 1309 LINE",
"1757 1309 LINE",
"1746 1214 LINE",
"1594 1192 LINE",
"1560 117 LINE",
"1716 91 LINE",
"1709 0 LINE",
"1095 0 LINE",
"1103 93 LINE",
"1265 117 LINE",
"1314 850 LINE",
"1331 1192 LINE",
"1208 891 LINE",
"831 -3 LINE",
"685 -15 LINE",
"568 870 LINE",
"522 1193 LINE",
"447 862 LINE",
"267 117 LINE",
"461 92 LINE",
"452 0 LINE",
"-76 0 LINE",
"-65 91 LINE"
);
}
);
width = 1734;
}
);
note = uni1E40;
unicode = 1E40;
},
{
glyphname = uni1E44;
layers = (
{
layerId = "91C2604D-2087-4E0F-8837-A2CE9AC82E20";
name = "Bold Italic";
paths = (
{
closed = 1;
nodes = (
"119 117 LINE",
"279 1192 LINE",
"132 1214 LINE",
"146 1309 LINE",
"625 1309 LINE",
"944 460 LINE",
"1011 262 LINE",
"1128 1192 LINE",
"980 1214 LINE",
"990 1309 LINE",
"1422 1309 LINE",
"1412 1214 LINE",
"1306 1192 LINE",
"1124 0 LINE",
"816 0 LINE",
"480 877 LINE",
"413 1096 LINE",
"305 117 LINE",
"469 91 LINE",
"459 0 LINE",
"-16 0 LINE",
"-9 91 LINE"
);
},
{
closed = 1;
nodes = (
"648 1591 OFFCURVE",
"680 1646 OFFCURVE",
"734 1676 CURVE SMOOTH",
"761 1691 OFFCURVE",
"792 1698 OFFCURVE",
"827 1698 CURVE SMOOTH",
"886 1698 OFFCURVE",
"934 1671 OFFCURVE",
"962 1629 CURVE SMOOTH",
"975 1608 OFFCURVE",
"982 1586 OFFCURVE",
"982 1563 CURVE SMOOTH",
"982 1496 OFFCURVE",
"953 1441 OFFCURVE",
"897 1410 CURVE SMOOTH",
"869 1394 OFFCURVE",
"835 1386 OFFCURVE",
"796 1386 CURVE SMOOTH",
"747 1386 OFFCURVE",
"697 1417 OFFCURVE",
"669 1461 CURVE SMOOTH",
"655 1482 OFFCURVE",
"648 1504 OFFCURVE",
"648 1527 CURVE SMOOTH"
);
}
);
width = 1336;
}
);
note = uni1E44;
unicode = 1E44;
},
{
glyphname = uni1E56;
layers = (
{
layerId = "91C2604D-2087-4E0F-8837-A2CE9AC82E20";
name = "Bold Italic";
paths = (
{
closed = 1;
nodes = (
"594 1591 OFFCURVE",
"626 1646 OFFCURVE",
"680 1676 CURVE SMOOTH",
"707 1691 OFFCURVE",
"738 1698 OFFCURVE",
"773 1698 CURVE SMOOTH",
"832 1698 OFFCURVE",
"880 1671 OFFCURVE",
"908 1629 CURVE SMOOTH",
"921 1608 OFFCURVE",
"928 1586 OFFCURVE",
"928 1563 CURVE SMOOTH",
"928 1496 OFFCURVE",
"899 1441 OFFCURVE",
"843 1410 CURVE SMOOTH",
"815 1394 OFFCURVE",
"781 1386 OFFCURVE",
"742 1386 CURVE SMOOTH",
"693 1386 OFFCURVE",
"643 1417 OFFCURVE",
"615 1461 CURVE SMOOTH",
"601 1482 OFFCURVE",
"594 1504 OFFCURVE",
"594 1527 CURVE SMOOTH"
);
},
{
closed = 1;
nodes = (
"117 117 LINE",
"261 1192 LINE",
"134 1214 LINE",
"146 1309 LINE",
"418 1309 LINE SMOOTH",
"455 1309 OFFCURVE",
"506 1311 OFFCURVE",
"570 1316 CURVE SMOOTH",
"629 1321 OFFCURVE",
"672 1323 OFFCURVE",
"699 1323 CURVE SMOOTH",
"934 1323 OFFCURVE",
"1072 1265 OFFCURVE",
"1134 1157 CURVE SMOOTH",
"1165 1102 OFFCURVE",
"1180 1034 OFFCURVE",
"1180 952 CURVE SMOOTH",
"1180 737 OFFCURVE",
"1076 582 OFFCURVE",
"892 502 CURVE SMOOTH",
"799 462 OFFCURVE",
"691 442 OFFCURVE",
"566 442 CURVE SMOOTH",
"519 442 OFFCURVE",
"485 443 OFFCURVE",
"465 445 CURVE",
"426 117 LINE",
"665 91 LINE",
"658 0 LINE",
"-11 0 LINE",
"-2 91 LINE"
);
},
{
closed = 1;
nodes = (
"574 556 LINE",
"695 556 OFFCURVE",
"786 630 OFFCURVE",
"834 754 CURVE SMOOTH",
"857 816 OFFCURVE",
"869 888 OFFCURVE",
"869 969 CURVE SMOOTH",
"869 1138 OFFCURVE",
"786 1214 OFFCURVE",
"643 1214 CURVE SMOOTH",
"618 1214 OFFCURVE",
"592 1212 OFFCURVE",
"567 1207 CURVE",
"479 562 LINE",
"500 557 OFFCURVE",
"523 555 OFFCURVE",
"548 555 CURVE"
);
}
);
width = 1154;
}
);
note = uni1E56;
unicode = 1E56;
},
{
glyphname = uni1E60;
layers = (
{
layerId = "91C2604D-2087-4E0F-8837-A2CE9AC82E20";
name = "Bold Italic";
paths = (
{
closed = 1;
nodes = (
"458 1591 OFFCURVE",
"490 1646 OFFCURVE",
"544 1676 CURVE SMOOTH",
"571 1691 OFFCURVE",
"602 1698 OFFCURVE",
"637 1698 CURVE SMOOTH",
"696 1698 OFFCURVE",
"744 1671 OFFCURVE",
"772 1629 CURVE SMOOTH",
"785 1608 OFFCURVE",
"792 1586 OFFCURVE",
"792 1563 CURVE SMOOTH",
"792 1496 OFFCURVE",
"763 1441 OFFCURVE",
"707 1410 CURVE SMOOTH",
"679 1394 OFFCURVE",
"645 1386 OFFCURVE",
"606 1386 CURVE SMOOTH",
"557 1386 OFFCURVE",
"507 1417 OFFCURVE",
"479 1461 CURVE SMOOTH",
"465 1482 OFFCURVE",
"458 1504 OFFCURVE",
"458 1527 CURVE SMOOTH"
);
},
{
closed = 1;
nodes = (
"241 338 LINE",
"250 144 LINE",
"295 109 OFFCURVE",
"350 91 OFFCURVE",
"415 91 CURVE SMOOTH",
"576 91 OFFCURVE",
"644 159 OFFCURVE",
"644 266 CURVE SMOOTH",
"644 339 OFFCURVE",
"616 394 OFFCURVE",
"553 450 CURVE SMOOTH",
"521 477 OFFCURVE",
"477 509 OFFCURVE",
"421 544 CURVE SMOOTH",
"248 656 OFFCURVE",
"142 776 OFFCURVE",
"142 941 CURVE SMOOTH",
"142 1104 OFFCURVE",
"230 1221 OFFCURVE",
"378 1281 CURVE SMOOTH",
"451 1310 OFFCURVE",
"536 1325 OFFCURVE",
"631 1325 CURVE SMOOTH",
"786 1325 OFFCURVE",
"901 1304 OFFCURVE",
"974 1262 CURVE",
"928 1002 LINE",
"764 1002 LINE",
"738 1176 LINE",
"701 1204 OFFCURVE",
"666 1217 OFFCURVE",
"610 1217 CURVE SMOOTH",
"487 1217 OFFCURVE",
"415 1156 OFFCURVE",
"415 1064 CURVE SMOOTH",
"415 983 OFFCURVE",
"448 922 OFFCURVE",
"517 865 CURVE SMOOTH",
"551 836 OFFCURVE",
"598 803 OFFCURVE",
"658 765 CURVE SMOOTH",
"822 661 OFFCURVE",
"926 540 OFFCURVE",
"926 380 CURVE SMOOTH",
"926 237 OFFCURVE",
"852 108 OFFCURVE",
"701 35 CURVE SMOOTH",
"625 -2 OFFCURVE",
"532 -20 OFFCURVE",
"421 -20 CURVE SMOOTH",
"301 -20 OFFCURVE",
"178 2 OFFCURVE",
"95 28 CURVE SMOOTH",
"54 41 OFFCURVE",
"26 53 OFFCURVE",
"12 64 CURVE",
"64 338 LINE"
);
},
{
closed = 1;
nodes = (
"172 237 LINE",
"173 236 OFFCURVE",
"175 232 OFFCURVE",
"179 225 CURVE"
);
}
);
width = 995;
}
);
note = uni1E60;
unicode = 1E60;
},
{
glyphname = uni1E6A;
layers = (
{
layerId = "91C2604D-2087-4E0F-8837-A2CE9AC82E20";
name = "Bold Italic";
paths = (
{
closed = 1;
nodes = (
"603 1591 OFFCURVE",
"635 1646 OFFCURVE",
"689 1676 CURVE SMOOTH",
"716 1691 OFFCURVE",
"747 1698 OFFCURVE",
"782 1698 CURVE SMOOTH",
"841 1698 OFFCURVE",
"889 1671 OFFCURVE",
"917 1629 CURVE SMOOTH",
"930 1608 OFFCURVE",
"937 1586 OFFCURVE",
"937 1563 CURVE SMOOTH",
"937 1496 OFFCURVE",
"908 1441 OFFCURVE",
"852 1410 CURVE SMOOTH",
"824 1394 OFFCURVE",
"790 1386 OFFCURVE",
"751 1386 CURVE SMOOTH",
"702 1386 OFFCURVE",
"652 1417 OFFCURVE",
"624 1461 CURVE SMOOTH",
"610 1482 OFFCURVE",
"603 1504 OFFCURVE",
"603 1527 CURVE SMOOTH"
);
},
{
closed = 1;
nodes = (
"426 117 LINE",
"570 1206 LINE",
"365 1183 LINE",
"223 806 LINE",
"61 806 LINE",
"146 1309 LINE",
"1324 1309 LINE",
"1251 808 LINE",
"1096 806 LINE",
"1080 1183 LINE",
"874 1206 LINE",
"728 117 LINE",
"973 91 LINE",
"964 0 LINE",
"200 0 LINE",
"211 91 LINE"
);
}
);
width = 1247;
}
);
note = uni1E6A;
unicode = 1E6A;
},
{
glyphname = uni1E8E;
layers = (
{
layerId = "91C2604D-2087-4E0F-8837-A2CE9AC82E20";
name = "Bold Italic";
paths = (
{
closed = 1;
nodes = (
"366 117 LINE",
"415 520 LINE",
"131 1192 LINE",
"18 1214 LINE",
"28 1309 LINE",
"634 1309 LINE",
"619 1214 LINE",
"472 1192 LINE",
"611 781 LINE",
"651 654 LINE",
"704 758 LINE",
"961 1192 LINE",
"820 1214 LINE",
"829 1309 LINE",
"1287 1309 LINE",
"1275 1214 LINE",
"1163 1192 LINE",
"720 520 LINE",
"667 117 LINE",
"878 91 LINE",
"869 0 LINE",
"157 0 LINE",
"168 91 LINE"
);
},
{
closed = 1;
nodes = (
"569 1591 OFFCURVE",
"601 1646 OFFCURVE",
"655 1676 CURVE SMOOTH",
"682 1691 OFFCURVE",
"713 1698 OFFCURVE",
"748 1698 CURVE SMOOTH",
"807 1698 OFFCURVE",
"855 1671 OFFCURVE",
"883 1629 CURVE SMOOTH",
"896 1608 OFFCURVE",
"903 1586 OFFCURVE",
"903 1563 CURVE SMOOTH",
"903 1496 OFFCURVE",
"874 1441 OFFCURVE",
"818 1410 CURVE SMOOTH",
"790 1394 OFFCURVE",
"756 1386 OFFCURVE",
"717 1386 CURVE SMOOTH",
"668 1386 OFFCURVE",
"618 1417 OFFCURVE",
"590 1461 CURVE SMOOTH",
"576 1482 OFFCURVE",
"569 1504 OFFCURVE",
"569 1527 CURVE SMOOTH"
);
}
);
width = 1118;
}
);
note = uni1E8E;
unicode = 1E8E;
},
{
glyphname = a;
layers = (
{
layerId = "91C2604D-2087-4E0F-8837-A2CE9AC82E20";
name = "Bold Italic";
paths = (
{
closed = 1;
nodes = (
"706 1000 OFFCURVE",
"787 984 OFFCURVE",
"846 963 CURVE",
"977 1000 LINE",
"866 195 LINE",
"865 190 OFFCURVE",
"865 184 OFFCURVE",
"865 176 CURVE SMOOTH",
"865 145 OFFCURVE",
"877 130 OFFCURVE",
"900 130 CURVE SMOOTH",
"919 130 OFFCURVE",
"945 143 OFFCURVE",
"980 169 CURVE",
"1004 107 LINE",
"983 76 OFFCURVE",
"941 36 OFFCURVE",
"874 6 CURVE SMOOTH",
"841 -9 OFFCURVE",
"804 -17 OFFCURVE",
"763 -17 CURVE SMOOTH",
"675 -17 OFFCURVE",
"618 23 OFFCURVE",
"617 91 CURVE",
"552 27 OFFCURVE",
"466 -17 OFFCURVE",
"355 -17 CURVE SMOOTH",
"218 -17 OFFCURVE",
"127 52 OFFCURVE",
"84 161 CURVE SMOOTH",
"63 216 OFFCURVE",
"52 277 OFFCURVE",
"52 346 CURVE SMOOTH",
"52 577 OFFCURVE",
"142 788 OFFCURVE",
"321 909 CURVE SMOOTH",
"410 970 OFFCURVE",
"517 1000 OFFCURVE",
"642 1000 CURVE SMOOTH"
);
},
{
closed = 1;
nodes = (
"679 875 LINE",
"660 878 OFFCURVE",
"641 880 OFFCURVE",
"621 880 CURVE SMOOTH",
"490 880 OFFCURVE",
"411 762 OFFCURVE",
"376 603 CURVE SMOOTH",
"358 523 OFFCURVE",
"349 440 OFFCURVE",
"349 355 CURVE SMOOTH",
"349 215 OFFCURVE",
"397 132 OFFCURVE",
"476 132 CURVE SMOOTH",
"513 132 OFFCURVE",
"549 148 OFFCURVE",
"585 180 CURVE"
);
}
);
width = 1044;
}
);
note = a;
unicode = 0061;
},
{
glyphname = aacute;
layers = (
{
layerId = "91C2604D-2087-4E0F-8837-A2CE9AC82E20";
name = "Bold Italic";
paths = (
{
closed = 1;
nodes = (
"706 1000 OFFCURVE",
"787 984 OFFCURVE",
"846 963 CURVE",
"977 1000 LINE",
"866 195 LINE",
"865 190 OFFCURVE",
"865 184 OFFCURVE",
"865 176 CURVE SMOOTH",
"865 145 OFFCURVE",
"877 130 OFFCURVE",
"900 130 CURVE SMOOTH",
"919 130 OFFCURVE",
"945 143 OFFCURVE",
"980 169 CURVE",
"1004 107 LINE",
"983 76 OFFCURVE",
"941 36 OFFCURVE",
"874 6 CURVE SMOOTH",
"841 -9 OFFCURVE",
"804 -17 OFFCURVE",
"763 -17 CURVE SMOOTH",
"675 -17 OFFCURVE",
"618 23 OFFCURVE",
"617 91 CURVE",
"552 27 OFFCURVE",
"466 -17 OFFCURVE",
"355 -17 CURVE SMOOTH",
"218 -17 OFFCURVE",
"127 52 OFFCURVE",
"84 161 CURVE SMOOTH",
"63 216 OFFCURVE",
"52 277 OFFCURVE",
"52 346 CURVE SMOOTH",
"52 577 OFFCURVE",
"142 788 OFFCURVE",
"321 909 CURVE SMOOTH",
"410 970 OFFCURVE",
"517 1000 OFFCURVE",
"642 1000 CURVE SMOOTH"
);
},
{
closed = 1;
nodes = (
"679 875 LINE",
"660 878 OFFCURVE",
"641 880 OFFCURVE",
"621 880 CURVE SMOOTH",
"490 880 OFFCURVE",
"411 762 OFFCURVE",
"376 603 CURVE SMOOTH",
"358 523 OFFCURVE",
"349 440 OFFCURVE",
"349 355 CURVE SMOOTH",
"349 215 OFFCURVE",
"397 132 OFFCURVE",
"476 132 CURVE SMOOTH",
"513 132 OFFCURVE",
"549 148 OFFCURVE",
"585 180 CURVE"
);
},
{
closed = 1;
nodes = (
"831 1499 LINE",
"996 1338 LINE",
"975 1299 OFFCURVE",
"875 1208 OFFCURVE",
"772 1134 CURVE SMOOTH",
"721 1097 OFFCURVE",
"679 1072 OFFCURVE",
"647 1059 CURVE",
"558 1128 LINE"
);
}
);
width = 1044;
}
);
note = aacute;
unicode = 00E1;
},
{
glyphname = abreve;
layers = (
{
layerId = "91C2604D-2087-4E0F-8837-A2CE9AC82E20";
name = "Bold Italic";
paths = (
{
closed = 1;
nodes = (
"706 1000 OFFCURVE",
"787 984 OFFCURVE",
"846 963 CURVE",
"977 1000 LINE",
"866 195 LINE",
"865 190 OFFCURVE",
"865 184 OFFCURVE",
"865 176 CURVE SMOOTH",
"865 145 OFFCURVE",
"877 130 OFFCURVE",
"900 130 CURVE SMOOTH",
"919 130 OFFCURVE",
"945 143 OFFCURVE",
"980 169 CURVE",
"1004 107 LINE",
"983 76 OFFCURVE",
"941 36 OFFCURVE",
"874 6 CURVE SMOOTH",
"841 -9 OFFCURVE",
"804 -17 OFFCURVE",
"763 -17 CURVE SMOOTH",
"675 -17 OFFCURVE",
"618 23 OFFCURVE",
"617 91 CURVE",
"552 27 OFFCURVE",
"466 -17 OFFCURVE",
"355 -17 CURVE SMOOTH",
"218 -17 OFFCURVE",
"127 52 OFFCURVE",
"84 161 CURVE SMOOTH",
"63 216 OFFCURVE",
"52 277 OFFCURVE",
"52 346 CURVE SMOOTH",
"52 577 OFFCURVE",
"142 788 OFFCURVE",
"321 909 CURVE SMOOTH",
"410 970 OFFCURVE",
"517 1000 OFFCURVE",
"642 1000 CURVE SMOOTH"
);
},
{
closed = 1;
nodes = (
"679 875 LINE",
"660 878 OFFCURVE",
"641 880 OFFCURVE",
"621 880 CURVE SMOOTH",
"490 880 OFFCURVE",
"411 762 OFFCURVE",
"376 603 CURVE SMOOTH",
"358 523 OFFCURVE",
"349 440 OFFCURVE",
"349 355 CURVE SMOOTH",
"349 215 OFFCURVE",
"397 132 OFFCURVE",
"476 132 CURVE SMOOTH",
"513 132 OFFCURVE",
"549 148 OFFCURVE",
"585 180 CURVE"
);
},
{
closed = 1;
nodes = (
"399 1405 OFFCURVE",
"400 1425 OFFCURVE",
"403 1446 CURVE",
"561 1446 LINE",
"561 1407 LINE SMOOTH",
"561 1343 OFFCURVE",
"582 1305 OFFCURVE",
"671 1305 CURVE SMOOTH",
"751 1305 OFFCURVE",
"788 1334 OFFCURVE",
"800 1374 CURVE SMOOTH",
"806 1393 OFFCURVE",
"810 1417 OFFCURVE",
"811 1446 CURVE",
"967 1446 LINE",
"968 1439 OFFCURVE",
"968 1429 OFFCURVE",
"968 1416 CURVE SMOOTH",
"968 1317 OFFCURVE",
"928 1222 OFFCURVE",
"838 1163 CURVE SMOOTH",
"793 1133 OFFCURVE",
"736 1118 OFFCURVE",
"667 1118 CURVE SMOOTH",
"539 1118 OFFCURVE",
"459 1175 OFFCURVE",
"425 1256 CURVE SMOOTH",
"408 1297 OFFCURVE",
"399 1340 OFFCURVE",
"399 1387 CURVE SMOOTH"
);
}
);
width = 1044;
}
);
note = abreve;
unicode = 0103;
},
{
glyphname = acircumflex;
layers = (
{
layerId = "91C2604D-2087-4E0F-8837-A2CE9AC82E20";
name = "Bold Italic";
paths = (
{
closed = 1;
nodes = (
"706 1000 OFFCURVE",
"787 984 OFFCURVE",
"846 963 CURVE",
"977 1000 LINE",
"866 195 LINE",
"865 190 OFFCURVE",
"865 184 OFFCURVE",
"865 176 CURVE SMOOTH",
"865 145 OFFCURVE",
"877 130 OFFCURVE",
"900 130 CURVE SMOOTH",
"919 130 OFFCURVE",
"945 143 OFFCURVE",
"980 169 CURVE",
"1004 107 LINE",
"983 76 OFFCURVE",
"941 36 OFFCURVE",
"874 6 CURVE SMOOTH",
"841 -9 OFFCURVE",
"804 -17 OFFCURVE",
"763 -17 CURVE SMOOTH",
"675 -17 OFFCURVE",
"618 23 OFFCURVE",
"617 91 CURVE",
"552 27 OFFCURVE",
"466 -17 OFFCURVE",
"355 -17 CURVE SMOOTH",
"218 -17 OFFCURVE",
"127 52 OFFCURVE",
"84 161 CURVE SMOOTH",
"63 216 OFFCURVE",
"52 277 OFFCURVE",
"52 346 CURVE SMOOTH",
"52 577 OFFCURVE",
"142 788 OFFCURVE",
"321 909 CURVE SMOOTH",
"410 970 OFFCURVE",
"517 1000 OFFCURVE",
"642 1000 CURVE SMOOTH"
);
},
{
closed = 1;
nodes = (
"679 875 LINE",
"660 878 OFFCURVE",
"641 880 OFFCURVE",
"621 880 CURVE SMOOTH",
"490 880 OFFCURVE",
"411 762 OFFCURVE",
"376 603 CURVE SMOOTH",
"358 523 OFFCURVE",
"349 440 OFFCURVE",
"349 355 CURVE SMOOTH",
"349 215 OFFCURVE",
"397 132 OFFCURVE",
"476 132 CURVE SMOOTH",
"513 132 OFFCURVE",
"549 148 OFFCURVE",
"585 180 CURVE"
);
},
{
closed = 1;
nodes = (
"655 1436 LINE",
"808 1436 LINE",
"988 1115 LINE",
"882 1065 LINE",
"709 1232 LINE",
"431 1066 LINE",
"339 1115 LINE"
);
}
);
width = 1044;
}
);
note = acircumflex;
unicode = 00E2;
},
{
glyphname = adieresis;
layers = (
{
layerId = "91C2604D-2087-4E0F-8837-A2CE9AC82E20";
name = "Bold Italic";
paths = (
{
closed = 1;
nodes = (
"706 1000 OFFCURVE",
"787 984 OFFCURVE",
"846 963 CURVE",
"977 1000 LINE",
"866 195 LINE",
"865 190 OFFCURVE",
"865 184 OFFCURVE",
"865 176 CURVE SMOOTH",
"865 145 OFFCURVE",
"877 130 OFFCURVE",
"900 130 CURVE SMOOTH",
"919 130 OFFCURVE",
"945 143 OFFCURVE",
"980 169 CURVE",
"1004 107 LINE",
"983 76 OFFCURVE",
"941 36 OFFCURVE",
"874 6 CURVE SMOOTH",
"841 -9 OFFCURVE",
"804 -17 OFFCURVE",
"763 -17 CURVE SMOOTH",
"675 -17 OFFCURVE",
"618 23 OFFCURVE",
"617 91 CURVE",
"552 27 OFFCURVE",
"466 -17 OFFCURVE",
"355 -17 CURVE SMOOTH",
"218 -17 OFFCURVE",
"127 52 OFFCURVE",
"84 161 CURVE SMOOTH",
"63 216 OFFCURVE",
"52 277 OFFCURVE",
"52 346 CURVE SMOOTH",
"52 577 OFFCURVE",
"142 788 OFFCURVE",
"321 909 CURVE SMOOTH",
"410 970 OFFCURVE",
"517 1000 OFFCURVE",
"642 1000 CURVE SMOOTH"
);
},
{
closed = 1;
nodes = (
"679 875 LINE",
"660 878 OFFCURVE",
"641 880 OFFCURVE",
"621 880 CURVE SMOOTH",
"490 880 OFFCURVE",
"411 762 OFFCURVE",
"376 603 CURVE SMOOTH",
"358 523 OFFCURVE",
"349 440 OFFCURVE",
"349 355 CURVE SMOOTH",
"349 215 OFFCURVE",
"397 132 OFFCURVE",
"476 132 CURVE SMOOTH",
"513 132 OFFCURVE",
"549 148 OFFCURVE",
"585 180 CURVE"
);
},
{
closed = 1;
nodes = (
"340 1355 OFFCURVE",
"365 1409 OFFCURVE",
"410 1440 CURVE SMOOTH",
"433 1455 OFFCURVE",
"460 1463 OFFCURVE",
"491 1463 CURVE SMOOTH",
"543 1463 OFFCURVE",
"583 1434 OFFCURVE",
"604 1393 CURVE SMOOTH",
"615 1372 OFFCURVE",
"620 1351 OFFCURVE",
"620 1328 CURVE SMOOTH",
"620 1224 OFFCURVE",
"568 1151 OFFCURVE",
"463 1151 CURVE SMOOTH",
"419 1151 OFFCURVE",
"379 1180 OFFCURVE",
"357 1224 CURVE SMOOTH",
"346 1245 OFFCURVE",
"340 1268 OFFCURVE",
"340 1291 CURVE SMOOTH"
);
},
{
closed = 1;
nodes = (
"728 1355 OFFCURVE",
"753 1409 OFFCURVE",
"798 1440 CURVE SMOOTH",
"821 1455 OFFCURVE",
"848 1463 OFFCURVE",
"880 1463 CURVE SMOOTH",
"931 1463 OFFCURVE",
"972 1434 OFFCURVE",
"993 1393 CURVE SMOOTH",
"1004 1372 OFFCURVE",
"1009 1351 OFFCURVE",
"1009 1328 CURVE SMOOTH",
"1009 1224 OFFCURVE",
"956 1151 OFFCURVE",
"851 1151 CURVE SMOOTH",
"808 1151 OFFCURVE",
"768 1180 OFFCURVE",
"745 1224 CURVE SMOOTH",
"734 1245 OFFCURVE",
"728 1268 OFFCURVE",
"728 1291 CURVE SMOOTH"
);
}
);
width = 1044;
}
);
note = adieresis;
unicode = 00E4;
},
{
glyphname = agrave;
layers = (
{
layerId = "91C2604D-2087-4E0F-8837-A2CE9AC82E20";
name = "Bold Italic";
paths = (
{
closed = 1;
nodes = (
"706 1000 OFFCURVE",
"787 984 OFFCURVE",
"846 963 CURVE",
"977 1000 LINE",
"866 195 LINE",
"865 190 OFFCURVE",
"865 184 OFFCURVE",
"865 176 CURVE SMOOTH",
"865 145 OFFCURVE",
"877 130 OFFCURVE",
"900 130 CURVE SMOOTH",
"919 130 OFFCURVE",
"945 143 OFFCURVE",
"980 169 CURVE",
"1004 107 LINE",
"983 76 OFFCURVE",
"941 36 OFFCURVE",
"874 6 CURVE SMOOTH",
"841 -9 OFFCURVE",
"804 -17 OFFCURVE",
"763 -17 CURVE SMOOTH",
"675 -17 OFFCURVE",
"618 23 OFFCURVE",
"617 91 CURVE",
"552 27 OFFCURVE",
"466 -17 OFFCURVE",
"355 -17 CURVE SMOOTH",
"218 -17 OFFCURVE",
"127 52 OFFCURVE",
"84 161 CURVE SMOOTH",
"63 216 OFFCURVE",
"52 277 OFFCURVE",
"52 346 CURVE SMOOTH",
"52 577 OFFCURVE",
"142 788 OFFCURVE",
"321 909 CURVE SMOOTH",
"410 970 OFFCURVE",
"517 1000 OFFCURVE",
"642 1000 CURVE SMOOTH"
);
},
{
closed = 1;
nodes = (
"679 875 LINE",
"660 878 OFFCURVE",
"641 880 OFFCURVE",
"621 880 CURVE SMOOTH",
"490 880 OFFCURVE",
"411 762 OFFCURVE",
"376 603 CURVE SMOOTH",
"358 523 OFFCURVE",
"349 440 OFFCURVE",
"349 355 CURVE SMOOTH",
"349 215 OFFCURVE",
"397 132 OFFCURVE",
"476 132 CURVE SMOOTH",
"513 132 OFFCURVE",
"549 148 OFFCURVE",
"585 180 CURVE"
);
},
{
closed = 1;
nodes = (
"451 1499 LINE",
"698 1127 LINE",
"608 1067 LINE",
"559 1088 OFFCURVE",
"453 1163 OFFCURVE",
"367 1243 CURVE SMOOTH",
"324 1282 OFFCURVE",
"293 1317 OFFCURVE",
"276 1347 CURVE"
);
}
);
width = 1044;
}
);
note = agrave;
unicode = 00E0;
},
{
glyphname = amacron;
layers = (
{
layerId = "91C2604D-2087-4E0F-8837-A2CE9AC82E20";
name = "Bold Italic";
paths = (
{
closed = 1;
nodes = (
"706 1000 OFFCURVE",
"787 984 OFFCURVE",
"846 963 CURVE",
"977 1000 LINE",
"866 195 LINE",
"865 190 OFFCURVE",
"865 184 OFFCURVE",
"865 176 CURVE SMOOTH",
"865 145 OFFCURVE",
"877 130 OFFCURVE",
"900 130 CURVE SMOOTH",
"919 130 OFFCURVE",
"945 143 OFFCURVE",
"980 169 CURVE",
"1004 107 LINE",
"983 76 OFFCURVE",
"941 36 OFFCURVE",
"874 6 CURVE SMOOTH",
"841 -9 OFFCURVE",
"804 -17 OFFCURVE",
"763 -17 CURVE SMOOTH",
"675 -17 OFFCURVE",
"618 23 OFFCURVE",
"617 91 CURVE",
"552 27 OFFCURVE",
"466 -17 OFFCURVE",
"355 -17 CURVE SMOOTH",
"218 -17 OFFCURVE",
"127 52 OFFCURVE",
"84 161 CURVE SMOOTH",
"63 216 OFFCURVE",
"52 277 OFFCURVE",
"52 346 CURVE SMOOTH",
"52 577 OFFCURVE",
"142 788 OFFCURVE",
"321 909 CURVE SMOOTH",
"410 970 OFFCURVE",
"517 1000 OFFCURVE",
"642 1000 CURVE SMOOTH"
);
},
{
closed = 1;
nodes = (
"679 875 LINE",
"660 878 OFFCURVE",
"641 880 OFFCURVE",
"621 880 CURVE SMOOTH",
"490 880 OFFCURVE",
"411 762 OFFCURVE",
"376 603 CURVE SMOOTH",
"358 523 OFFCURVE",
"349 440 OFFCURVE",
"349 355 CURVE SMOOTH",
"349 215 OFFCURVE",
"397 132 OFFCURVE",
"476 132 CURVE SMOOTH",
"513 132 OFFCURVE",
"549 148 OFFCURVE",
"585 180 CURVE"
);
},
{
closed = 1;
nodes = (
"900 1388 LINE",
"883 1208 LINE",
"391 1208 LINE",
"409 1388 LINE"
);
}
);
width = 1044;
}
);
note = amacron;
unicode = 0101;
},
{
glyphname = aogonek;
layers = (
{
layerId = "91C2604D-2087-4E0F-8837-A2CE9AC82E20";
name = "Bold Italic";
paths = (
{
closed = 1;
nodes = (
"706 1000 OFFCURVE",
"787 984 OFFCURVE",
"846 963 CURVE",
"977 1000 LINE",
"866 195 LINE",
"865 190 OFFCURVE",
"865 184 OFFCURVE",
"865 176 CURVE SMOOTH",
"865 145 OFFCURVE",
"877 130 OFFCURVE",
"900 130 CURVE SMOOTH",
"919 130 OFFCURVE",
"945 143 OFFCURVE",
"980 169 CURVE",
"1004 107 LINE",
"984 79 OFFCURVE",
"942 38 OFFCURVE",
"887 11 CURVE",
"764 -70 OFFCURVE",
"703 -135 OFFCURVE",
"703 -185 CURVE SMOOTH",
"703 -230 OFFCURVE",
"725 -247 OFFCURVE",
"761 -247 CURVE SMOOTH",
"804 -247 OFFCURVE",
"836 -229 OFFCURVE",
"893 -182 CURVE",
"924 -280 LINE",
"847 -360 OFFCURVE",
"745 -413 OFFCURVE",
"628 -413 CURVE SMOOTH",
"519 -413 OFFCURVE",
"462 -356 OFFCURVE",
"462 -263 CURVE SMOOTH",
"462 -235 OFFCURVE",
"478 -189 OFFCURVE",
"501 -157 CURVE",
"554 -77 OFFCURVE",
"612 -36 OFFCURVE",
"680 -1 CURVE",
"641 15 OFFCURVE",
"617 47 OFFCURVE",
"617 91 CURVE",
"552 27 OFFCURVE",
"466 -17 OFFCURVE",
"355 -17 CURVE SMOOTH",
"218 -17 OFFCURVE",
"127 52 OFFCURVE",
"84 161 CURVE SMOOTH",
"63 216 OFFCURVE",
"52 277 OFFCURVE",
"52 346 CURVE SMOOTH",
"52 577 OFFCURVE",
"142 788 OFFCURVE",
"321 909 CURVE SMOOTH",
"410 970 OFFCURVE",
"517 1000 OFFCURVE",
"642 1000 CURVE SMOOTH"
);
},
{
closed = 1;
nodes = (
"679 875 LINE",
"660 878 OFFCURVE",
"641 880 OFFCURVE",
"621 880 CURVE SMOOTH",
"490 880 OFFCURVE",
"411 762 OFFCURVE",
"376 603 CURVE SMOOTH",
"358 523 OFFCURVE",
"349 440 OFFCURVE",
"349 355 CURVE SMOOTH",
"349 215 OFFCURVE",
"397 132 OFFCURVE",
"476 132 CURVE SMOOTH",
"513 132 OFFCURVE",
"549 148 OFFCURVE",
"585 180 CURVE"
);
}
);
width = 1044;
}
);
note = aogonek;
unicode = 0105;
},
{
glyphname = aring;
layers = (
{
layerId = "91C2604D-2087-4E0F-8837-A2CE9AC82E20";
name = "Bold Italic";
paths = (
{
closed = 1;
nodes = (
"706 1000 OFFCURVE",
"787 984 OFFCURVE",
"846 963 CURVE",
"977 1000 LINE",
"866 195 LINE",
"865 190 OFFCURVE",
"865 184 OFFCURVE",
"865 176 CURVE SMOOTH",
"865 145 OFFCURVE",
"877 130 OFFCURVE",
"900 130 CURVE SMOOTH",
"919 130 OFFCURVE",
"945 143 OFFCURVE",
"980 169 CURVE",
"1004 107 LINE",
"983 76 OFFCURVE",
"941 36 OFFCURVE",
"874 6 CURVE SMOOTH",
"841 -9 OFFCURVE",
"804 -17 OFFCURVE",
"763 -17 CURVE SMOOTH",
"675 -17 OFFCURVE",
"618 23 OFFCURVE",
"617 91 CURVE",
"552 27 OFFCURVE",
"466 -17 OFFCURVE",
"355 -17 CURVE SMOOTH",
"218 -17 OFFCURVE",
"127 52 OFFCURVE",
"84 161 CURVE SMOOTH",
"63 216 OFFCURVE",
"52 277 OFFCURVE",
"52 346 CURVE SMOOTH",
"52 577 OFFCURVE",
"142 788 OFFCURVE",
"321 909 CURVE SMOOTH",
"410 970 OFFCURVE",
"517 1000 OFFCURVE",
"642 1000 CURVE SMOOTH"
);
},
{
closed = 1;
nodes = (
"679 875 LINE",
"660 878 OFFCURVE",
"641 880 OFFCURVE",
"621 880 CURVE SMOOTH",
"490 880 OFFCURVE",
"411 762 OFFCURVE",
"376 603 CURVE SMOOTH",
"358 523 OFFCURVE",
"349 440 OFFCURVE",
"349 355 CURVE SMOOTH",
"349 215 OFFCURVE",
"397 132 OFFCURVE",
"476 132 CURVE SMOOTH",
"513 132 OFFCURVE",
"549 148 OFFCURVE",
"585 180 CURVE"
);
},
{
closed = 1;
nodes = (
"395 1412 OFFCURVE",
"474 1492 OFFCURVE",
"575 1526 CURVE SMOOTH",
"626 1543 OFFCURVE",
"676 1551 OFFCURVE",
"727 1551 CURVE SMOOTH",
"828 1551 OFFCURVE",
"909 1517 OFFCURVE",
"954 1456 CURVE SMOOTH",
"977 1425 OFFCURVE",
"988 1389 OFFCURVE",
"988 1348 CURVE SMOOTH",
"988 1232 OFFCURVE",
"918 1149 OFFCURVE",
"818 1109 CURVE SMOOTH",
"767 1088 OFFCURVE",
"715 1078 OFFCURVE",
"661 1078 CURVE SMOOTH",
"496 1078 OFFCURVE",
"395 1154 OFFCURVE",
"395 1287 CURVE SMOOTH"
);
},
{
closed = 1;
nodes = (
"822 1364 OFFCURVE",
"798 1400 OFFCURVE",
"763 1418 CURVE SMOOTH",
"745 1427 OFFCURVE",
"726 1431 OFFCURVE",
"705 1431 CURVE SMOOTH",
"629 1431 OFFCURVE",
"562 1392 OFFCURVE",
"562 1307 CURVE SMOOTH",
"562 1268 OFFCURVE",
"587 1234 OFFCURVE",
"623 1215 CURVE SMOOTH",
"641 1206 OFFCURVE",
"660 1201 OFFCURVE",
"680 1201 CURVE SMOOTH",
"759 1201 OFFCURVE",
"822 1233 OFFCURVE",
"822 1324 CURVE SMOOTH"
);
}
);
width = 1044;
}
);
note = aring;
unicode = 00E5;
},
{
glyphname = atilde;
layers = (
{
layerId = "91C2604D-2087-4E0F-8837-A2CE9AC82E20";
name = "Bold Italic";
paths = (
{
closed = 1;
nodes = (
"706 1000 OFFCURVE",
"787 984 OFFCURVE",
"846 963 CURVE",
"977 1000 LINE",
"866 195 LINE",
"865 190 OFFCURVE",
"865 184 OFFCURVE",
"865 176 CURVE SMOOTH",
"865 145 OFFCURVE",
"877 130 OFFCURVE",
"900 130 CURVE SMOOTH",
"919 130 OFFCURVE",
"945 143 OFFCURVE",
"980 169 CURVE",
"1004 107 LINE",
"983 76 OFFCURVE",
"941 36 OFFCURVE",
"874 6 CURVE SMOOTH",
"841 -9 OFFCURVE",
"804 -17 OFFCURVE",
"763 -17 CURVE SMOOTH",
"675 -17 OFFCURVE",
"618 23 OFFCURVE",
"617 91 CURVE",
"552 27 OFFCURVE",
"466 -17 OFFCURVE",
"355 -17 CURVE SMOOTH",
"218 -17 OFFCURVE",
"127 52 OFFCURVE",
"84 161 CURVE SMOOTH",
"63 216 OFFCURVE",
"52 277 OFFCURVE",
"52 346 CURVE SMOOTH",
"52 577 OFFCURVE",
"142 788 OFFCURVE",
"321 909 CURVE SMOOTH",
"410 970 OFFCURVE",
"517 1000 OFFCURVE",
"642 1000 CURVE SMOOTH"
);
},
{
closed = 1;
nodes = (
"679 875 LINE",
"660 878 OFFCURVE",
"641 880 OFFCURVE",
"621 880 CURVE SMOOTH",
"490 880 OFFCURVE",
"411 762 OFFCURVE",
"376 603 CURVE SMOOTH",
"358 523 OFFCURVE",
"349 440 OFFCURVE",
"349 355 CURVE SMOOTH",
"349 215 OFFCURVE",
"397 132 OFFCURVE",
"476 132 CURVE SMOOTH",
"513 132 OFFCURVE",
"549 148 OFFCURVE",
"585 180 CURVE"
);
},
{
closed = 1;
nodes = (
"331 1299 LINE",
"355 1348 OFFCURVE",
"407 1396 OFFCURVE",
"467 1424 CURVE SMOOTH",
"496 1438 OFFCURVE",
"525 1445 OFFCURVE",
"552 1445 CURVE SMOOTH",
"617 1445 OFFCURVE",
"653 1418 OFFCURVE",
"701 1369 CURVE",
"740 1332 OFFCURVE",
"759 1316 OFFCURVE",
"792 1316 CURVE SMOOTH",
"831 1316 OFFCURVE",
"863 1335 OFFCURVE",
"885 1357 CURVE SMOOTH",
"896 1368 OFFCURVE",
"908 1383 OFFCURVE",
"923 1402 CURVE",
"999 1289 LINE",
"979 1238 OFFCURVE",
"930 1187 OFFCURVE",
"871 1156 CURVE SMOOTH",
"841 1141 OFFCURVE",
"812 1133 OFFCURVE",
"783 1133 CURVE SMOOTH",
"731 1133 OFFCURVE",
"693 1149 OFFCURVE",
"668 1169 CURVE",
"655 1178 OFFCURVE",
"641 1191 OFFCURVE",
"625 1207 CURVE SMOOTH",
"586 1246 OFFCURVE",
"565 1262 OFFCURVE",
"522 1262 CURVE SMOOTH",
"475 1262 OFFCURVE",
"438 1236 OFFCURVE",
"397 1193 CURVE"
);
}
);
width = 1044;
}
);
note = atilde;
unicode = 00E3;
},
{
glyphname = ae;
layers = (
{
layerId = "91C2604D-2087-4E0F-8837-A2CE9AC82E20";
name = "Bold Italic";
paths = (
{
closed = 1;
nodes = (
"52 565 OFFCURVE",
"159 782 OFFCURVE",
"356 907 CURVE SMOOTH",
"454 969 OFFCURVE",
"569 1000 OFFCURVE",
"702 1000 CURVE SMOOTH",
"753 1000 OFFCURVE",
"818 990 OFFCURVE",
"875 974 CURVE",
"952 1000 LINE",
"945 946 LINE",
"1018 982 OFFCURVE",
"1096 1000 OFFCURVE",
"1180 1000 CURVE SMOOTH",
"1372 1000 OFFCURVE",
"1463 909 OFFCURVE",
"1463 774 CURVE SMOOTH",
"1463 603 OFFCURVE",
"1337 490 OFFCURVE",
"1174 435 CURVE SMOOTH",
"1092 408 OFFCURVE",
"1011 393 OFFCURVE",
"931 391 CURVE",
"931 218 OFFCURVE",
"988 137 OFFCURVE",
"1091 137 CURVE SMOOTH",
"1212 137 OFFCURVE",
"1288 192 OFFCURVE",
"1348 271 CURVE",
"1403 182 LINE",
"1366 123 OFFCURVE",
"1294 57 OFFCURVE",
"1184 15 CURVE SMOOTH",
"1129 -6 OFFCURVE",
"1067 -17 OFFCURVE",
"998 -17 CURVE SMOOTH",
"810 -17 OFFCURVE",
"699 72 OFFCURVE",
"654 212 CURVE",
"569 85 OFFCURVE",
"453 -17 OFFCURVE",
"321 -17 CURVE SMOOTH",
"124 -17 OFFCURVE",
"52 129 OFFCURVE",
"52 337 CURVE SMOOTH"
);
},
{
closed = 1;
nodes = (
"1183 841 OFFCURVE",
"1161 882 OFFCURVE",
"1116 882 CURVE SMOOTH",
"997 882 OFFCURVE",
"942 698 OFFCURVE",
"931 494 CURVE",
"1004 499 OFFCURVE",
"1093 543 OFFCURVE",
"1148 623 CURVE SMOOTH",
"1175 663 OFFCURVE",
"1188 709 OFFCURVE",
"1187 762 CURVE SMOOTH"
);
},
{
closed = 1;
nodes = (
"689 880 LINE",
"542 877 OFFCURVE",
"439 758 OFFCURVE",
"388 597 CURVE SMOOTH",
"362 516 OFFCURVE",
"349 436 OFFCURVE",
"349 355 CURVE SMOOTH",
"349 246 OFFCURVE",
"370 155 OFFCURVE",
"425 155 CURVE SMOOTH",
"480 155 OFFCURVE",
"542 210 OFFCURVE",
"599 289 CURVE"
);
}
);
width = 1498;
}
);
note = ae;
unicode = 00E6;
},
{
glyphname = aeacute;
layers = (
{
layerId = "91C2604D-2087-4E0F-8837-A2CE9AC82E20";
name = "Bold Italic";
paths = (
{
closed = 1;
nodes = (
"1007 1499 LINE",
"1172 1338 LINE",
"1151 1299 OFFCURVE",
"1051 1208 OFFCURVE",
"948 1134 CURVE SMOOTH",
"897 1097 OFFCURVE",
"855 1072 OFFCURVE",
"823 1059 CURVE",
"734 1128 LINE"
);
},
{
closed = 1;
nodes = (
"52 565 OFFCURVE",
"159 782 OFFCURVE",
"356 907 CURVE SMOOTH",
"454 969 OFFCURVE",
"569 1000 OFFCURVE",
"702 1000 CURVE SMOOTH",
"753 1000 OFFCURVE",
"818 990 OFFCURVE",
"875 974 CURVE",
"952 1000 LINE",
"945 946 LINE",
"1018 982 OFFCURVE",
"1096 1000 OFFCURVE",
"1180 1000 CURVE SMOOTH",
"1372 1000 OFFCURVE",
"1463 909 OFFCURVE",
"1463 774 CURVE SMOOTH",
"1463 603 OFFCURVE",
"1337 490 OFFCURVE",
"1174 435 CURVE SMOOTH",
"1092 408 OFFCURVE",
"1011 393 OFFCURVE",
"931 391 CURVE",
"931 218 OFFCURVE",
"988 137 OFFCURVE",
"1091 137 CURVE SMOOTH",
"1212 137 OFFCURVE",
"1288 192 OFFCURVE",
"1348 271 CURVE",
"1403 182 LINE",
"1366 123 OFFCURVE",
"1294 57 OFFCURVE",
"1184 15 CURVE SMOOTH",
"1129 -6 OFFCURVE",
"1067 -17 OFFCURVE",
"998 -17 CURVE SMOOTH",
"810 -17 OFFCURVE",
"699 72 OFFCURVE",
"654 212 CURVE",
"569 85 OFFCURVE",
"453 -17 OFFCURVE",
"321 -17 CURVE SMOOTH",
"124 -17 OFFCURVE",
"52 129 OFFCURVE",
"52 337 CURVE SMOOTH"
);
},
{
closed = 1;
nodes = (
"1183 841 OFFCURVE",
"1161 882 OFFCURVE",
"1116 882 CURVE SMOOTH",
"997 882 OFFCURVE",
"942 698 OFFCURVE",
"931 494 CURVE",
"1004 499 OFFCURVE",
"1093 543 OFFCURVE",
"1148 623 CURVE SMOOTH",
"1175 663 OFFCURVE",
"1188 709 OFFCURVE",
"1187 762 CURVE SMOOTH"
);
},
{
closed = 1;
nodes = (
"689 880 LINE",
"542 877 OFFCURVE",
"439 758 OFFCURVE",
"388 597 CURVE SMOOTH",
"362 516 OFFCURVE",
"349 436 OFFCURVE",
"349 355 CURVE SMOOTH",
"349 246 OFFCURVE",
"370 155 OFFCURVE",
"425 155 CURVE SMOOTH",
"480 155 OFFCURVE",
"542 210 OFFCURVE",
"599 289 CURVE"
);
}
);
width = 1498;
}
);
note = aeacute;
unicode = 01FD;
},
{
glyphname = b;
layers = (
{
layerId = "91C2604D-2087-4E0F-8837-A2CE9AC82E20";
name = "Bold Italic";
paths = (
{
closed = 1;
nodes = (
"129 1313 LINE",
"147 1385 LINE",
"458 1419 LINE",
"504 1396 LINE",
"440 911 LINE",
"511 970 OFFCURVE",
"591 1000 OFFCURVE",
"682 1000 CURVE SMOOTH",
"878 1000 OFFCURVE",
"978 868 OFFCURVE",
"978 628 CURVE SMOOTH",
"978 385 OFFCURVE",
"878 180 OFFCURVE",
"701 68 CURVE SMOOTH",
"612 11 OFFCURVE",
"509 -17 OFFCURVE",
"391 -17 CURVE SMOOTH",
"326 -17 OFFCURVE",
"246 -1 OFFCURVE",
"182 20 CURVE",
"57 -17 LINE",
"218 1276 LINE"
);
},
{
closed = 1;
nodes = (
"336 110 LINE",
"355 105 OFFCURVE",
"381 102 OFFCURVE",
"414 102 CURVE SMOOTH",
"538 102 OFFCURVE",
"620 209 OFFCURVE",
"657 369 CURVE SMOOTH",
"676 448 OFFCURVE",
"685 534 OFFCURVE",
"685 627 CURVE SMOOTH",
"685 755 OFFCURVE",
"642 850 OFFCURVE",
"561 850 CURVE SMOOTH",
"511 850 OFFCURVE",
"465 824 OFFCURVE",
"422 773 CURVE"
);
}
);
width = 1033;
}
);
note = b;
unicode = 0062;
},
{
glyphname = c;
layers = (
{
layerId = "91C2604D-2087-4E0F-8837-A2CE9AC82E20";
name = "Bold Italic";
paths = (
{
closed = 1;
nodes = (
"51 600 OFFCURVE",
"134 797 OFFCURVE",
"302 913 CURVE SMOOTH",
"385 971 OFFCURVE",
"487 1000 OFFCURVE",
"606 1000 CURVE SMOOTH",
"682 1000 OFFCURVE",
"771 988 OFFCURVE",
"826 968 CURVE",
"755 691 LINE",
"692 691 LINE",
"657 744 OFFCURVE",
"628 787 OFFCURVE",
"604 818 CURVE SMOOTH",
"580 849 OFFCURVE",
"560 865 OFFCURVE",
"544 865 CURVE SMOOTH",
"483 865 OFFCURVE",
"414 784 OFFCURVE",
"374 648 CURVE SMOOTH",
"354 579 OFFCURVE",
"344 503 OFFCURVE",
"344 420 CURVE SMOOTH",
"344 288 OFFCURVE",
"365 209 OFFCURVE",
"409 173 CURVE SMOOTH",
"431 154 OFFCURVE",
"459 145 OFFCURVE",
"494 145 CURVE SMOOTH",
"597 145 OFFCURVE",
"660 187 OFFCURVE",
"713 255 CURVE",
"768 167 LINE",
"732 110 OFFCURVE",
"662 50 OFFCURVE",
"558 12 CURVE SMOOTH",
"505 -7 OFFCURVE",
"447 -17 OFFCURVE",
"384 -17 CURVE SMOOTH",
"247 -17 OFFCURVE",
"146 46 OFFCURVE",
"92 171 CURVE SMOOTH",
"65 233 OFFCURVE",
"51 309 OFFCURVE",
"51 399 CURVE SMOOTH"
);
}
);
width = 826;
}
);
note = c;
unicode = 0063;
},
{
glyphname = cacute;
layers = (
{
layerId = "91C2604D-2087-4E0F-8837-A2CE9AC82E20";
name = "Bold Italic";
paths = (
{
closed = 1;
nodes = (
"760 1499 LINE",
"925 1338 LINE",
"904 1299 OFFCURVE",
"804 1208 OFFCURVE",
"701 1134 CURVE SMOOTH",
"650 1097 OFFCURVE",
"608 1072 OFFCURVE",
"576 1059 CURVE",
"487 1128 LINE"
);
},
{
closed = 1;
nodes = (
"51 600 OFFCURVE",
"134 797 OFFCURVE",
"302 913 CURVE SMOOTH",
"385 971 OFFCURVE",
"487 1000 OFFCURVE",
"606 1000 CURVE SMOOTH",
"682 1000 OFFCURVE",
"771 988 OFFCURVE",
"826 968 CURVE",
"755 691 LINE",
"692 691 LINE",
"657 744 OFFCURVE",
"628 787 OFFCURVE",
"604 818 CURVE SMOOTH",
"580 849 OFFCURVE",
"560 865 OFFCURVE",
"544 865 CURVE SMOOTH",
"483 865 OFFCURVE",
"414 784 OFFCURVE",
"374 648 CURVE SMOOTH",
"354 579 OFFCURVE",
"344 503 OFFCURVE",
"344 420 CURVE SMOOTH",
"344 288 OFFCURVE",
"365 209 OFFCURVE",
"409 173 CURVE SMOOTH",
"431 154 OFFCURVE",
"459 145 OFFCURVE",
"494 145 CURVE SMOOTH",
"597 145 OFFCURVE",
"660 187 OFFCURVE",
"713 255 CURVE",
"768 167 LINE",
"732 110 OFFCURVE",
"662 50 OFFCURVE",
"558 12 CURVE SMOOTH",
"505 -7 OFFCURVE",
"447 -17 OFFCURVE",
"384 -17 CURVE SMOOTH",
"247 -17 OFFCURVE",
"146 46 OFFCURVE",
"92 171 CURVE SMOOTH",
"65 233 OFFCURVE",
"51 309 OFFCURVE",
"51 399 CURVE SMOOTH"
);
}
);
width = 826;
}
);
note = cacute;
unicode = 0107;
},
